G04 EAGLE Gerber RS-274X export*
G75*
%MOMM*%
%FSLAX34Y34*%
%LPD*%
%INTop Copper*%
%IPPOS*%
%AMOC8*
5,1,8,0,0,1.08239X$1,22.5*%
G01*
%ADD10C,1.790700*%
%ADD11C,1.219200*%
%ADD12R,1.500000X1.300000*%
%ADD13R,3.600000X1.300000*%
%ADD14C,1.524000*%
%ADD15R,1.300000X1.500000*%
%ADD16P,1.649562X8X112.500000*%
%ADD17R,0.660400X2.032000*%
%ADD18R,1.524000X1.524000*%
%ADD19R,1.470000X1.270000*%
%ADD20R,1.270000X1.470000*%
%ADD21R,1.600000X1.800000*%
%ADD22C,2.000000*%
%ADD23R,2.000000X2.000000*%
%ADD24P,1.649562X8X22.500000*%
%ADD25C,0.406400*%
%ADD26C,1.350000*%
%ADD27C,0.705600*%
%ADD28C,0.609600*%
%ADD29C,0.914400*%
%ADD30C,2.032000*%
%ADD31C,1.016000*%
%ADD32C,1.625600*%
%ADD33C,0.812800*%
%ADD34C,0.508000*%

G36*
X658330Y-2536D02*
X658330Y-2536D01*
X658377Y-2538D01*
X658614Y-2516D01*
X658851Y-2499D01*
X658897Y-2489D01*
X658944Y-2485D01*
X659176Y-2430D01*
X659408Y-2380D01*
X659452Y-2364D01*
X659499Y-2353D01*
X659720Y-2266D01*
X659943Y-2184D01*
X659985Y-2162D01*
X660029Y-2145D01*
X660236Y-2028D01*
X660446Y-1916D01*
X660484Y-1888D01*
X660525Y-1865D01*
X660714Y-1719D01*
X660906Y-1579D01*
X660939Y-1546D01*
X660977Y-1518D01*
X661143Y-1348D01*
X661314Y-1182D01*
X661343Y-1144D01*
X661376Y-1111D01*
X661517Y-919D01*
X661663Y-731D01*
X661686Y-690D01*
X661714Y-652D01*
X661827Y-443D01*
X661945Y-236D01*
X661962Y-192D01*
X661985Y-151D01*
X662067Y72D01*
X662155Y293D01*
X662166Y339D01*
X662183Y384D01*
X662233Y616D01*
X662289Y847D01*
X662294Y894D01*
X662304Y940D01*
X662321Y1177D01*
X662344Y1414D01*
X662342Y1462D01*
X662346Y1509D01*
X662330Y1746D01*
X662320Y1984D01*
X662311Y2030D01*
X662308Y2077D01*
X662259Y2310D01*
X662216Y2544D01*
X662201Y2588D01*
X662191Y2635D01*
X662151Y2737D01*
X662035Y3084D01*
X661943Y3266D01*
X661903Y3369D01*
X659344Y8391D01*
X657656Y19050D01*
X659344Y29709D01*
X664244Y39325D01*
X671875Y46956D01*
X681491Y51856D01*
X692150Y53544D01*
X702809Y51856D01*
X707831Y49297D01*
X707875Y49279D01*
X707916Y49255D01*
X708138Y49167D01*
X708356Y49075D01*
X708401Y49062D01*
X708445Y49045D01*
X708677Y48989D01*
X708906Y48928D01*
X708953Y48922D01*
X708999Y48911D01*
X709236Y48888D01*
X709472Y48859D01*
X709519Y48860D01*
X709566Y48856D01*
X709805Y48866D01*
X710042Y48871D01*
X710088Y48878D01*
X710136Y48880D01*
X710369Y48924D01*
X710604Y48962D01*
X710650Y48976D01*
X710696Y48984D01*
X710921Y49060D01*
X711148Y49130D01*
X711191Y49150D01*
X711236Y49165D01*
X711449Y49272D01*
X711664Y49373D01*
X711703Y49399D01*
X711745Y49421D01*
X711942Y49556D01*
X712140Y49686D01*
X712175Y49718D01*
X712214Y49744D01*
X712389Y49906D01*
X712568Y50063D01*
X712598Y50099D01*
X712633Y50131D01*
X712784Y50315D01*
X712939Y50495D01*
X712964Y50535D01*
X712994Y50572D01*
X713118Y50776D01*
X713245Y50976D01*
X713265Y51019D01*
X713289Y51059D01*
X713383Y51277D01*
X713482Y51494D01*
X713495Y51539D01*
X713514Y51583D01*
X713576Y51812D01*
X713643Y52040D01*
X713650Y52087D01*
X713663Y52133D01*
X713673Y52242D01*
X713727Y52604D01*
X713729Y52808D01*
X713739Y52917D01*
X713739Y404283D01*
X713736Y404330D01*
X713738Y404377D01*
X713716Y404614D01*
X713699Y404851D01*
X713689Y404897D01*
X713685Y404944D01*
X713630Y405176D01*
X713580Y405408D01*
X713564Y405452D01*
X713553Y405499D01*
X713466Y405720D01*
X713384Y405943D01*
X713362Y405985D01*
X713345Y406029D01*
X713228Y406236D01*
X713116Y406446D01*
X713088Y406484D01*
X713065Y406525D01*
X712919Y406714D01*
X712779Y406906D01*
X712746Y406939D01*
X712718Y406977D01*
X712548Y407143D01*
X712382Y407314D01*
X712344Y407343D01*
X712311Y407376D01*
X712119Y407517D01*
X711931Y407663D01*
X711890Y407686D01*
X711852Y407714D01*
X711643Y407827D01*
X711436Y407945D01*
X711392Y407962D01*
X711351Y407985D01*
X711128Y408067D01*
X710907Y408155D01*
X710861Y408166D01*
X710816Y408183D01*
X710584Y408233D01*
X710353Y408289D01*
X710306Y408294D01*
X710260Y408304D01*
X710023Y408321D01*
X709786Y408344D01*
X709738Y408342D01*
X709691Y408346D01*
X709454Y408330D01*
X709216Y408320D01*
X709170Y408311D01*
X709123Y408308D01*
X708890Y408259D01*
X708656Y408216D01*
X708612Y408201D01*
X708565Y408191D01*
X708463Y408151D01*
X708116Y408035D01*
X707934Y407943D01*
X707831Y407903D01*
X702809Y405344D01*
X692150Y403656D01*
X681491Y405344D01*
X671875Y410244D01*
X664244Y417875D01*
X659344Y427491D01*
X657656Y438150D01*
X659344Y448809D01*
X661903Y453831D01*
X661921Y453875D01*
X661945Y453916D01*
X662033Y454138D01*
X662125Y454356D01*
X662138Y454401D01*
X662155Y454445D01*
X662211Y454677D01*
X662272Y454906D01*
X662278Y454953D01*
X662289Y454999D01*
X662312Y455236D01*
X662341Y455472D01*
X662340Y455519D01*
X662344Y455566D01*
X662334Y455805D01*
X662329Y456042D01*
X662322Y456088D01*
X662320Y456136D01*
X662276Y456369D01*
X662238Y456604D01*
X662224Y456650D01*
X662216Y456696D01*
X662140Y456921D01*
X662070Y457148D01*
X662050Y457191D01*
X662035Y457236D01*
X661928Y457449D01*
X661827Y457664D01*
X661801Y457703D01*
X661779Y457745D01*
X661644Y457942D01*
X661514Y458140D01*
X661482Y458175D01*
X661456Y458214D01*
X661294Y458389D01*
X661137Y458568D01*
X661101Y458598D01*
X661069Y458633D01*
X660885Y458784D01*
X660705Y458939D01*
X660665Y458964D01*
X660628Y458994D01*
X660424Y459118D01*
X660224Y459245D01*
X660181Y459265D01*
X660141Y459289D01*
X659923Y459383D01*
X659706Y459482D01*
X659661Y459495D01*
X659617Y459514D01*
X659388Y459576D01*
X659160Y459643D01*
X659113Y459650D01*
X659067Y459663D01*
X658958Y459673D01*
X658596Y459727D01*
X658392Y459729D01*
X658283Y459739D01*
X117110Y459739D01*
X117052Y459735D01*
X116995Y459738D01*
X116768Y459715D01*
X116542Y459699D01*
X116485Y459687D01*
X116428Y459682D01*
X116207Y459628D01*
X115984Y459580D01*
X115930Y459560D01*
X115874Y459547D01*
X115663Y459463D01*
X115449Y459384D01*
X115398Y459357D01*
X115345Y459336D01*
X115148Y459223D01*
X114947Y459116D01*
X114900Y459082D01*
X114850Y459053D01*
X114670Y458913D01*
X114487Y458779D01*
X114446Y458739D01*
X114400Y458704D01*
X114242Y458540D01*
X114079Y458382D01*
X114043Y458336D01*
X114003Y458295D01*
X113869Y458111D01*
X113730Y457931D01*
X113701Y457881D01*
X113667Y457834D01*
X113560Y457634D01*
X113448Y457436D01*
X113426Y457382D01*
X113399Y457332D01*
X113322Y457118D01*
X113238Y456907D01*
X113224Y456850D01*
X113204Y456796D01*
X113157Y456574D01*
X113103Y456353D01*
X113098Y456295D01*
X113086Y456239D01*
X113070Y456013D01*
X113048Y455786D01*
X113051Y455728D01*
X113047Y455670D01*
X113063Y455444D01*
X113073Y455216D01*
X113083Y455160D01*
X113087Y455102D01*
X113135Y454880D01*
X113177Y454656D01*
X113195Y454602D01*
X113207Y454545D01*
X113286Y454331D01*
X113358Y454116D01*
X113384Y454064D01*
X113404Y454010D01*
X113511Y453810D01*
X113613Y453607D01*
X113646Y453559D01*
X113673Y453508D01*
X113808Y453325D01*
X113937Y453138D01*
X113976Y453095D01*
X114010Y453049D01*
X114169Y452886D01*
X114323Y452719D01*
X114368Y452682D01*
X114408Y452641D01*
X114588Y452502D01*
X114764Y452358D01*
X114814Y452328D01*
X114859Y452293D01*
X114962Y452238D01*
X115054Y452182D01*
X118717Y448519D01*
X120651Y443851D01*
X120651Y407049D01*
X118717Y402381D01*
X115144Y398808D01*
X110476Y396874D01*
X105424Y396874D01*
X100756Y398808D01*
X100202Y399361D01*
X100200Y399363D01*
X100198Y399366D01*
X99994Y399542D01*
X99772Y399735D01*
X99769Y399737D01*
X99767Y399739D01*
X99536Y399888D01*
X99294Y400044D01*
X99291Y400046D01*
X99288Y400048D01*
X99036Y400164D01*
X98777Y400284D01*
X98774Y400285D01*
X98771Y400287D01*
X98503Y400367D01*
X98232Y400450D01*
X98228Y400450D01*
X98225Y400451D01*
X97951Y400493D01*
X97669Y400537D01*
X97665Y400537D01*
X97662Y400537D01*
X97376Y400541D01*
X97099Y400545D01*
X97096Y400544D01*
X97092Y400544D01*
X97015Y400534D01*
X59470Y400534D01*
X58536Y400921D01*
X57821Y401636D01*
X57434Y402570D01*
X57434Y406369D01*
X57431Y406416D01*
X57433Y406463D01*
X57411Y406700D01*
X57394Y406938D01*
X57384Y406984D01*
X57380Y407031D01*
X57325Y407263D01*
X57275Y407495D01*
X57259Y407539D01*
X57248Y407585D01*
X57161Y407806D01*
X57079Y408030D01*
X57057Y408072D01*
X57040Y408115D01*
X56923Y408322D01*
X56811Y408532D01*
X56783Y408570D01*
X56760Y408612D01*
X56614Y408801D01*
X56474Y408992D01*
X56441Y409026D01*
X56413Y409063D01*
X56243Y409230D01*
X56077Y409400D01*
X56039Y409429D01*
X56006Y409462D01*
X55814Y409604D01*
X55626Y409749D01*
X55585Y409773D01*
X55547Y409801D01*
X55338Y409914D01*
X55131Y410031D01*
X55087Y410049D01*
X55046Y410071D01*
X54823Y410154D01*
X54602Y410242D01*
X54556Y410253D01*
X54511Y410269D01*
X54279Y410320D01*
X54048Y410376D01*
X54001Y410380D01*
X53955Y410390D01*
X53718Y410408D01*
X53481Y410431D01*
X53433Y410429D01*
X53386Y410432D01*
X53149Y410417D01*
X52911Y410406D01*
X52865Y410398D01*
X52818Y410395D01*
X52585Y410346D01*
X52351Y410302D01*
X52307Y410287D01*
X52260Y410278D01*
X52158Y410237D01*
X51811Y410121D01*
X51629Y410030D01*
X51526Y409990D01*
X42409Y405344D01*
X31750Y403656D01*
X21091Y405344D01*
X16069Y407903D01*
X16025Y407921D01*
X15984Y407945D01*
X15762Y408033D01*
X15544Y408126D01*
X15499Y408138D01*
X15455Y408155D01*
X15222Y408211D01*
X14994Y408272D01*
X14947Y408278D01*
X14901Y408289D01*
X14663Y408312D01*
X14428Y408341D01*
X14381Y408340D01*
X14334Y408344D01*
X14095Y408334D01*
X13858Y408329D01*
X13812Y408322D01*
X13764Y408320D01*
X13531Y408276D01*
X13296Y408239D01*
X13251Y408224D01*
X13204Y408216D01*
X12979Y408140D01*
X12752Y408070D01*
X12709Y408050D01*
X12664Y408035D01*
X12451Y407928D01*
X12236Y407827D01*
X12197Y407801D01*
X12155Y407779D01*
X11959Y407644D01*
X11760Y407514D01*
X11725Y407482D01*
X11686Y407456D01*
X11511Y407294D01*
X11332Y407137D01*
X11302Y407101D01*
X11267Y407069D01*
X11116Y406885D01*
X10961Y406705D01*
X10936Y406665D01*
X10906Y406628D01*
X10783Y406425D01*
X10655Y406224D01*
X10635Y406181D01*
X10611Y406141D01*
X10517Y405923D01*
X10418Y405706D01*
X10405Y405661D01*
X10386Y405617D01*
X10324Y405388D01*
X10257Y405160D01*
X10250Y405113D01*
X10237Y405067D01*
X10227Y404958D01*
X10173Y404596D01*
X10171Y404392D01*
X10161Y404283D01*
X10161Y52917D01*
X10164Y52870D01*
X10162Y52823D01*
X10184Y52586D01*
X10201Y52349D01*
X10211Y52303D01*
X10215Y52256D01*
X10270Y52024D01*
X10320Y51792D01*
X10336Y51748D01*
X10347Y51701D01*
X10434Y51480D01*
X10516Y51257D01*
X10538Y51215D01*
X10555Y51171D01*
X10672Y50964D01*
X10784Y50754D01*
X10812Y50716D01*
X10835Y50675D01*
X10981Y50486D01*
X11121Y50294D01*
X11154Y50261D01*
X11182Y50223D01*
X11352Y50057D01*
X11518Y49886D01*
X11556Y49857D01*
X11589Y49824D01*
X11781Y49683D01*
X11969Y49537D01*
X12010Y49514D01*
X12048Y49486D01*
X12257Y49373D01*
X12464Y49255D01*
X12508Y49238D01*
X12549Y49215D01*
X12772Y49133D01*
X12993Y49045D01*
X13039Y49034D01*
X13084Y49017D01*
X13316Y48967D01*
X13547Y48911D01*
X13594Y48906D01*
X13640Y48896D01*
X13877Y48879D01*
X14114Y48856D01*
X14162Y48858D01*
X14209Y48854D01*
X14446Y48870D01*
X14684Y48880D01*
X14730Y48889D01*
X14777Y48892D01*
X15010Y48941D01*
X15244Y48984D01*
X15288Y48999D01*
X15335Y49009D01*
X15437Y49049D01*
X15784Y49165D01*
X15966Y49257D01*
X16069Y49297D01*
X21091Y51856D01*
X31750Y53544D01*
X42409Y51856D01*
X52025Y46956D01*
X59656Y39325D01*
X64556Y29709D01*
X66244Y19050D01*
X64556Y8391D01*
X61997Y3369D01*
X61979Y3325D01*
X61955Y3284D01*
X61867Y3062D01*
X61775Y2844D01*
X61762Y2799D01*
X61745Y2755D01*
X61689Y2523D01*
X61628Y2294D01*
X61622Y2247D01*
X61611Y2201D01*
X61588Y1964D01*
X61559Y1728D01*
X61560Y1681D01*
X61556Y1634D01*
X61566Y1395D01*
X61571Y1158D01*
X61578Y1112D01*
X61580Y1064D01*
X61624Y831D01*
X61662Y596D01*
X61676Y550D01*
X61684Y504D01*
X61760Y279D01*
X61830Y52D01*
X61850Y9D01*
X61865Y-36D01*
X61972Y-249D01*
X62073Y-464D01*
X62099Y-503D01*
X62121Y-545D01*
X62256Y-742D01*
X62386Y-940D01*
X62418Y-975D01*
X62444Y-1014D01*
X62606Y-1189D01*
X62763Y-1368D01*
X62799Y-1398D01*
X62831Y-1433D01*
X63015Y-1584D01*
X63195Y-1739D01*
X63235Y-1764D01*
X63272Y-1794D01*
X63476Y-1918D01*
X63676Y-2045D01*
X63719Y-2065D01*
X63759Y-2089D01*
X63977Y-2183D01*
X64194Y-2282D01*
X64239Y-2295D01*
X64283Y-2314D01*
X64512Y-2376D01*
X64740Y-2444D01*
X64787Y-2450D01*
X64833Y-2463D01*
X64942Y-2473D01*
X65304Y-2527D01*
X65508Y-2529D01*
X65617Y-2539D01*
X658283Y-2539D01*
X658330Y-2536D01*
G37*
%LPC*%
G36*
X393700Y29463D02*
X393700Y29463D01*
X368300Y29463D01*
X342900Y29463D01*
X317500Y29463D01*
X292100Y29463D01*
X266700Y29463D01*
X241300Y29463D01*
X215900Y29463D01*
X190500Y29463D01*
X165100Y29463D01*
X139700Y29463D01*
X114300Y29463D01*
X88900Y29463D01*
X79567Y29463D01*
X80210Y30725D01*
X81150Y32019D01*
X82281Y33150D01*
X83575Y34090D01*
X84293Y34456D01*
X84498Y34580D01*
X84708Y34700D01*
X84743Y34727D01*
X84781Y34750D01*
X84968Y34901D01*
X85158Y35049D01*
X85189Y35081D01*
X85223Y35109D01*
X85387Y35285D01*
X85555Y35458D01*
X85581Y35494D01*
X85611Y35526D01*
X85749Y35724D01*
X85891Y35918D01*
X85912Y35957D01*
X85937Y35994D01*
X86046Y36209D01*
X86159Y36421D01*
X86174Y36463D01*
X86194Y36502D01*
X86271Y36730D01*
X86354Y36956D01*
X86363Y37000D01*
X86377Y37042D01*
X86422Y37278D01*
X86472Y37514D01*
X86475Y37558D01*
X86484Y37602D01*
X86495Y37842D01*
X86511Y38082D01*
X86508Y38126D01*
X86510Y38171D01*
X86488Y38410D01*
X86471Y38650D01*
X86461Y38694D01*
X86457Y38738D01*
X86401Y38972D01*
X86351Y39207D01*
X86336Y39249D01*
X86325Y39292D01*
X86237Y39517D01*
X86154Y39742D01*
X86133Y39781D01*
X86117Y39823D01*
X85999Y40032D01*
X85885Y40244D01*
X85859Y40280D01*
X85837Y40319D01*
X85690Y40510D01*
X85548Y40704D01*
X85517Y40735D01*
X85490Y40771D01*
X85317Y40940D01*
X85150Y41111D01*
X85115Y41139D01*
X85083Y41170D01*
X84889Y41313D01*
X84699Y41460D01*
X84667Y41477D01*
X84624Y41508D01*
X84347Y41658D01*
X84266Y41707D01*
X84218Y41727D01*
X84123Y41779D01*
X84049Y41806D01*
X84003Y41831D01*
X83144Y42186D01*
X80286Y45044D01*
X78739Y48779D01*
X78739Y52821D01*
X80286Y56556D01*
X83144Y59414D01*
X86879Y60961D01*
X89474Y60961D01*
X89534Y60965D01*
X89595Y60963D01*
X89818Y60985D01*
X90042Y61001D01*
X90102Y61013D01*
X90162Y61019D01*
X90380Y61073D01*
X90600Y61120D01*
X90656Y61140D01*
X90715Y61155D01*
X90924Y61238D01*
X91135Y61316D01*
X91188Y61344D01*
X91244Y61366D01*
X91439Y61478D01*
X91637Y61584D01*
X91686Y61620D01*
X91738Y61650D01*
X91829Y61725D01*
X92097Y61921D01*
X92258Y62078D01*
X92347Y62151D01*
X104727Y74531D01*
X104767Y74576D01*
X104811Y74617D01*
X104953Y74791D01*
X105101Y74961D01*
X105134Y75012D01*
X105172Y75058D01*
X105289Y75251D01*
X105411Y75439D01*
X105436Y75494D01*
X105467Y75546D01*
X105556Y75752D01*
X105651Y75956D01*
X105668Y76014D01*
X105692Y76069D01*
X105750Y76286D01*
X105816Y76501D01*
X105825Y76561D01*
X105841Y76619D01*
X105852Y76736D01*
X105903Y77064D01*
X105906Y77289D01*
X105917Y77404D01*
X105917Y81296D01*
X105901Y81525D01*
X105891Y81756D01*
X105881Y81810D01*
X105877Y81864D01*
X105829Y82090D01*
X105787Y82316D01*
X105770Y82368D01*
X105758Y82422D01*
X105679Y82638D01*
X105606Y82856D01*
X105581Y82905D01*
X105562Y82957D01*
X105454Y83160D01*
X105351Y83365D01*
X105320Y83411D01*
X105294Y83459D01*
X105158Y83645D01*
X105027Y83834D01*
X104990Y83875D01*
X104957Y83919D01*
X104797Y84084D01*
X104641Y84253D01*
X104598Y84288D01*
X104560Y84327D01*
X104378Y84468D01*
X104200Y84614D01*
X104152Y84642D01*
X104109Y84676D01*
X103909Y84790D01*
X103712Y84909D01*
X103662Y84931D01*
X103614Y84958D01*
X103400Y85043D01*
X103189Y85134D01*
X103136Y85148D01*
X103085Y85168D01*
X102860Y85223D01*
X102639Y85283D01*
X102595Y85287D01*
X102531Y85303D01*
X101964Y85358D01*
X101898Y85355D01*
X101854Y85359D01*
X90845Y85359D01*
X89911Y85746D01*
X89196Y86461D01*
X88809Y87395D01*
X88809Y103126D01*
X88838Y103192D01*
X88882Y103354D01*
X88935Y103512D01*
X88956Y103628D01*
X88987Y103742D01*
X88998Y103856D01*
X89038Y104073D01*
X89052Y104411D01*
X89063Y104527D01*
X89063Y105742D01*
X89059Y105802D01*
X89061Y105863D01*
X89039Y106086D01*
X89023Y106310D01*
X89011Y106370D01*
X89005Y106430D01*
X88951Y106648D01*
X88904Y106868D01*
X88884Y106924D01*
X88869Y106983D01*
X88786Y107192D01*
X88708Y107403D01*
X88680Y107456D01*
X88658Y107512D01*
X88546Y107707D01*
X88440Y107905D01*
X88404Y107954D01*
X88374Y108006D01*
X88299Y108097D01*
X88103Y108365D01*
X87946Y108526D01*
X87873Y108615D01*
X86933Y109556D01*
X84999Y114224D01*
X84999Y120003D01*
X84991Y120118D01*
X84993Y120233D01*
X84971Y120402D01*
X84959Y120572D01*
X84935Y120684D01*
X84921Y120799D01*
X84876Y120963D01*
X84840Y121129D01*
X84801Y121237D01*
X84770Y121348D01*
X84703Y121504D01*
X84644Y121664D01*
X84590Y121766D01*
X84544Y121871D01*
X84456Y122016D01*
X84376Y122166D01*
X84308Y122259D01*
X84248Y122358D01*
X84140Y122489D01*
X84039Y122626D01*
X83959Y122709D01*
X83886Y122798D01*
X83761Y122912D01*
X83642Y123034D01*
X83551Y123105D01*
X83466Y123183D01*
X83326Y123279D01*
X83191Y123383D01*
X83091Y123440D01*
X82996Y123505D01*
X82844Y123581D01*
X82696Y123665D01*
X82589Y123708D01*
X82486Y123759D01*
X82325Y123813D01*
X82167Y123876D01*
X82054Y123903D01*
X81945Y123939D01*
X81778Y123970D01*
X81613Y124010D01*
X81498Y124021D01*
X81385Y124042D01*
X81215Y124048D01*
X81046Y124065D01*
X80931Y124060D01*
X80815Y124065D01*
X80646Y124048D01*
X80476Y124040D01*
X80363Y124019D01*
X80249Y124008D01*
X80083Y123967D01*
X79916Y123936D01*
X79807Y123900D01*
X79695Y123872D01*
X79537Y123809D01*
X79376Y123755D01*
X79273Y123703D01*
X79166Y123661D01*
X79019Y123576D01*
X78867Y123500D01*
X78772Y123434D01*
X78672Y123377D01*
X78583Y123304D01*
X78398Y123176D01*
X78154Y122951D01*
X78063Y122876D01*
X64527Y109340D01*
X64487Y109295D01*
X64443Y109254D01*
X64301Y109080D01*
X64153Y108910D01*
X64120Y108859D01*
X64082Y108813D01*
X63965Y108620D01*
X63843Y108432D01*
X63818Y108377D01*
X63787Y108326D01*
X63698Y108119D01*
X63603Y107915D01*
X63586Y107857D01*
X63562Y107802D01*
X63503Y107585D01*
X63438Y107370D01*
X63429Y107310D01*
X63413Y107252D01*
X63402Y107135D01*
X63351Y106807D01*
X63348Y106582D01*
X63337Y106467D01*
X63337Y104527D01*
X63345Y104409D01*
X63344Y104291D01*
X63365Y104126D01*
X63377Y103958D01*
X63401Y103843D01*
X63416Y103726D01*
X63450Y103617D01*
X63496Y103401D01*
X63591Y103142D01*
X63591Y87395D01*
X63204Y86461D01*
X62489Y85746D01*
X61555Y85359D01*
X47845Y85359D01*
X46911Y85746D01*
X46196Y86461D01*
X45809Y87395D01*
X45809Y103126D01*
X45838Y103192D01*
X45882Y103354D01*
X45935Y103512D01*
X45956Y103628D01*
X45987Y103742D01*
X45998Y103856D01*
X46038Y104073D01*
X46052Y104411D01*
X46063Y104527D01*
X46063Y106467D01*
X46059Y106527D01*
X46061Y106588D01*
X46039Y106811D01*
X46023Y107035D01*
X46011Y107095D01*
X46005Y107155D01*
X45951Y107373D01*
X45904Y107593D01*
X45884Y107649D01*
X45869Y107708D01*
X45786Y107917D01*
X45708Y108128D01*
X45680Y108181D01*
X45658Y108237D01*
X45546Y108432D01*
X45440Y108630D01*
X45404Y108679D01*
X45374Y108731D01*
X45299Y108822D01*
X45103Y109090D01*
X44946Y109251D01*
X44873Y109340D01*
X43933Y110281D01*
X41999Y114949D01*
X41999Y120001D01*
X43933Y124669D01*
X54562Y135299D01*
X54602Y135344D01*
X54646Y135385D01*
X54788Y135559D01*
X54936Y135729D01*
X54969Y135780D01*
X55007Y135826D01*
X55124Y136019D01*
X55246Y136207D01*
X55271Y136262D01*
X55302Y136313D01*
X55391Y136520D01*
X55486Y136724D01*
X55503Y136782D01*
X55527Y136837D01*
X55585Y137054D01*
X55651Y137269D01*
X55660Y137329D01*
X55676Y137387D01*
X55687Y137504D01*
X55738Y137832D01*
X55741Y138057D01*
X55752Y138172D01*
X55752Y141986D01*
X57502Y146211D01*
X60736Y149444D01*
X64960Y151194D01*
X69953Y151194D01*
X70070Y151203D01*
X70188Y151201D01*
X70354Y151222D01*
X70521Y151234D01*
X70636Y151259D01*
X70753Y151274D01*
X70863Y151307D01*
X71078Y151353D01*
X71396Y151470D01*
X71508Y151504D01*
X73674Y152401D01*
X78726Y152401D01*
X80892Y151504D01*
X81004Y151466D01*
X81113Y151420D01*
X81274Y151376D01*
X81433Y151323D01*
X81549Y151302D01*
X81663Y151271D01*
X81776Y151260D01*
X81993Y151220D01*
X82331Y151206D01*
X82447Y151194D01*
X87440Y151194D01*
X91664Y149444D01*
X94898Y146211D01*
X96660Y141956D01*
X96662Y141802D01*
X96680Y141691D01*
X96688Y141578D01*
X96724Y141409D01*
X96750Y141239D01*
X96783Y141131D01*
X96807Y141021D01*
X96866Y140859D01*
X96916Y140694D01*
X96964Y140592D01*
X97003Y140486D01*
X97084Y140334D01*
X97157Y140177D01*
X97218Y140083D01*
X97271Y139984D01*
X97373Y139844D01*
X97467Y139699D01*
X97541Y139614D01*
X97608Y139524D01*
X97728Y139400D01*
X97842Y139270D01*
X97927Y139196D01*
X98005Y139115D01*
X98142Y139010D01*
X98272Y138897D01*
X98367Y138835D01*
X98456Y138767D01*
X98606Y138681D01*
X98751Y138587D01*
X98853Y138540D01*
X98951Y138484D01*
X99112Y138421D01*
X99268Y138348D01*
X99376Y138316D01*
X99480Y138274D01*
X99648Y138234D01*
X99814Y138184D01*
X99925Y138167D01*
X100034Y138140D01*
X100206Y138123D01*
X100377Y138097D01*
X100489Y138096D01*
X100601Y138085D01*
X100774Y138092D01*
X100947Y138090D01*
X101058Y138105D01*
X101171Y138110D01*
X101341Y138141D01*
X101512Y138163D01*
X101593Y138188D01*
X101731Y138214D01*
X102254Y138389D01*
X102266Y138393D01*
X102271Y138395D01*
X105424Y139701D01*
X111492Y139701D01*
X113507Y138866D01*
X113671Y138812D01*
X113831Y138748D01*
X113941Y138721D01*
X114047Y138686D01*
X114217Y138654D01*
X114385Y138614D01*
X114497Y138603D01*
X114608Y138582D01*
X114780Y138575D01*
X114952Y138558D01*
X115065Y138563D01*
X115177Y138559D01*
X115349Y138575D01*
X115522Y138583D01*
X115632Y138603D01*
X115744Y138615D01*
X115912Y138655D01*
X116082Y138687D01*
X116188Y138723D01*
X116298Y138749D01*
X116458Y138813D01*
X116622Y138868D01*
X116723Y138919D01*
X116827Y138960D01*
X116977Y139046D01*
X117131Y139123D01*
X117224Y139187D01*
X117322Y139243D01*
X117458Y139349D01*
X117600Y139447D01*
X117683Y139524D01*
X117772Y139592D01*
X117892Y139716D01*
X118019Y139833D01*
X118090Y139921D01*
X118169Y140001D01*
X118270Y140141D01*
X118380Y140275D01*
X118438Y140371D01*
X118505Y140462D01*
X118586Y140614D01*
X118675Y140762D01*
X118720Y140865D01*
X118773Y140964D01*
X118832Y141127D01*
X118900Y141285D01*
X118929Y141394D01*
X118968Y141500D01*
X119004Y141669D01*
X119049Y141835D01*
X119057Y141920D01*
X119086Y142057D01*
X119124Y142607D01*
X119125Y142620D01*
X119125Y176626D01*
X119976Y178680D01*
X133359Y192063D01*
X135413Y192914D01*
X186944Y192914D01*
X187173Y192930D01*
X187404Y192940D01*
X187458Y192950D01*
X187512Y192954D01*
X187738Y193002D01*
X187964Y193044D01*
X188016Y193061D01*
X188070Y193073D01*
X188286Y193152D01*
X188504Y193225D01*
X188553Y193250D01*
X188605Y193269D01*
X188808Y193377D01*
X189013Y193480D01*
X189059Y193511D01*
X189107Y193537D01*
X189293Y193673D01*
X189482Y193804D01*
X189523Y193841D01*
X189567Y193874D01*
X189732Y194034D01*
X189901Y194190D01*
X189936Y194233D01*
X189975Y194271D01*
X190116Y194453D01*
X190262Y194631D01*
X190290Y194679D01*
X190324Y194722D01*
X190438Y194922D01*
X190557Y195119D01*
X190579Y195169D01*
X190606Y195217D01*
X190691Y195431D01*
X190782Y195642D01*
X190796Y195695D01*
X190816Y195746D01*
X190871Y195971D01*
X190931Y196192D01*
X190935Y196236D01*
X190951Y196300D01*
X191006Y196867D01*
X191003Y196933D01*
X191007Y196977D01*
X191007Y216024D01*
X191394Y216958D01*
X192350Y217914D01*
X192462Y217991D01*
X192711Y218221D01*
X192801Y218295D01*
X194256Y219749D01*
X227403Y252896D01*
X229457Y253747D01*
X302356Y253747D01*
X304410Y252896D01*
X306553Y250752D01*
X320883Y236423D01*
X320970Y236347D01*
X321050Y236265D01*
X321185Y236161D01*
X321313Y236049D01*
X321410Y235986D01*
X321501Y235916D01*
X321649Y235832D01*
X321791Y235739D01*
X321896Y235691D01*
X321996Y235634D01*
X322154Y235571D01*
X322308Y235499D01*
X322418Y235466D01*
X322525Y235424D01*
X322691Y235383D01*
X322853Y235334D01*
X322967Y235317D01*
X323079Y235289D01*
X323249Y235273D01*
X323416Y235247D01*
X323531Y235245D01*
X323646Y235234D01*
X323816Y235242D01*
X323986Y235239D01*
X324100Y235254D01*
X324216Y235259D01*
X324383Y235290D01*
X324551Y235311D01*
X324663Y235342D01*
X324776Y235363D01*
X324937Y235417D01*
X325101Y235462D01*
X325207Y235507D01*
X325316Y235544D01*
X325468Y235620D01*
X325624Y235688D01*
X325722Y235748D01*
X325825Y235799D01*
X325965Y235896D01*
X326110Y235984D01*
X326199Y236058D01*
X326294Y236123D01*
X326419Y236238D01*
X326551Y236346D01*
X326628Y236431D01*
X326713Y236509D01*
X326821Y236641D01*
X326936Y236766D01*
X327001Y236861D01*
X327074Y236950D01*
X327162Y237096D01*
X327258Y237236D01*
X327310Y237339D01*
X327369Y237438D01*
X327436Y237594D01*
X327512Y237746D01*
X327548Y237856D01*
X327594Y237961D01*
X327638Y238125D01*
X327692Y238287D01*
X327713Y238400D01*
X327743Y238511D01*
X327754Y238626D01*
X327794Y238847D01*
X327808Y239179D01*
X327819Y239296D01*
X327819Y243345D01*
X329728Y247954D01*
X332452Y250677D01*
X332603Y250851D01*
X332758Y251020D01*
X332789Y251066D01*
X332825Y251107D01*
X332950Y251300D01*
X333081Y251490D01*
X333105Y251539D01*
X333135Y251585D01*
X333232Y251794D01*
X333334Y252000D01*
X333352Y252052D01*
X333375Y252102D01*
X333442Y252323D01*
X333514Y252541D01*
X333524Y252595D01*
X333540Y252647D01*
X333575Y252875D01*
X333617Y253101D01*
X333619Y253156D01*
X333627Y253210D01*
X333631Y253440D01*
X333640Y253671D01*
X333634Y253725D01*
X333635Y253780D01*
X333606Y254009D01*
X333583Y254238D01*
X333570Y254291D01*
X333563Y254345D01*
X333502Y254568D01*
X333448Y254791D01*
X333427Y254842D01*
X333413Y254895D01*
X333321Y255107D01*
X333236Y255320D01*
X333209Y255368D01*
X333187Y255418D01*
X333067Y255615D01*
X332952Y255814D01*
X332924Y255849D01*
X332890Y255904D01*
X332528Y256345D01*
X332480Y256389D01*
X332452Y256423D01*
X329728Y259146D01*
X327819Y263755D01*
X327819Y268745D01*
X328669Y270797D01*
X328724Y270960D01*
X328788Y271121D01*
X328814Y271231D01*
X328850Y271337D01*
X328881Y271506D01*
X328922Y271675D01*
X328933Y271787D01*
X328953Y271897D01*
X328960Y272069D01*
X328977Y272242D01*
X328972Y272354D01*
X328977Y272467D01*
X328960Y272638D01*
X328953Y272811D01*
X328932Y272922D01*
X328921Y273034D01*
X328880Y273202D01*
X328849Y273371D01*
X328813Y273478D01*
X328786Y273587D01*
X328722Y273748D01*
X328667Y273911D01*
X328617Y274012D01*
X328575Y274117D01*
X328490Y274266D01*
X328412Y274421D01*
X328348Y274514D01*
X328292Y274611D01*
X328187Y274748D01*
X328088Y274890D01*
X328012Y274973D01*
X327943Y275061D01*
X327819Y275181D01*
X327702Y275309D01*
X327615Y275380D01*
X327534Y275458D01*
X327395Y275560D01*
X327261Y275669D01*
X327165Y275728D01*
X327074Y275794D01*
X326921Y275875D01*
X326774Y275965D01*
X326670Y276009D01*
X326571Y276062D01*
X326409Y276121D01*
X326250Y276189D01*
X326141Y276219D01*
X326036Y276257D01*
X325867Y276293D01*
X325700Y276338D01*
X325615Y276347D01*
X325478Y276376D01*
X324928Y276414D01*
X324915Y276415D01*
X296683Y276415D01*
X296622Y276411D01*
X296562Y276413D01*
X296339Y276391D01*
X296114Y276375D01*
X296055Y276362D01*
X295995Y276356D01*
X295777Y276303D01*
X295557Y276256D01*
X295500Y276235D01*
X295442Y276221D01*
X295233Y276137D01*
X295022Y276060D01*
X294969Y276031D01*
X294913Y276009D01*
X294718Y275897D01*
X294519Y275791D01*
X294471Y275756D01*
X294418Y275725D01*
X294327Y275651D01*
X294060Y275455D01*
X293898Y275298D01*
X293809Y275225D01*
X286759Y268174D01*
X286758Y268173D01*
X284901Y266316D01*
X283220Y265620D01*
X174727Y265620D01*
X174622Y265612D01*
X174516Y265614D01*
X174487Y265611D01*
X173037Y265620D01*
X173022Y265619D01*
X173012Y265620D01*
X171956Y265620D01*
X171817Y265646D01*
X171579Y265697D01*
X171537Y265700D01*
X171496Y265708D01*
X171253Y265719D01*
X171011Y265736D01*
X170968Y265733D01*
X170926Y265735D01*
X170685Y265713D01*
X170442Y265695D01*
X170401Y265686D01*
X170359Y265683D01*
X170123Y265627D01*
X169885Y265575D01*
X169846Y265561D01*
X169805Y265551D01*
X169578Y265463D01*
X169350Y265379D01*
X169313Y265359D01*
X169274Y265344D01*
X169062Y265224D01*
X168848Y265109D01*
X168814Y265085D01*
X168778Y265064D01*
X168585Y264916D01*
X168389Y264772D01*
X168359Y264743D01*
X168325Y264717D01*
X168155Y264544D01*
X167981Y264374D01*
X167955Y264341D01*
X167926Y264311D01*
X167781Y264115D01*
X167633Y263923D01*
X167617Y263893D01*
X167587Y263853D01*
X167316Y263352D01*
X167288Y263275D01*
X167262Y263228D01*
X165571Y259146D01*
X162848Y256423D01*
X162698Y256250D01*
X162542Y256080D01*
X162511Y256034D01*
X162475Y255993D01*
X162349Y255800D01*
X162219Y255610D01*
X162195Y255561D01*
X162165Y255515D01*
X162068Y255306D01*
X161966Y255100D01*
X161948Y255048D01*
X161925Y254998D01*
X161858Y254778D01*
X161786Y254559D01*
X161776Y254505D01*
X161760Y254453D01*
X161725Y254226D01*
X161683Y253999D01*
X161681Y253944D01*
X161673Y253890D01*
X161669Y253660D01*
X161660Y253429D01*
X161666Y253375D01*
X161665Y253320D01*
X161694Y253092D01*
X161717Y252863D01*
X161730Y252809D01*
X161737Y252755D01*
X161798Y252532D01*
X161852Y252309D01*
X161873Y252258D01*
X161887Y252205D01*
X161978Y251994D01*
X162064Y251780D01*
X162092Y251732D01*
X162113Y251682D01*
X162233Y251486D01*
X162348Y251286D01*
X162376Y251252D01*
X162410Y251196D01*
X162772Y250755D01*
X162820Y250711D01*
X162848Y250677D01*
X165572Y247954D01*
X165626Y247823D01*
X165626Y247822D01*
X167309Y243759D01*
X167481Y243345D01*
X167481Y238355D01*
X165572Y233746D01*
X162044Y230218D01*
X157435Y228309D01*
X152445Y228309D01*
X147836Y230218D01*
X144308Y233746D01*
X143918Y234689D01*
X142399Y238355D01*
X142399Y243345D01*
X144308Y247954D01*
X147032Y250677D01*
X147183Y250851D01*
X147338Y251020D01*
X147369Y251066D01*
X147405Y251107D01*
X147530Y251300D01*
X147661Y251490D01*
X147685Y251539D01*
X147715Y251585D01*
X147812Y251794D01*
X147914Y252000D01*
X147932Y252052D01*
X147955Y252102D01*
X148022Y252323D01*
X148094Y252541D01*
X148104Y252595D01*
X148120Y252647D01*
X148155Y252875D01*
X148197Y253101D01*
X148199Y253156D01*
X148207Y253210D01*
X148211Y253440D01*
X148220Y253671D01*
X148214Y253725D01*
X148215Y253780D01*
X148186Y254009D01*
X148163Y254238D01*
X148150Y254291D01*
X148143Y254345D01*
X148082Y254568D01*
X148028Y254791D01*
X148007Y254842D01*
X147993Y254895D01*
X147901Y255107D01*
X147816Y255320D01*
X147789Y255368D01*
X147767Y255418D01*
X147647Y255615D01*
X147532Y255814D01*
X147504Y255849D01*
X147470Y255904D01*
X147108Y256345D01*
X147060Y256389D01*
X147032Y256423D01*
X144308Y259146D01*
X142399Y263755D01*
X142399Y268745D01*
X144308Y273354D01*
X147836Y276881D01*
X150891Y278147D01*
X150931Y278167D01*
X150966Y278180D01*
X151054Y278227D01*
X151181Y278281D01*
X151289Y278345D01*
X151401Y278401D01*
X151532Y278492D01*
X151670Y278575D01*
X151767Y278653D01*
X151870Y278724D01*
X151988Y278833D01*
X152112Y278934D01*
X152197Y279025D01*
X152289Y279110D01*
X152391Y279234D01*
X152500Y279351D01*
X152571Y279454D01*
X152651Y279551D01*
X152734Y279688D01*
X152825Y279819D01*
X152882Y279930D01*
X152947Y280037D01*
X153010Y280185D01*
X153082Y280327D01*
X153122Y280446D01*
X153172Y280561D01*
X153214Y280715D01*
X153265Y280867D01*
X153289Y280990D01*
X153322Y281111D01*
X153342Y281269D01*
X153371Y281427D01*
X153377Y281552D01*
X153393Y281676D01*
X153391Y281836D01*
X153398Y281996D01*
X153386Y282120D01*
X153384Y282246D01*
X153360Y282404D01*
X153345Y282563D01*
X153316Y282685D01*
X153296Y282809D01*
X153250Y282962D01*
X153213Y283118D01*
X153167Y283234D01*
X153130Y283354D01*
X153063Y283499D01*
X153004Y283648D01*
X152943Y283757D01*
X152890Y283870D01*
X152803Y284005D01*
X152724Y284144D01*
X152665Y284216D01*
X152579Y284348D01*
X152264Y284710D01*
X152227Y284756D01*
X151937Y285049D01*
X151882Y285097D01*
X151833Y285151D01*
X151668Y285286D01*
X151509Y285426D01*
X151448Y285466D01*
X151392Y285512D01*
X151210Y285622D01*
X151033Y285738D01*
X150967Y285770D01*
X150905Y285807D01*
X150710Y285891D01*
X150518Y285981D01*
X150448Y286003D01*
X150381Y286032D01*
X150176Y286087D01*
X149973Y286150D01*
X149901Y286162D01*
X149831Y286181D01*
X149710Y286193D01*
X149411Y286241D01*
X149165Y286246D01*
X149046Y286257D01*
X119765Y286257D01*
X119520Y286240D01*
X119274Y286228D01*
X119236Y286220D01*
X119196Y286217D01*
X118956Y286166D01*
X118715Y286119D01*
X118677Y286106D01*
X118639Y286098D01*
X118408Y286014D01*
X118176Y285934D01*
X118141Y285916D01*
X118104Y285902D01*
X117886Y285786D01*
X117668Y285675D01*
X117643Y285656D01*
X117602Y285634D01*
X117142Y285297D01*
X117081Y285238D01*
X117036Y285204D01*
X106072Y275265D01*
X105987Y275177D01*
X105928Y275128D01*
X105351Y274552D01*
X104584Y274277D01*
X104472Y274228D01*
X104398Y274205D01*
X103645Y273893D01*
X102831Y273933D01*
X102709Y273931D01*
X102632Y273938D01*
X92054Y273938D01*
X90374Y274634D01*
X88516Y276492D01*
X81293Y283715D01*
X81291Y283717D01*
X81289Y283719D01*
X81083Y283898D01*
X80863Y284089D01*
X80860Y284091D01*
X80858Y284092D01*
X80620Y284246D01*
X80384Y284399D01*
X80382Y284400D01*
X80380Y284401D01*
X80123Y284520D01*
X79868Y284639D01*
X79865Y284639D01*
X79863Y284641D01*
X79589Y284723D01*
X79322Y284804D01*
X79320Y284804D01*
X79317Y284805D01*
X79028Y284850D01*
X78759Y284891D01*
X78757Y284891D01*
X78754Y284892D01*
X78466Y284895D01*
X78190Y284899D01*
X78187Y284899D01*
X78184Y284899D01*
X77913Y284864D01*
X77624Y284827D01*
X77622Y284826D01*
X77619Y284826D01*
X77607Y284822D01*
X77075Y284676D01*
X76946Y284621D01*
X76865Y284596D01*
X74743Y283717D01*
X71307Y283717D01*
X68133Y285032D01*
X65703Y287462D01*
X65683Y287511D01*
X65682Y287512D01*
X64388Y290636D01*
X64388Y306264D01*
X65703Y309438D01*
X68133Y311868D01*
X71307Y313183D01*
X74743Y313183D01*
X77917Y311868D01*
X80347Y309438D01*
X81662Y306264D01*
X81662Y297963D01*
X81666Y297903D01*
X81664Y297843D01*
X81686Y297619D01*
X81702Y297395D01*
X81714Y297336D01*
X81720Y297276D01*
X81774Y297057D01*
X81821Y296838D01*
X81841Y296781D01*
X81856Y296722D01*
X81939Y296513D01*
X82017Y296302D01*
X82045Y296249D01*
X82067Y296193D01*
X82179Y295998D01*
X82285Y295800D01*
X82321Y295751D01*
X82351Y295699D01*
X82426Y295608D01*
X82622Y295340D01*
X82779Y295179D01*
X82852Y295090D01*
X82939Y295014D01*
X83019Y294932D01*
X83027Y294926D01*
X83154Y294828D01*
X83282Y294716D01*
X83379Y294654D01*
X83470Y294583D01*
X83618Y294499D01*
X83760Y294406D01*
X83865Y294358D01*
X83965Y294301D01*
X84123Y294238D01*
X84277Y294167D01*
X84387Y294133D01*
X84494Y294091D01*
X84660Y294051D01*
X84822Y294001D01*
X84936Y293984D01*
X85048Y293957D01*
X85218Y293940D01*
X85385Y293914D01*
X85500Y293912D01*
X85615Y293901D01*
X85785Y293909D01*
X85955Y293906D01*
X86069Y293921D01*
X86185Y293926D01*
X86352Y293957D01*
X86520Y293978D01*
X86632Y294009D01*
X86745Y294030D01*
X86906Y294084D01*
X87070Y294129D01*
X87176Y294175D01*
X87285Y294211D01*
X87437Y294287D01*
X87593Y294355D01*
X87691Y294415D01*
X87794Y294466D01*
X87934Y294563D01*
X88079Y294651D01*
X88168Y294725D01*
X88263Y294790D01*
X88388Y294906D01*
X88520Y295013D01*
X88597Y295098D01*
X88682Y295176D01*
X88790Y295308D01*
X88905Y295433D01*
X88970Y295528D01*
X89043Y295617D01*
X89131Y295763D01*
X89227Y295903D01*
X89279Y296006D01*
X89338Y296105D01*
X89405Y296261D01*
X89481Y296413D01*
X89517Y296523D01*
X89563Y296628D01*
X89607Y296792D01*
X89661Y296954D01*
X89682Y297067D01*
X89712Y297178D01*
X89723Y297293D01*
X89763Y297514D01*
X89777Y297846D01*
X89788Y297963D01*
X89788Y306264D01*
X91103Y309438D01*
X93533Y311868D01*
X96707Y313183D01*
X100143Y313183D01*
X103317Y311868D01*
X105747Y309438D01*
X107365Y305531D01*
X107367Y305529D01*
X107367Y305526D01*
X107494Y305274D01*
X107620Y305021D01*
X107621Y305019D01*
X107622Y305017D01*
X107793Y304769D01*
X107943Y304552D01*
X107945Y304550D01*
X107946Y304548D01*
X108146Y304332D01*
X108329Y304133D01*
X108331Y304131D01*
X108333Y304129D01*
X108555Y303947D01*
X108769Y303771D01*
X108771Y303770D01*
X108774Y303768D01*
X109012Y303624D01*
X109256Y303475D01*
X109259Y303474D01*
X109261Y303473D01*
X109511Y303366D01*
X109779Y303250D01*
X109782Y303249D01*
X109785Y303248D01*
X110049Y303176D01*
X110329Y303100D01*
X110332Y303100D01*
X110335Y303099D01*
X110347Y303098D01*
X110895Y303029D01*
X111034Y303031D01*
X111119Y303023D01*
X156485Y303023D01*
X158165Y302327D01*
X176916Y283575D01*
X176962Y283536D01*
X177003Y283491D01*
X177177Y283349D01*
X177347Y283202D01*
X177397Y283169D01*
X177444Y283131D01*
X177636Y283014D01*
X177825Y282892D01*
X177880Y282866D01*
X177931Y282835D01*
X178138Y282747D01*
X178342Y282652D01*
X178400Y282634D01*
X178455Y282611D01*
X178672Y282552D01*
X178887Y282487D01*
X178947Y282478D01*
X179005Y282462D01*
X179122Y282450D01*
X179450Y282399D01*
X179675Y282396D01*
X179790Y282385D01*
X272623Y282385D01*
X272683Y282389D01*
X272743Y282387D01*
X272967Y282409D01*
X273191Y282425D01*
X273250Y282438D01*
X273310Y282444D01*
X273529Y282497D01*
X273748Y282544D01*
X273805Y282565D01*
X273864Y282579D01*
X274073Y282663D01*
X274284Y282740D01*
X274337Y282769D01*
X274393Y282791D01*
X274588Y282903D01*
X274786Y283009D01*
X274835Y283044D01*
X274887Y283075D01*
X274978Y283149D01*
X275246Y283345D01*
X275407Y283502D01*
X275496Y283575D01*
X276006Y284085D01*
X276082Y284172D01*
X276164Y284253D01*
X276268Y284387D01*
X276380Y284516D01*
X276442Y284612D01*
X276513Y284703D01*
X276597Y284851D01*
X276690Y284994D01*
X276738Y285098D01*
X276795Y285198D01*
X276858Y285357D01*
X276929Y285511D01*
X276963Y285621D01*
X277005Y285728D01*
X277045Y285893D01*
X277095Y286056D01*
X277112Y286170D01*
X277139Y286282D01*
X277156Y286451D01*
X277182Y286619D01*
X277184Y286734D01*
X277195Y286849D01*
X277187Y287019D01*
X277190Y287189D01*
X277175Y287303D01*
X277170Y287418D01*
X277139Y287585D01*
X277118Y287754D01*
X277087Y287865D01*
X277066Y287978D01*
X277012Y288139D01*
X276967Y288303D01*
X276921Y288409D01*
X276885Y288518D01*
X276809Y288671D01*
X276741Y288827D01*
X276681Y288925D01*
X276630Y289028D01*
X276533Y289168D01*
X276445Y289313D01*
X276371Y289402D01*
X276306Y289497D01*
X276190Y289622D01*
X276083Y289753D01*
X275998Y289831D01*
X275920Y289916D01*
X275788Y290023D01*
X275663Y290138D01*
X275568Y290203D01*
X275479Y290276D01*
X275333Y290365D01*
X275193Y290461D01*
X275090Y290512D01*
X274991Y290572D01*
X274835Y290639D01*
X274683Y290715D01*
X274573Y290751D01*
X274468Y290796D01*
X274304Y290841D01*
X274142Y290894D01*
X274029Y290915D01*
X273918Y290945D01*
X273803Y290956D01*
X273582Y290997D01*
X273250Y291010D01*
X273133Y291022D01*
X258695Y291022D01*
X257761Y291409D01*
X256873Y292296D01*
X256699Y292447D01*
X256530Y292603D01*
X256484Y292634D01*
X256443Y292670D01*
X256250Y292795D01*
X256060Y292925D01*
X256011Y292950D01*
X255965Y292980D01*
X255756Y293077D01*
X255550Y293179D01*
X255498Y293196D01*
X255448Y293220D01*
X255227Y293286D01*
X255009Y293359D01*
X254955Y293369D01*
X254903Y293385D01*
X254675Y293420D01*
X254449Y293461D01*
X254394Y293464D01*
X254340Y293472D01*
X254110Y293475D01*
X253879Y293485D01*
X253825Y293479D01*
X253770Y293480D01*
X253542Y293451D01*
X253313Y293428D01*
X253259Y293415D01*
X253205Y293408D01*
X252983Y293347D01*
X252759Y293292D01*
X252708Y293272D01*
X252655Y293257D01*
X252444Y293166D01*
X252230Y293081D01*
X252182Y293053D01*
X252132Y293031D01*
X251936Y292912D01*
X251736Y292797D01*
X251701Y292769D01*
X251646Y292735D01*
X251206Y292373D01*
X251161Y292325D01*
X251127Y292296D01*
X250239Y291409D01*
X249305Y291022D01*
X233295Y291022D01*
X232361Y291409D01*
X231473Y292296D01*
X231299Y292447D01*
X231130Y292603D01*
X231084Y292634D01*
X231043Y292670D01*
X230850Y292795D01*
X230660Y292925D01*
X230611Y292950D01*
X230565Y292980D01*
X230356Y293077D01*
X230150Y293179D01*
X230098Y293196D01*
X230048Y293220D01*
X229827Y293287D01*
X229609Y293359D01*
X229555Y293369D01*
X229503Y293385D01*
X229275Y293420D01*
X229049Y293461D01*
X228994Y293464D01*
X228940Y293472D01*
X228710Y293475D01*
X228479Y293485D01*
X228425Y293479D01*
X228370Y293480D01*
X228142Y293451D01*
X227912Y293428D01*
X227859Y293415D01*
X227805Y293408D01*
X227582Y293347D01*
X227359Y293292D01*
X227308Y293272D01*
X227255Y293257D01*
X227043Y293166D01*
X226830Y293081D01*
X226782Y293053D01*
X226732Y293031D01*
X226535Y292911D01*
X226336Y292797D01*
X226302Y292769D01*
X226246Y292735D01*
X225805Y292373D01*
X225761Y292325D01*
X225727Y292296D01*
X224839Y291409D01*
X223905Y291022D01*
X207895Y291022D01*
X206961Y291409D01*
X206073Y292296D01*
X205899Y292447D01*
X205730Y292603D01*
X205684Y292634D01*
X205643Y292670D01*
X205450Y292795D01*
X205260Y292925D01*
X205211Y292950D01*
X205165Y292980D01*
X204956Y293077D01*
X204750Y293179D01*
X204698Y293196D01*
X204648Y293220D01*
X204427Y293287D01*
X204209Y293359D01*
X204155Y293369D01*
X204103Y293385D01*
X203875Y293420D01*
X203649Y293461D01*
X203594Y293464D01*
X203540Y293472D01*
X203310Y293475D01*
X203079Y293485D01*
X203025Y293479D01*
X202970Y293480D01*
X202742Y293451D01*
X202512Y293428D01*
X202459Y293415D01*
X202405Y293408D01*
X202182Y293347D01*
X201959Y293292D01*
X201908Y293272D01*
X201855Y293257D01*
X201643Y293166D01*
X201430Y293081D01*
X201382Y293053D01*
X201332Y293031D01*
X201135Y292911D01*
X200936Y292797D01*
X200902Y292769D01*
X200846Y292735D01*
X200405Y292373D01*
X200361Y292325D01*
X200327Y292296D01*
X199439Y291409D01*
X198505Y291022D01*
X182495Y291022D01*
X181561Y291409D01*
X180846Y292123D01*
X180459Y293057D01*
X180459Y307068D01*
X180848Y308007D01*
X180868Y308065D01*
X180893Y308120D01*
X180958Y308335D01*
X181029Y308548D01*
X181040Y308607D01*
X181057Y308665D01*
X181092Y308888D01*
X181132Y309108D01*
X181135Y309169D01*
X181144Y309228D01*
X181147Y309453D01*
X181156Y309678D01*
X181150Y309738D01*
X181151Y309798D01*
X181122Y310021D01*
X181100Y310245D01*
X181086Y310303D01*
X181078Y310363D01*
X181044Y310476D01*
X180965Y310798D01*
X180882Y311007D01*
X180848Y311117D01*
X180459Y312057D01*
X180459Y326068D01*
X180896Y327121D01*
X180950Y327285D01*
X181014Y327445D01*
X181041Y327555D01*
X181076Y327661D01*
X181107Y327831D01*
X181148Y327999D01*
X181159Y328111D01*
X181179Y328222D01*
X181187Y328394D01*
X181203Y328566D01*
X181199Y328679D01*
X181203Y328791D01*
X181186Y328963D01*
X181179Y329136D01*
X181158Y329246D01*
X181147Y329358D01*
X181106Y329526D01*
X181075Y329696D01*
X181039Y329802D01*
X181012Y329912D01*
X180948Y330072D01*
X180893Y330236D01*
X180843Y330337D01*
X180801Y330441D01*
X180716Y330591D01*
X180638Y330745D01*
X180574Y330838D01*
X180519Y330936D01*
X180413Y331072D01*
X180314Y331214D01*
X180238Y331297D01*
X180169Y331386D01*
X180045Y331506D01*
X179928Y331633D01*
X179841Y331704D01*
X179760Y331783D01*
X179621Y331884D01*
X179487Y331994D01*
X179391Y332052D01*
X179300Y332118D01*
X179148Y332200D01*
X179000Y332289D01*
X178897Y332334D01*
X178797Y332387D01*
X178635Y332446D01*
X178476Y332514D01*
X178368Y332543D01*
X178262Y332582D01*
X178093Y332618D01*
X177926Y332663D01*
X177841Y332671D01*
X177705Y332700D01*
X177155Y332738D01*
X177142Y332739D01*
X175779Y332739D01*
X172044Y334286D01*
X169186Y337144D01*
X168854Y337946D01*
X168802Y338050D01*
X168760Y338157D01*
X168676Y338304D01*
X168600Y338456D01*
X168534Y338551D01*
X168477Y338651D01*
X168373Y338786D01*
X168276Y338925D01*
X168198Y339010D01*
X168128Y339101D01*
X168005Y339220D01*
X167891Y339345D01*
X167802Y339418D01*
X167719Y339498D01*
X167581Y339599D01*
X167450Y339706D01*
X167352Y339766D01*
X167258Y339834D01*
X167109Y339914D01*
X166963Y340002D01*
X166857Y340048D01*
X166756Y340102D01*
X166596Y340160D01*
X166440Y340227D01*
X166329Y340258D01*
X166220Y340297D01*
X166054Y340332D01*
X165890Y340377D01*
X165776Y340392D01*
X165663Y340416D01*
X165493Y340427D01*
X165325Y340449D01*
X165210Y340447D01*
X165094Y340455D01*
X164925Y340443D01*
X164755Y340440D01*
X164641Y340422D01*
X164526Y340414D01*
X164360Y340378D01*
X164192Y340352D01*
X164082Y340318D01*
X163969Y340294D01*
X163809Y340236D01*
X163647Y340186D01*
X163542Y340137D01*
X163434Y340098D01*
X163285Y340017D01*
X163130Y339945D01*
X163034Y339883D01*
X162932Y339828D01*
X162795Y339728D01*
X162653Y339635D01*
X162566Y339559D01*
X162473Y339491D01*
X162351Y339372D01*
X162223Y339261D01*
X162147Y339174D01*
X162065Y339093D01*
X161961Y338959D01*
X161850Y338830D01*
X161787Y338733D01*
X161717Y338642D01*
X161663Y338540D01*
X161541Y338352D01*
X161401Y338050D01*
X161346Y337946D01*
X161014Y337144D01*
X158156Y334286D01*
X155223Y333071D01*
X155118Y333019D01*
X155008Y332975D01*
X154863Y332892D01*
X154713Y332817D01*
X154616Y332750D01*
X154514Y332691D01*
X154425Y332619D01*
X154244Y332494D01*
X154168Y332424D01*
X150943Y331088D01*
X108039Y331088D01*
X107979Y331084D01*
X107919Y331086D01*
X107695Y331064D01*
X107471Y331048D01*
X107412Y331036D01*
X107352Y331030D01*
X107134Y330976D01*
X106914Y330929D01*
X106857Y330909D01*
X106799Y330894D01*
X106590Y330811D01*
X106379Y330733D01*
X106325Y330705D01*
X106269Y330683D01*
X106075Y330571D01*
X105876Y330465D01*
X105828Y330429D01*
X105775Y330399D01*
X105684Y330324D01*
X105614Y330273D01*
X104555Y329834D01*
X90845Y329834D01*
X89911Y330221D01*
X89196Y330936D01*
X88809Y331870D01*
X88809Y347580D01*
X89196Y348514D01*
X89911Y349229D01*
X90845Y349616D01*
X104555Y349616D01*
X105583Y349190D01*
X105596Y349178D01*
X105647Y349145D01*
X105694Y349107D01*
X105886Y348990D01*
X106075Y348868D01*
X106129Y348843D01*
X106181Y348812D01*
X106387Y348723D01*
X106591Y348628D01*
X106649Y348611D01*
X106705Y348587D01*
X106921Y348529D01*
X107137Y348463D01*
X107197Y348454D01*
X107255Y348438D01*
X107372Y348427D01*
X107700Y348376D01*
X107925Y348373D01*
X108039Y348362D01*
X141809Y348362D01*
X141869Y348366D01*
X141930Y348364D01*
X142153Y348386D01*
X142378Y348402D01*
X142437Y348414D01*
X142497Y348420D01*
X142715Y348474D01*
X142935Y348521D01*
X142991Y348541D01*
X143050Y348556D01*
X143259Y348639D01*
X143470Y348717D01*
X143523Y348745D01*
X143579Y348767D01*
X143774Y348879D01*
X143972Y348985D01*
X144021Y349021D01*
X144073Y349051D01*
X144164Y349126D01*
X144432Y349322D01*
X144593Y349479D01*
X144682Y349552D01*
X146644Y351514D01*
X147446Y351846D01*
X147498Y351872D01*
X147552Y351892D01*
X147753Y351999D01*
X147956Y352100D01*
X148004Y352133D01*
X148055Y352160D01*
X148238Y352295D01*
X148425Y352424D01*
X148468Y352463D01*
X148514Y352497D01*
X148677Y352655D01*
X148845Y352809D01*
X148881Y352854D01*
X148923Y352894D01*
X149062Y353074D01*
X149206Y353250D01*
X149236Y353299D01*
X149271Y353345D01*
X149384Y353543D01*
X149502Y353737D01*
X149525Y353790D01*
X149554Y353840D01*
X149638Y354052D01*
X149728Y354260D01*
X149743Y354316D01*
X149764Y354369D01*
X149818Y354591D01*
X149877Y354810D01*
X149884Y354867D01*
X149898Y354923D01*
X149920Y355150D01*
X149949Y355375D01*
X149948Y355433D01*
X149953Y355490D01*
X149943Y355718D01*
X149940Y355945D01*
X149931Y356002D01*
X149929Y356060D01*
X149887Y356283D01*
X149852Y356508D01*
X149835Y356563D01*
X149825Y356620D01*
X149753Y356835D01*
X149686Y357053D01*
X149662Y357105D01*
X149643Y357160D01*
X149541Y357364D01*
X149446Y357570D01*
X149414Y357618D01*
X149388Y357669D01*
X149259Y357857D01*
X149135Y358047D01*
X149097Y358091D01*
X149064Y358138D01*
X148910Y358305D01*
X148761Y358477D01*
X148717Y358515D01*
X148678Y358557D01*
X148502Y358701D01*
X148330Y358850D01*
X148282Y358881D01*
X148237Y358918D01*
X148043Y359036D01*
X147852Y359159D01*
X147799Y359184D01*
X147750Y359213D01*
X147542Y359303D01*
X147334Y359398D01*
X147279Y359415D01*
X147226Y359438D01*
X147007Y359497D01*
X146789Y359563D01*
X146732Y359572D01*
X146676Y359587D01*
X146560Y359598D01*
X146226Y359649D01*
X146005Y359652D01*
X145892Y359663D01*
X86223Y359663D01*
X86163Y359659D01*
X86102Y359661D01*
X85879Y359639D01*
X85655Y359623D01*
X85595Y359611D01*
X85536Y359605D01*
X85317Y359551D01*
X85097Y359504D01*
X85041Y359484D01*
X84982Y359469D01*
X84773Y359386D01*
X84562Y359308D01*
X84509Y359280D01*
X84453Y359258D01*
X84258Y359146D01*
X84060Y359040D01*
X84011Y359004D01*
X83959Y358974D01*
X83868Y358899D01*
X83600Y358703D01*
X83439Y358546D01*
X83350Y358473D01*
X64781Y339904D01*
X64741Y339859D01*
X64697Y339818D01*
X64555Y339644D01*
X64407Y339474D01*
X64374Y339423D01*
X64336Y339377D01*
X64219Y339184D01*
X64097Y338996D01*
X64072Y338941D01*
X64041Y338889D01*
X63952Y338683D01*
X63857Y338479D01*
X63840Y338421D01*
X63816Y338366D01*
X63758Y338149D01*
X63692Y337934D01*
X63683Y337874D01*
X63667Y337816D01*
X63656Y337699D01*
X63605Y337371D01*
X63602Y337146D01*
X63591Y337031D01*
X63591Y331870D01*
X63204Y330936D01*
X62489Y330221D01*
X61555Y329834D01*
X47845Y329834D01*
X46911Y330221D01*
X46196Y330936D01*
X45809Y331870D01*
X45809Y347580D01*
X46196Y348514D01*
X46911Y349229D01*
X47845Y349616D01*
X48381Y349616D01*
X48441Y349620D01*
X48502Y349618D01*
X48725Y349640D01*
X48949Y349656D01*
X49009Y349668D01*
X49068Y349674D01*
X49287Y349728D01*
X49507Y349775D01*
X49563Y349795D01*
X49622Y349810D01*
X49831Y349893D01*
X50042Y349971D01*
X50095Y349999D01*
X50151Y350021D01*
X50346Y350133D01*
X50544Y350239D01*
X50593Y350275D01*
X50645Y350305D01*
X50736Y350380D01*
X51004Y350576D01*
X51165Y350733D01*
X51254Y350806D01*
X76070Y375622D01*
X79244Y376937D01*
X163014Y376937D01*
X163075Y376941D01*
X163135Y376939D01*
X163358Y376961D01*
X163583Y376977D01*
X163642Y376989D01*
X163702Y376995D01*
X163920Y377049D01*
X164140Y377096D01*
X164197Y377116D01*
X164255Y377131D01*
X164464Y377214D01*
X164675Y377292D01*
X164728Y377320D01*
X164784Y377342D01*
X164979Y377454D01*
X165178Y377560D01*
X165226Y377596D01*
X165279Y377626D01*
X165370Y377701D01*
X165637Y377897D01*
X165799Y378054D01*
X165888Y378127D01*
X178309Y390548D01*
X178387Y390637D01*
X178471Y390720D01*
X178573Y390852D01*
X178683Y390978D01*
X178747Y391077D01*
X178819Y391171D01*
X178873Y391272D01*
X178993Y391457D01*
X179135Y391763D01*
X179190Y391866D01*
X180003Y393830D01*
X180379Y394206D01*
X180417Y394249D01*
X180459Y394288D01*
X180604Y394464D01*
X180753Y394636D01*
X180784Y394684D01*
X180820Y394729D01*
X180939Y394923D01*
X181062Y395114D01*
X181087Y395166D01*
X181117Y395215D01*
X181206Y395424D01*
X181302Y395631D01*
X181319Y395686D01*
X181342Y395739D01*
X181401Y395958D01*
X181467Y396176D01*
X181476Y396233D01*
X181491Y396289D01*
X181494Y396311D01*
X181630Y396344D01*
X181852Y396392D01*
X181906Y396411D01*
X181962Y396425D01*
X182174Y396510D01*
X182387Y396588D01*
X182438Y396615D01*
X182491Y396637D01*
X182689Y396750D01*
X182889Y396858D01*
X182935Y396892D01*
X182985Y396920D01*
X183076Y396994D01*
X183348Y397195D01*
X183506Y397349D01*
X183594Y397421D01*
X191341Y405168D01*
X191381Y405213D01*
X191425Y405254D01*
X191567Y405428D01*
X191715Y405598D01*
X191748Y405649D01*
X191786Y405695D01*
X191903Y405888D01*
X192025Y406076D01*
X192050Y406131D01*
X192081Y406183D01*
X192170Y406389D01*
X192265Y406593D01*
X192282Y406651D01*
X192306Y406706D01*
X192364Y406923D01*
X192430Y407138D01*
X192439Y407198D01*
X192455Y407256D01*
X192466Y407373D01*
X192517Y407701D01*
X192520Y407926D01*
X192531Y408041D01*
X192531Y408522D01*
X194156Y412443D01*
X197157Y415445D01*
X197583Y415621D01*
X197686Y415672D01*
X197793Y415715D01*
X197940Y415799D01*
X198092Y415875D01*
X198187Y415941D01*
X198287Y415998D01*
X198422Y416102D01*
X198562Y416199D01*
X198647Y416277D01*
X198738Y416347D01*
X198856Y416469D01*
X198981Y416584D01*
X199054Y416673D01*
X199134Y416756D01*
X199235Y416894D01*
X199342Y417025D01*
X199402Y417123D01*
X199470Y417216D01*
X199550Y417367D01*
X199639Y417512D01*
X199684Y417617D01*
X199738Y417719D01*
X199797Y417879D01*
X199864Y418035D01*
X199894Y418146D01*
X199933Y418255D01*
X199969Y418421D01*
X200013Y418585D01*
X200028Y418699D01*
X200052Y418812D01*
X200063Y418982D01*
X200085Y419150D01*
X200083Y419265D01*
X200091Y419380D01*
X200079Y419550D01*
X200076Y419720D01*
X200058Y419834D01*
X200050Y419949D01*
X200015Y420115D01*
X199988Y420283D01*
X199955Y420393D01*
X199930Y420506D01*
X199872Y420665D01*
X199822Y420828D01*
X199774Y420933D01*
X199734Y421041D01*
X199654Y421190D01*
X199582Y421344D01*
X199519Y421441D01*
X199464Y421543D01*
X199364Y421679D01*
X199271Y421822D01*
X199196Y421909D01*
X199127Y422002D01*
X199009Y422124D01*
X198897Y422252D01*
X198810Y422327D01*
X198729Y422410D01*
X198595Y422514D01*
X198466Y422625D01*
X198370Y422687D01*
X198278Y422758D01*
X198177Y422812D01*
X197988Y422934D01*
X197687Y423073D01*
X197583Y423129D01*
X197444Y423186D01*
X194586Y426044D01*
X193039Y429779D01*
X193039Y433821D01*
X194586Y437556D01*
X197444Y440414D01*
X201179Y441961D01*
X205221Y441961D01*
X208956Y440414D01*
X211814Y437556D01*
X212146Y436754D01*
X212198Y436650D01*
X212240Y436543D01*
X212324Y436396D01*
X212400Y436244D01*
X212466Y436149D01*
X212523Y436049D01*
X212627Y435914D01*
X212724Y435775D01*
X212802Y435690D01*
X212872Y435599D01*
X212995Y435480D01*
X213109Y435355D01*
X213198Y435282D01*
X213281Y435202D01*
X213419Y435101D01*
X213550Y434994D01*
X213648Y434934D01*
X213742Y434866D01*
X213891Y434786D01*
X214037Y434698D01*
X214143Y434652D01*
X214244Y434598D01*
X214404Y434540D01*
X214560Y434473D01*
X214671Y434442D01*
X214780Y434403D01*
X214946Y434368D01*
X215110Y434323D01*
X215224Y434308D01*
X215337Y434284D01*
X215507Y434273D01*
X215675Y434251D01*
X215790Y434253D01*
X215906Y434245D01*
X216075Y434257D01*
X216245Y434260D01*
X216359Y434278D01*
X216474Y434286D01*
X216640Y434322D01*
X216808Y434348D01*
X216918Y434382D01*
X217031Y434406D01*
X217191Y434464D01*
X217353Y434514D01*
X217458Y434563D01*
X217566Y434602D01*
X217715Y434683D01*
X217870Y434755D01*
X217966Y434817D01*
X218068Y434872D01*
X218205Y434972D01*
X218347Y435065D01*
X218434Y435141D01*
X218527Y435209D01*
X218649Y435328D01*
X218777Y435439D01*
X218853Y435526D01*
X218935Y435607D01*
X219039Y435741D01*
X219150Y435870D01*
X219213Y435967D01*
X219283Y436058D01*
X219337Y436160D01*
X219459Y436348D01*
X219599Y436650D01*
X219654Y436754D01*
X219986Y437556D01*
X222844Y440414D01*
X226579Y441961D01*
X230621Y441961D01*
X234356Y440414D01*
X237214Y437556D01*
X237546Y436754D01*
X237597Y436651D01*
X237640Y436543D01*
X237725Y436396D01*
X237800Y436244D01*
X237866Y436149D01*
X237923Y436049D01*
X238027Y435914D01*
X238124Y435775D01*
X238202Y435690D01*
X238272Y435599D01*
X238394Y435480D01*
X238509Y435355D01*
X238599Y435282D01*
X238681Y435202D01*
X238818Y435102D01*
X238950Y434994D01*
X239049Y434934D01*
X239141Y434866D01*
X239291Y434786D01*
X239437Y434698D01*
X239543Y434652D01*
X239644Y434598D01*
X239804Y434540D01*
X239960Y434473D01*
X240071Y434442D01*
X240180Y434403D01*
X240346Y434367D01*
X240510Y434323D01*
X240624Y434308D01*
X240737Y434284D01*
X240907Y434273D01*
X241075Y434251D01*
X241190Y434253D01*
X241305Y434245D01*
X241475Y434257D01*
X241645Y434260D01*
X241759Y434278D01*
X241874Y434286D01*
X242040Y434322D01*
X242208Y434348D01*
X242318Y434382D01*
X242431Y434406D01*
X242590Y434464D01*
X242753Y434514D01*
X242858Y434563D01*
X242966Y434602D01*
X243115Y434683D01*
X243269Y434754D01*
X243366Y434817D01*
X243468Y434872D01*
X243605Y434972D01*
X243747Y435065D01*
X243834Y435141D01*
X243927Y435209D01*
X244049Y435327D01*
X244177Y435439D01*
X244252Y435526D01*
X244335Y435607D01*
X244439Y435741D01*
X244550Y435870D01*
X244612Y435966D01*
X244683Y436058D01*
X244737Y436160D01*
X244859Y436348D01*
X244998Y436649D01*
X245054Y436754D01*
X245386Y437556D01*
X248244Y440414D01*
X251979Y441961D01*
X256021Y441961D01*
X259756Y440414D01*
X262614Y437556D01*
X262946Y436754D01*
X262998Y436650D01*
X263040Y436543D01*
X263124Y436396D01*
X263200Y436244D01*
X263266Y436149D01*
X263323Y436049D01*
X263427Y435914D01*
X263524Y435775D01*
X263602Y435690D01*
X263672Y435599D01*
X263795Y435480D01*
X263909Y435355D01*
X263998Y435282D01*
X264081Y435202D01*
X264219Y435101D01*
X264350Y434994D01*
X264448Y434934D01*
X264542Y434866D01*
X264691Y434786D01*
X264837Y434698D01*
X264943Y434652D01*
X265044Y434598D01*
X265204Y434540D01*
X265360Y434473D01*
X265471Y434442D01*
X265580Y434403D01*
X265746Y434368D01*
X265910Y434323D01*
X266024Y434308D01*
X266137Y434284D01*
X266307Y434273D01*
X266475Y434251D01*
X266590Y434253D01*
X266706Y434245D01*
X266875Y434257D01*
X267045Y434260D01*
X267159Y434278D01*
X267274Y434286D01*
X267440Y434322D01*
X267608Y434348D01*
X267718Y434382D01*
X267831Y434406D01*
X267991Y434464D01*
X268153Y434514D01*
X268258Y434563D01*
X268366Y434602D01*
X268515Y434683D01*
X268670Y434755D01*
X268766Y434817D01*
X268868Y434872D01*
X269005Y434972D01*
X269147Y435065D01*
X269234Y435141D01*
X269327Y435209D01*
X269449Y435328D01*
X269577Y435439D01*
X269653Y435526D01*
X269735Y435607D01*
X269839Y435741D01*
X269950Y435870D01*
X270013Y435967D01*
X270083Y436058D01*
X270137Y436160D01*
X270259Y436348D01*
X270399Y436650D01*
X270454Y436754D01*
X270786Y437556D01*
X273644Y440414D01*
X277379Y441961D01*
X281421Y441961D01*
X285156Y440414D01*
X288014Y437556D01*
X288346Y436754D01*
X288397Y436651D01*
X288440Y436543D01*
X288525Y436396D01*
X288600Y436244D01*
X288666Y436149D01*
X288723Y436049D01*
X288827Y435914D01*
X288924Y435775D01*
X289002Y435690D01*
X289072Y435599D01*
X289194Y435480D01*
X289309Y435355D01*
X289399Y435282D01*
X289481Y435202D01*
X289618Y435102D01*
X289750Y434994D01*
X289849Y434934D01*
X289941Y434866D01*
X290091Y434786D01*
X290237Y434698D01*
X290343Y434652D01*
X290444Y434598D01*
X290604Y434540D01*
X290760Y434473D01*
X290871Y434442D01*
X290980Y434403D01*
X291146Y434367D01*
X291310Y434323D01*
X291424Y434308D01*
X291537Y434284D01*
X291707Y434273D01*
X291875Y434251D01*
X291990Y434253D01*
X292105Y434245D01*
X292275Y434257D01*
X292445Y434260D01*
X292559Y434278D01*
X292674Y434286D01*
X292840Y434322D01*
X293008Y434348D01*
X293118Y434382D01*
X293231Y434406D01*
X293390Y434464D01*
X293553Y434514D01*
X293658Y434563D01*
X293766Y434602D01*
X293915Y434683D01*
X294069Y434754D01*
X294166Y434817D01*
X294268Y434872D01*
X294405Y434972D01*
X294547Y435065D01*
X294634Y435141D01*
X294727Y435209D01*
X294849Y435327D01*
X294977Y435439D01*
X295052Y435526D01*
X295135Y435607D01*
X295239Y435741D01*
X295350Y435870D01*
X295412Y435966D01*
X295483Y436058D01*
X295537Y436160D01*
X295659Y436348D01*
X295798Y436649D01*
X295854Y436754D01*
X296186Y437556D01*
X299044Y440414D01*
X302779Y441961D01*
X306821Y441961D01*
X310556Y440414D01*
X313414Y437556D01*
X313746Y436754D01*
X313798Y436650D01*
X313840Y436543D01*
X313924Y436396D01*
X314000Y436244D01*
X314066Y436149D01*
X314123Y436049D01*
X314227Y435914D01*
X314324Y435775D01*
X314402Y435690D01*
X314472Y435599D01*
X314595Y435480D01*
X314709Y435355D01*
X314798Y435282D01*
X314881Y435202D01*
X315019Y435101D01*
X315150Y434994D01*
X315248Y434934D01*
X315342Y434866D01*
X315491Y434786D01*
X315637Y434698D01*
X315743Y434652D01*
X315844Y434598D01*
X316004Y434540D01*
X316160Y434473D01*
X316271Y434442D01*
X316380Y434403D01*
X316546Y434368D01*
X316710Y434323D01*
X316824Y434308D01*
X316937Y434284D01*
X317107Y434273D01*
X317275Y434251D01*
X317390Y434253D01*
X317506Y434245D01*
X317675Y434257D01*
X317845Y434260D01*
X317959Y434278D01*
X318074Y434286D01*
X318240Y434322D01*
X318408Y434348D01*
X318518Y434382D01*
X318631Y434406D01*
X318791Y434464D01*
X318953Y434514D01*
X319058Y434563D01*
X319166Y434602D01*
X319315Y434683D01*
X319470Y434755D01*
X319566Y434817D01*
X319668Y434872D01*
X319805Y434972D01*
X319947Y435065D01*
X320034Y435141D01*
X320127Y435209D01*
X320249Y435328D01*
X320377Y435439D01*
X320453Y435526D01*
X320535Y435607D01*
X320639Y435741D01*
X320750Y435870D01*
X320813Y435967D01*
X320883Y436058D01*
X320937Y436160D01*
X321059Y436348D01*
X321199Y436650D01*
X321254Y436754D01*
X321586Y437556D01*
X324444Y440414D01*
X328179Y441961D01*
X332221Y441961D01*
X335956Y440414D01*
X338814Y437556D01*
X339146Y436754D01*
X339198Y436650D01*
X339240Y436543D01*
X339324Y436396D01*
X339400Y436244D01*
X339466Y436149D01*
X339523Y436049D01*
X339627Y435914D01*
X339724Y435775D01*
X339802Y435690D01*
X339872Y435599D01*
X339995Y435480D01*
X340109Y435355D01*
X340198Y435282D01*
X340281Y435202D01*
X340419Y435101D01*
X340550Y434994D01*
X340648Y434934D01*
X340742Y434866D01*
X340891Y434786D01*
X341037Y434698D01*
X341143Y434652D01*
X341244Y434598D01*
X341404Y434540D01*
X341560Y434473D01*
X341671Y434442D01*
X341780Y434403D01*
X341946Y434368D01*
X342110Y434323D01*
X342224Y434308D01*
X342337Y434284D01*
X342507Y434273D01*
X342675Y434251D01*
X342790Y434253D01*
X342906Y434245D01*
X343075Y434257D01*
X343245Y434260D01*
X343359Y434278D01*
X343474Y434286D01*
X343640Y434322D01*
X343808Y434348D01*
X343918Y434382D01*
X344031Y434406D01*
X344191Y434464D01*
X344353Y434514D01*
X344458Y434563D01*
X344566Y434602D01*
X344715Y434683D01*
X344870Y434755D01*
X344966Y434817D01*
X345068Y434872D01*
X345205Y434972D01*
X345347Y435065D01*
X345434Y435141D01*
X345527Y435209D01*
X345649Y435328D01*
X345777Y435439D01*
X345853Y435526D01*
X345935Y435607D01*
X346039Y435741D01*
X346150Y435870D01*
X346213Y435967D01*
X346283Y436058D01*
X346337Y436160D01*
X346459Y436348D01*
X346599Y436650D01*
X346654Y436754D01*
X346986Y437556D01*
X349844Y440414D01*
X353579Y441961D01*
X357621Y441961D01*
X361356Y440414D01*
X364214Y437556D01*
X364546Y436754D01*
X364597Y436651D01*
X364640Y436543D01*
X364725Y436396D01*
X364800Y436244D01*
X364866Y436149D01*
X364923Y436049D01*
X365027Y435914D01*
X365124Y435775D01*
X365202Y435690D01*
X365272Y435599D01*
X365394Y435480D01*
X365509Y435355D01*
X365599Y435282D01*
X365681Y435202D01*
X365818Y435102D01*
X365950Y434994D01*
X366049Y434934D01*
X366141Y434866D01*
X366291Y434786D01*
X366437Y434698D01*
X366543Y434652D01*
X366644Y434598D01*
X366804Y434540D01*
X366960Y434473D01*
X367071Y434442D01*
X367180Y434403D01*
X367346Y434367D01*
X367510Y434323D01*
X367624Y434308D01*
X367737Y434284D01*
X367907Y434273D01*
X368075Y434251D01*
X368190Y434253D01*
X368305Y434245D01*
X368475Y434257D01*
X368645Y434260D01*
X368759Y434278D01*
X368874Y434286D01*
X369040Y434322D01*
X369208Y434348D01*
X369318Y434382D01*
X369431Y434406D01*
X369590Y434464D01*
X369753Y434514D01*
X369858Y434563D01*
X369966Y434602D01*
X370115Y434683D01*
X370269Y434754D01*
X370366Y434817D01*
X370468Y434872D01*
X370605Y434972D01*
X370747Y435065D01*
X370834Y435141D01*
X370927Y435209D01*
X371049Y435327D01*
X371177Y435439D01*
X371252Y435526D01*
X371335Y435607D01*
X371439Y435741D01*
X371550Y435870D01*
X371612Y435966D01*
X371683Y436058D01*
X371737Y436160D01*
X371859Y436348D01*
X371998Y436649D01*
X372054Y436754D01*
X372386Y437556D01*
X375244Y440414D01*
X378979Y441961D01*
X383021Y441961D01*
X386756Y440414D01*
X389614Y437556D01*
X389946Y436754D01*
X389998Y436650D01*
X390040Y436543D01*
X390124Y436396D01*
X390200Y436244D01*
X390266Y436149D01*
X390323Y436049D01*
X390427Y435914D01*
X390524Y435775D01*
X390602Y435690D01*
X390672Y435599D01*
X390795Y435480D01*
X390909Y435355D01*
X390998Y435282D01*
X391081Y435202D01*
X391219Y435101D01*
X391350Y434994D01*
X391448Y434934D01*
X391542Y434866D01*
X391691Y434786D01*
X391837Y434698D01*
X391943Y434652D01*
X392044Y434598D01*
X392204Y434540D01*
X392360Y434473D01*
X392471Y434442D01*
X392580Y434403D01*
X392746Y434368D01*
X392910Y434323D01*
X393024Y434308D01*
X393137Y434284D01*
X393307Y434273D01*
X393475Y434251D01*
X393590Y434253D01*
X393706Y434245D01*
X393875Y434257D01*
X394045Y434260D01*
X394159Y434278D01*
X394274Y434286D01*
X394440Y434322D01*
X394608Y434348D01*
X394718Y434382D01*
X394831Y434406D01*
X394991Y434464D01*
X395153Y434514D01*
X395258Y434563D01*
X395366Y434602D01*
X395515Y434683D01*
X395670Y434755D01*
X395766Y434817D01*
X395868Y434872D01*
X396005Y434972D01*
X396147Y435065D01*
X396234Y435141D01*
X396327Y435209D01*
X396449Y435328D01*
X396577Y435439D01*
X396653Y435526D01*
X396735Y435607D01*
X396839Y435741D01*
X396950Y435870D01*
X397013Y435967D01*
X397083Y436058D01*
X397137Y436160D01*
X397259Y436348D01*
X397399Y436650D01*
X397454Y436754D01*
X397786Y437556D01*
X400644Y440414D01*
X404379Y441961D01*
X408421Y441961D01*
X412156Y440414D01*
X415014Y437556D01*
X415346Y436754D01*
X415397Y436651D01*
X415440Y436543D01*
X415525Y436396D01*
X415600Y436244D01*
X415666Y436149D01*
X415723Y436049D01*
X415827Y435914D01*
X415924Y435775D01*
X416002Y435690D01*
X416072Y435599D01*
X416194Y435480D01*
X416309Y435355D01*
X416399Y435282D01*
X416481Y435202D01*
X416618Y435102D01*
X416750Y434994D01*
X416849Y434934D01*
X416941Y434866D01*
X417091Y434786D01*
X417237Y434698D01*
X417343Y434652D01*
X417444Y434598D01*
X417604Y434540D01*
X417760Y434473D01*
X417871Y434442D01*
X417980Y434403D01*
X418146Y434367D01*
X418310Y434323D01*
X418424Y434308D01*
X418537Y434284D01*
X418707Y434273D01*
X418875Y434251D01*
X418990Y434253D01*
X419105Y434245D01*
X419275Y434257D01*
X419445Y434260D01*
X419559Y434278D01*
X419674Y434286D01*
X419840Y434322D01*
X420008Y434348D01*
X420118Y434382D01*
X420231Y434406D01*
X420390Y434464D01*
X420553Y434514D01*
X420658Y434563D01*
X420766Y434602D01*
X420915Y434683D01*
X421069Y434754D01*
X421166Y434817D01*
X421268Y434872D01*
X421405Y434972D01*
X421547Y435065D01*
X421634Y435141D01*
X421727Y435209D01*
X421849Y435327D01*
X421977Y435439D01*
X422052Y435526D01*
X422135Y435607D01*
X422239Y435741D01*
X422350Y435870D01*
X422412Y435966D01*
X422483Y436058D01*
X422537Y436160D01*
X422659Y436348D01*
X422798Y436649D01*
X422854Y436754D01*
X423186Y437556D01*
X426044Y440414D01*
X429779Y441961D01*
X433821Y441961D01*
X437556Y440414D01*
X440414Y437556D01*
X441961Y433821D01*
X441961Y429779D01*
X440414Y426044D01*
X438375Y424005D01*
X438299Y423918D01*
X438216Y423838D01*
X438112Y423703D01*
X438001Y423575D01*
X437938Y423478D01*
X437868Y423387D01*
X437784Y423240D01*
X437691Y423097D01*
X437643Y422992D01*
X437585Y422892D01*
X437523Y422734D01*
X437451Y422580D01*
X437418Y422470D01*
X437375Y422363D01*
X437335Y422197D01*
X437286Y422035D01*
X437268Y421921D01*
X437241Y421809D01*
X437225Y421639D01*
X437199Y421472D01*
X437197Y421357D01*
X437186Y421242D01*
X437193Y421072D01*
X437191Y420902D01*
X437206Y420788D01*
X437211Y420672D01*
X437242Y420505D01*
X437263Y420337D01*
X437294Y420225D01*
X437315Y420112D01*
X437369Y419951D01*
X437413Y419787D01*
X437459Y419681D01*
X437496Y419572D01*
X437572Y419420D01*
X437639Y419264D01*
X437699Y419166D01*
X437751Y419063D01*
X437848Y418923D01*
X437936Y418778D01*
X438009Y418689D01*
X438075Y418594D01*
X438190Y418469D01*
X438298Y418337D01*
X438383Y418260D01*
X438461Y418175D01*
X438593Y418067D01*
X438718Y417952D01*
X438813Y417887D01*
X438902Y417814D01*
X439047Y417726D01*
X439188Y417630D01*
X439291Y417578D01*
X439389Y417519D01*
X439545Y417452D01*
X439698Y417376D01*
X439807Y417340D01*
X439913Y417294D01*
X440077Y417250D01*
X440238Y417196D01*
X440352Y417175D01*
X440463Y417145D01*
X440578Y417134D01*
X440799Y417094D01*
X441131Y417080D01*
X441248Y417069D01*
X473152Y417069D01*
X473267Y417077D01*
X473382Y417075D01*
X473551Y417097D01*
X473721Y417109D01*
X473834Y417133D01*
X473948Y417147D01*
X474111Y417192D01*
X474278Y417228D01*
X474386Y417267D01*
X474497Y417298D01*
X474653Y417365D01*
X474813Y417424D01*
X474915Y417478D01*
X475020Y417524D01*
X475166Y417612D01*
X475315Y417692D01*
X475408Y417760D01*
X475507Y417820D01*
X475638Y417928D01*
X475775Y418029D01*
X475858Y418109D01*
X475947Y418182D01*
X476062Y418308D01*
X476184Y418426D01*
X476254Y418517D01*
X476332Y418602D01*
X476428Y418743D01*
X476532Y418877D01*
X476589Y418977D01*
X476655Y419072D01*
X476730Y419224D01*
X476815Y419372D01*
X476857Y419479D01*
X476908Y419582D01*
X476962Y419743D01*
X477025Y419901D01*
X477052Y420014D01*
X477088Y420123D01*
X477119Y420290D01*
X477159Y420455D01*
X477170Y420570D01*
X477191Y420683D01*
X477198Y420853D01*
X477214Y421022D01*
X477209Y421137D01*
X477214Y421253D01*
X477197Y421422D01*
X477189Y421592D01*
X477168Y421705D01*
X477157Y421820D01*
X477116Y421985D01*
X477085Y422152D01*
X477049Y422261D01*
X477021Y422373D01*
X476958Y422531D01*
X476904Y422692D01*
X476853Y422795D01*
X476810Y422902D01*
X476725Y423049D01*
X476649Y423201D01*
X476584Y423296D01*
X476526Y423396D01*
X476453Y423485D01*
X476325Y423670D01*
X476100Y423914D01*
X476025Y424005D01*
X473986Y426044D01*
X472439Y429779D01*
X472439Y433821D01*
X473986Y437556D01*
X476844Y440414D01*
X480579Y441961D01*
X484621Y441961D01*
X488356Y440414D01*
X491214Y437556D01*
X491546Y436754D01*
X491597Y436651D01*
X491640Y436543D01*
X491725Y436396D01*
X491800Y436244D01*
X491866Y436149D01*
X491923Y436049D01*
X492027Y435914D01*
X492124Y435775D01*
X492202Y435690D01*
X492272Y435599D01*
X492394Y435480D01*
X492509Y435355D01*
X492599Y435282D01*
X492681Y435202D01*
X492818Y435102D01*
X492950Y434994D01*
X493049Y434934D01*
X493141Y434866D01*
X493291Y434786D01*
X493437Y434698D01*
X493543Y434652D01*
X493644Y434598D01*
X493804Y434540D01*
X493960Y434473D01*
X494071Y434442D01*
X494180Y434403D01*
X494346Y434367D01*
X494510Y434323D01*
X494624Y434308D01*
X494737Y434284D01*
X494907Y434273D01*
X495075Y434251D01*
X495190Y434253D01*
X495305Y434245D01*
X495475Y434257D01*
X495645Y434260D01*
X495759Y434278D01*
X495874Y434286D01*
X496040Y434322D01*
X496208Y434348D01*
X496318Y434382D01*
X496431Y434406D01*
X496590Y434464D01*
X496753Y434514D01*
X496858Y434563D01*
X496966Y434602D01*
X497115Y434683D01*
X497269Y434754D01*
X497366Y434817D01*
X497468Y434872D01*
X497605Y434972D01*
X497747Y435065D01*
X497834Y435141D01*
X497927Y435209D01*
X498049Y435327D01*
X498177Y435439D01*
X498252Y435526D01*
X498335Y435607D01*
X498439Y435741D01*
X498550Y435870D01*
X498612Y435966D01*
X498683Y436058D01*
X498737Y436160D01*
X498859Y436348D01*
X498998Y436649D01*
X499054Y436754D01*
X499386Y437556D01*
X502244Y440414D01*
X505979Y441961D01*
X510021Y441961D01*
X513756Y440414D01*
X516614Y437556D01*
X518161Y433821D01*
X518161Y429779D01*
X516614Y426044D01*
X514575Y424005D01*
X514499Y423918D01*
X514416Y423838D01*
X514312Y423703D01*
X514201Y423575D01*
X514138Y423478D01*
X514068Y423387D01*
X513984Y423240D01*
X513891Y423097D01*
X513843Y422992D01*
X513785Y422892D01*
X513723Y422734D01*
X513651Y422580D01*
X513618Y422470D01*
X513575Y422363D01*
X513535Y422197D01*
X513486Y422035D01*
X513468Y421921D01*
X513441Y421809D01*
X513425Y421639D01*
X513399Y421472D01*
X513397Y421357D01*
X513386Y421242D01*
X513393Y421072D01*
X513391Y420902D01*
X513406Y420788D01*
X513411Y420672D01*
X513442Y420505D01*
X513463Y420337D01*
X513494Y420225D01*
X513515Y420112D01*
X513569Y419951D01*
X513613Y419787D01*
X513659Y419681D01*
X513696Y419572D01*
X513772Y419420D01*
X513839Y419264D01*
X513899Y419166D01*
X513951Y419063D01*
X514048Y418923D01*
X514136Y418778D01*
X514209Y418689D01*
X514275Y418594D01*
X514390Y418469D01*
X514498Y418337D01*
X514583Y418260D01*
X514661Y418175D01*
X514793Y418067D01*
X514918Y417952D01*
X515013Y417887D01*
X515102Y417814D01*
X515247Y417726D01*
X515388Y417630D01*
X515491Y417578D01*
X515589Y417519D01*
X515745Y417452D01*
X515898Y417376D01*
X516007Y417340D01*
X516113Y417294D01*
X516277Y417250D01*
X516438Y417196D01*
X516552Y417175D01*
X516663Y417145D01*
X516778Y417134D01*
X516999Y417094D01*
X517331Y417080D01*
X517448Y417069D01*
X549352Y417069D01*
X549467Y417077D01*
X549582Y417075D01*
X549751Y417097D01*
X549921Y417109D01*
X550034Y417133D01*
X550148Y417147D01*
X550311Y417192D01*
X550478Y417228D01*
X550586Y417267D01*
X550697Y417298D01*
X550853Y417365D01*
X551013Y417424D01*
X551115Y417478D01*
X551220Y417524D01*
X551366Y417612D01*
X551515Y417692D01*
X551608Y417760D01*
X551707Y417820D01*
X551838Y417928D01*
X551975Y418029D01*
X552058Y418109D01*
X552147Y418182D01*
X552262Y418308D01*
X552384Y418426D01*
X552454Y418517D01*
X552532Y418602D01*
X552628Y418743D01*
X552732Y418877D01*
X552789Y418977D01*
X552855Y419072D01*
X552930Y419224D01*
X553015Y419372D01*
X553057Y419479D01*
X553108Y419582D01*
X553162Y419743D01*
X553225Y419901D01*
X553252Y420014D01*
X553288Y420123D01*
X553319Y420290D01*
X553359Y420455D01*
X553370Y420570D01*
X553391Y420683D01*
X553398Y420853D01*
X553414Y421022D01*
X553409Y421137D01*
X553414Y421253D01*
X553397Y421422D01*
X553389Y421592D01*
X553368Y421705D01*
X553357Y421820D01*
X553316Y421985D01*
X553285Y422152D01*
X553249Y422261D01*
X553221Y422373D01*
X553158Y422531D01*
X553104Y422692D01*
X553053Y422795D01*
X553010Y422902D01*
X552925Y423049D01*
X552849Y423201D01*
X552784Y423296D01*
X552726Y423396D01*
X552653Y423485D01*
X552525Y423670D01*
X552300Y423914D01*
X552225Y424005D01*
X550186Y426044D01*
X548639Y429779D01*
X548639Y433821D01*
X550186Y437556D01*
X553044Y440414D01*
X556779Y441961D01*
X560821Y441961D01*
X564556Y440414D01*
X567414Y437556D01*
X568961Y433821D01*
X568961Y429779D01*
X567414Y426044D01*
X565375Y424005D01*
X565299Y423918D01*
X565216Y423838D01*
X565112Y423703D01*
X565001Y423575D01*
X564938Y423478D01*
X564868Y423387D01*
X564784Y423240D01*
X564691Y423097D01*
X564643Y422992D01*
X564585Y422892D01*
X564523Y422734D01*
X564451Y422580D01*
X564418Y422470D01*
X564375Y422363D01*
X564335Y422197D01*
X564286Y422035D01*
X564268Y421921D01*
X564241Y421809D01*
X564225Y421639D01*
X564199Y421472D01*
X564197Y421357D01*
X564186Y421242D01*
X564193Y421072D01*
X564191Y420902D01*
X564206Y420788D01*
X564211Y420672D01*
X564242Y420505D01*
X564263Y420337D01*
X564294Y420225D01*
X564315Y420112D01*
X564369Y419951D01*
X564413Y419787D01*
X564459Y419681D01*
X564496Y419572D01*
X564572Y419420D01*
X564639Y419264D01*
X564699Y419166D01*
X564751Y419063D01*
X564848Y418923D01*
X564936Y418778D01*
X565009Y418689D01*
X565075Y418594D01*
X565190Y418469D01*
X565298Y418337D01*
X565383Y418260D01*
X565461Y418175D01*
X565593Y418067D01*
X565718Y417952D01*
X565813Y417887D01*
X565902Y417814D01*
X566047Y417726D01*
X566188Y417630D01*
X566291Y417578D01*
X566389Y417519D01*
X566545Y417452D01*
X566698Y417376D01*
X566807Y417340D01*
X566913Y417294D01*
X567077Y417250D01*
X567238Y417196D01*
X567352Y417175D01*
X567463Y417145D01*
X567578Y417134D01*
X567799Y417094D01*
X568131Y417080D01*
X568248Y417069D01*
X622548Y417069D01*
X622608Y417073D01*
X622668Y417071D01*
X622892Y417093D01*
X623116Y417109D01*
X623175Y417121D01*
X623235Y417127D01*
X623454Y417181D01*
X623673Y417228D01*
X623730Y417248D01*
X623789Y417263D01*
X623997Y417346D01*
X624208Y417424D01*
X624262Y417452D01*
X624318Y417474D01*
X624513Y417586D01*
X624711Y417692D01*
X624760Y417728D01*
X624812Y417758D01*
X624903Y417833D01*
X625171Y418029D01*
X625332Y418186D01*
X625421Y418259D01*
X628957Y421794D01*
X629508Y422023D01*
X629723Y422130D01*
X629941Y422233D01*
X629978Y422257D01*
X630018Y422277D01*
X630216Y422414D01*
X630417Y422546D01*
X630450Y422575D01*
X630487Y422600D01*
X630664Y422763D01*
X630845Y422922D01*
X630874Y422956D01*
X630906Y422986D01*
X631059Y423172D01*
X631216Y423355D01*
X631240Y423393D01*
X631268Y423427D01*
X631393Y423633D01*
X631522Y423835D01*
X631541Y423876D01*
X631564Y423914D01*
X631659Y424135D01*
X631759Y424354D01*
X631771Y424396D01*
X631789Y424437D01*
X631852Y424669D01*
X631920Y424900D01*
X631927Y424944D01*
X631939Y424987D01*
X631969Y425225D01*
X632004Y425464D01*
X632004Y425508D01*
X632010Y425552D01*
X632006Y425792D01*
X632008Y426033D01*
X632002Y426077D01*
X632001Y426122D01*
X631964Y426359D01*
X631932Y426598D01*
X631920Y426641D01*
X631913Y426685D01*
X631843Y426915D01*
X631778Y427147D01*
X631760Y427187D01*
X631747Y427230D01*
X631646Y427448D01*
X631549Y427668D01*
X631526Y427706D01*
X631507Y427746D01*
X631376Y427948D01*
X631249Y428153D01*
X631221Y428187D01*
X631196Y428224D01*
X631039Y428405D01*
X630884Y428591D01*
X630851Y428620D01*
X630822Y428654D01*
X630641Y428811D01*
X630462Y428973D01*
X630431Y428992D01*
X630392Y429027D01*
X629913Y429336D01*
X629841Y429369D01*
X629797Y429397D01*
X629674Y429460D01*
X628381Y430400D01*
X627250Y431531D01*
X626310Y432825D01*
X625667Y434087D01*
X635000Y434087D01*
X644333Y434087D01*
X643690Y432825D01*
X642750Y431531D01*
X641619Y430400D01*
X640326Y429460D01*
X640203Y429397D01*
X639997Y429273D01*
X639787Y429154D01*
X639752Y429127D01*
X639714Y429104D01*
X639527Y428952D01*
X639337Y428804D01*
X639306Y428773D01*
X639272Y428745D01*
X639108Y428568D01*
X638940Y428396D01*
X638914Y428360D01*
X638884Y428327D01*
X638747Y428130D01*
X638605Y427935D01*
X638584Y427896D01*
X638558Y427860D01*
X638450Y427646D01*
X638337Y427432D01*
X638321Y427391D01*
X638301Y427351D01*
X638224Y427124D01*
X638141Y426897D01*
X638132Y426854D01*
X638118Y426812D01*
X638073Y426575D01*
X638023Y426340D01*
X638020Y426296D01*
X638012Y426252D01*
X638000Y426011D01*
X637984Y425771D01*
X637987Y425727D01*
X637985Y425683D01*
X638007Y425443D01*
X638025Y425203D01*
X638034Y425160D01*
X638038Y425116D01*
X638094Y424881D01*
X638144Y424646D01*
X638160Y424604D01*
X638170Y424561D01*
X638258Y424337D01*
X638341Y424111D01*
X638362Y424072D01*
X638378Y424031D01*
X638497Y423821D01*
X638610Y423609D01*
X638637Y423573D01*
X638658Y423535D01*
X638805Y423344D01*
X638947Y423150D01*
X638978Y423118D01*
X639005Y423083D01*
X639177Y422914D01*
X639345Y422742D01*
X639381Y422715D01*
X639412Y422684D01*
X639606Y422541D01*
X639797Y422394D01*
X639828Y422377D01*
X639871Y422346D01*
X640372Y422075D01*
X640446Y422048D01*
X640492Y422023D01*
X641043Y421794D01*
X644044Y418793D01*
X645669Y414872D01*
X645669Y410628D01*
X644044Y406707D01*
X634693Y397356D01*
X630772Y395731D01*
X568248Y395731D01*
X568133Y395723D01*
X568018Y395725D01*
X567849Y395703D01*
X567679Y395691D01*
X567566Y395667D01*
X567452Y395653D01*
X567289Y395608D01*
X567122Y395572D01*
X567014Y395533D01*
X566903Y395502D01*
X566747Y395435D01*
X566587Y395376D01*
X566485Y395322D01*
X566380Y395276D01*
X566234Y395188D01*
X566085Y395108D01*
X565992Y395040D01*
X565893Y394980D01*
X565762Y394872D01*
X565625Y394771D01*
X565542Y394691D01*
X565453Y394618D01*
X565338Y394492D01*
X565216Y394374D01*
X565146Y394283D01*
X565068Y394198D01*
X564972Y394057D01*
X564868Y393923D01*
X564811Y393823D01*
X564745Y393728D01*
X564670Y393576D01*
X564585Y393428D01*
X564543Y393321D01*
X564492Y393218D01*
X564438Y393057D01*
X564375Y392899D01*
X564348Y392786D01*
X564312Y392677D01*
X564281Y392510D01*
X564241Y392345D01*
X564230Y392230D01*
X564209Y392117D01*
X564202Y391947D01*
X564186Y391778D01*
X564191Y391663D01*
X564186Y391547D01*
X564203Y391378D01*
X564211Y391208D01*
X564232Y391095D01*
X564243Y390980D01*
X564284Y390815D01*
X564315Y390648D01*
X564351Y390539D01*
X564379Y390427D01*
X564442Y390269D01*
X564496Y390108D01*
X564547Y390005D01*
X564590Y389898D01*
X564675Y389751D01*
X564751Y389599D01*
X564816Y389504D01*
X564874Y389404D01*
X564947Y389315D01*
X565075Y389130D01*
X565300Y388886D01*
X565375Y388795D01*
X567414Y386756D01*
X568961Y383021D01*
X568961Y378989D01*
X568965Y378929D01*
X568963Y378869D01*
X568985Y378645D01*
X569001Y378421D01*
X569013Y378362D01*
X569019Y378302D01*
X569073Y378083D01*
X569120Y377864D01*
X569140Y377807D01*
X569155Y377748D01*
X569238Y377539D01*
X569316Y377328D01*
X569344Y377275D01*
X569366Y377219D01*
X569478Y377024D01*
X569584Y376826D01*
X569620Y376777D01*
X569650Y376725D01*
X569725Y376634D01*
X569921Y376366D01*
X570078Y376205D01*
X570151Y376116D01*
X591252Y355015D01*
X591893Y353467D01*
X591948Y353335D01*
X591948Y329290D01*
X591252Y327610D01*
X589394Y325752D01*
X572719Y309077D01*
X572653Y309001D01*
X572625Y308974D01*
X572619Y308967D01*
X572561Y308910D01*
X572457Y308775D01*
X572345Y308647D01*
X572283Y308550D01*
X572212Y308459D01*
X572128Y308311D01*
X572035Y308169D01*
X571987Y308064D01*
X571930Y307964D01*
X571867Y307806D01*
X571796Y307652D01*
X571762Y307542D01*
X571720Y307435D01*
X571680Y307269D01*
X571630Y307107D01*
X571613Y306993D01*
X571586Y306881D01*
X571569Y306711D01*
X571543Y306544D01*
X571541Y306429D01*
X571530Y306314D01*
X571538Y306144D01*
X571535Y305974D01*
X571550Y305860D01*
X571555Y305744D01*
X571586Y305577D01*
X571607Y305409D01*
X571638Y305297D01*
X571659Y305184D01*
X571713Y305023D01*
X571758Y304859D01*
X571804Y304753D01*
X571840Y304644D01*
X571916Y304492D01*
X571984Y304336D01*
X572044Y304238D01*
X572095Y304135D01*
X572192Y303995D01*
X572280Y303850D01*
X572354Y303761D01*
X572419Y303666D01*
X572534Y303541D01*
X572642Y303409D01*
X572727Y303332D01*
X572805Y303247D01*
X572937Y303139D01*
X573062Y303024D01*
X573157Y302959D01*
X573246Y302886D01*
X573392Y302798D01*
X573532Y302702D01*
X573635Y302650D01*
X573734Y302591D01*
X573890Y302524D01*
X574042Y302448D01*
X574152Y302412D01*
X574257Y302366D01*
X574421Y302322D01*
X574583Y302268D01*
X574696Y302247D01*
X574807Y302217D01*
X574922Y302206D01*
X575143Y302166D01*
X575475Y302152D01*
X575592Y302141D01*
X584830Y302141D01*
X585764Y301754D01*
X586479Y301039D01*
X586828Y300197D01*
X586829Y300195D01*
X586830Y300192D01*
X586961Y299931D01*
X587082Y299687D01*
X587084Y299685D01*
X587085Y299683D01*
X587247Y299448D01*
X587405Y299218D01*
X587407Y299216D01*
X587409Y299214D01*
X587605Y299001D01*
X587791Y298799D01*
X587793Y298797D01*
X587795Y298795D01*
X588024Y298608D01*
X588232Y298437D01*
X588234Y298436D01*
X588236Y298434D01*
X588482Y298285D01*
X588718Y298141D01*
X588721Y298140D01*
X588723Y298139D01*
X588983Y298027D01*
X589242Y297916D01*
X589245Y297915D01*
X589247Y297914D01*
X589520Y297840D01*
X589792Y297766D01*
X589794Y297766D01*
X589797Y297765D01*
X589811Y297764D01*
X590357Y297695D01*
X590497Y297697D01*
X590582Y297689D01*
X613887Y297689D01*
X615941Y296838D01*
X639300Y273479D01*
X639345Y273439D01*
X639386Y273395D01*
X639560Y273253D01*
X639730Y273105D01*
X639781Y273072D01*
X639827Y273034D01*
X640020Y272917D01*
X640208Y272795D01*
X640263Y272770D01*
X640315Y272739D01*
X640521Y272650D01*
X640725Y272555D01*
X640783Y272538D01*
X640838Y272514D01*
X641055Y272456D01*
X641270Y272390D01*
X641330Y272381D01*
X641388Y272365D01*
X641505Y272354D01*
X641833Y272303D01*
X642058Y272300D01*
X642173Y272289D01*
X658967Y272289D01*
X659139Y272301D01*
X659312Y272303D01*
X659423Y272321D01*
X659535Y272329D01*
X659704Y272365D01*
X659875Y272392D01*
X659982Y272424D01*
X660092Y272448D01*
X660254Y272507D01*
X660420Y272557D01*
X660522Y272605D01*
X660627Y272644D01*
X660780Y272725D01*
X660936Y272798D01*
X661030Y272859D01*
X661130Y272912D01*
X661269Y273014D01*
X661414Y273109D01*
X661499Y273182D01*
X661590Y273249D01*
X661713Y273369D01*
X661844Y273483D01*
X661917Y273568D01*
X661998Y273646D01*
X662104Y273783D01*
X662217Y273913D01*
X662278Y274008D01*
X662347Y274097D01*
X662432Y274247D01*
X662526Y274392D01*
X662573Y274494D01*
X662629Y274592D01*
X662693Y274752D01*
X662765Y274909D01*
X662798Y275017D01*
X662839Y275121D01*
X662880Y275289D01*
X662930Y275455D01*
X662947Y275566D01*
X662973Y275675D01*
X662990Y275847D01*
X663016Y276018D01*
X663017Y276130D01*
X663028Y276242D01*
X663021Y276415D01*
X663023Y276588D01*
X663009Y276699D01*
X663004Y276812D01*
X662972Y276982D01*
X662950Y277153D01*
X662939Y277189D01*
X662939Y281421D01*
X664486Y285156D01*
X667344Y288014D01*
X671079Y289561D01*
X675121Y289561D01*
X678856Y288014D01*
X681714Y285156D01*
X683261Y281421D01*
X683261Y277379D01*
X682262Y274968D01*
X682261Y274965D01*
X682260Y274963D01*
X682168Y274685D01*
X682081Y274427D01*
X682081Y274425D01*
X682080Y274422D01*
X682029Y274142D01*
X681978Y273867D01*
X681978Y273865D01*
X681978Y273862D01*
X681966Y273569D01*
X681954Y273298D01*
X681955Y273295D01*
X681955Y273292D01*
X681983Y273008D01*
X682010Y272731D01*
X682011Y272728D01*
X682011Y272725D01*
X682078Y272454D01*
X682145Y272177D01*
X682146Y272175D01*
X682147Y272172D01*
X682256Y271899D01*
X682356Y271648D01*
X682357Y271645D01*
X682358Y271643D01*
X682499Y271398D01*
X682639Y271153D01*
X682641Y271151D01*
X682642Y271149D01*
X682651Y271138D01*
X682988Y270703D01*
X683089Y270606D01*
X683143Y270540D01*
X691046Y262637D01*
X691897Y260583D01*
X691897Y164867D01*
X691046Y162813D01*
X684451Y156218D01*
X684411Y156173D01*
X684367Y156132D01*
X684225Y155958D01*
X684077Y155788D01*
X684044Y155737D01*
X684006Y155691D01*
X683889Y155498D01*
X683767Y155310D01*
X683742Y155255D01*
X683711Y155203D01*
X683622Y154997D01*
X683527Y154793D01*
X683510Y154735D01*
X683486Y154680D01*
X683428Y154463D01*
X683362Y154248D01*
X683353Y154188D01*
X683337Y154130D01*
X683326Y154013D01*
X683275Y153685D01*
X683272Y153460D01*
X683261Y153345D01*
X683261Y150379D01*
X681714Y146644D01*
X678856Y143786D01*
X675121Y142239D01*
X671079Y142239D01*
X667344Y143786D01*
X664486Y146644D01*
X662939Y150379D01*
X662939Y154421D01*
X664486Y158156D01*
X667344Y161014D01*
X668203Y161369D01*
X668419Y161477D01*
X668636Y161580D01*
X668673Y161604D01*
X668713Y161624D01*
X668911Y161760D01*
X669112Y161893D01*
X669146Y161922D01*
X669182Y161947D01*
X669359Y162110D01*
X669540Y162269D01*
X669569Y162303D01*
X669601Y162333D01*
X669755Y162519D01*
X669911Y162702D01*
X669935Y162739D01*
X669963Y162773D01*
X670088Y162979D01*
X670217Y163182D01*
X670236Y163222D01*
X670259Y163260D01*
X670354Y163481D01*
X670454Y163700D01*
X670466Y163743D01*
X670484Y163784D01*
X670547Y164016D01*
X670616Y164247D01*
X670622Y164291D01*
X670634Y164333D01*
X670664Y164572D01*
X670699Y164810D01*
X670700Y164855D01*
X670705Y164899D01*
X670702Y165139D01*
X670703Y165380D01*
X670697Y165424D01*
X670697Y165468D01*
X670659Y165707D01*
X670628Y165945D01*
X670616Y165987D01*
X670609Y166031D01*
X670539Y166262D01*
X670474Y166493D01*
X670456Y166534D01*
X670443Y166576D01*
X670341Y166794D01*
X670244Y167015D01*
X670221Y167053D01*
X670202Y167093D01*
X670071Y167295D01*
X669944Y167499D01*
X669916Y167533D01*
X669892Y167571D01*
X669734Y167752D01*
X669580Y167937D01*
X669547Y167967D01*
X669517Y168000D01*
X669335Y168158D01*
X669157Y168319D01*
X669127Y168339D01*
X669087Y168374D01*
X668608Y168683D01*
X668537Y168716D01*
X668493Y168744D01*
X667775Y169110D01*
X666481Y170050D01*
X665350Y171181D01*
X664410Y172475D01*
X663767Y173737D01*
X673100Y173737D01*
X673329Y173753D01*
X673559Y173763D01*
X673613Y173773D01*
X673668Y173777D01*
X673893Y173825D01*
X674119Y173867D01*
X674172Y173884D01*
X674225Y173896D01*
X674441Y173975D01*
X674660Y174048D01*
X674709Y174073D01*
X674760Y174091D01*
X674963Y174200D01*
X675169Y174303D01*
X675214Y174334D01*
X675263Y174360D01*
X675448Y174496D01*
X675638Y174627D01*
X675678Y174664D01*
X675723Y174697D01*
X675887Y174857D01*
X676057Y175013D01*
X676092Y175056D01*
X676131Y175094D01*
X676272Y175276D01*
X676418Y175454D01*
X676446Y175501D01*
X676480Y175545D01*
X676594Y175745D01*
X676713Y175941D01*
X676735Y175992D01*
X676762Y176040D01*
X676847Y176254D01*
X676937Y176465D01*
X676952Y176518D01*
X676972Y176569D01*
X677026Y176794D01*
X677086Y177015D01*
X677091Y177059D01*
X677106Y177123D01*
X677161Y177690D01*
X677159Y177756D01*
X677163Y177800D01*
X677147Y178030D01*
X677137Y178260D01*
X677127Y178314D01*
X677123Y178369D01*
X677075Y178593D01*
X677033Y178820D01*
X677015Y178872D01*
X677004Y178926D01*
X676925Y179141D01*
X676852Y179360D01*
X676827Y179409D01*
X676808Y179461D01*
X676699Y179664D01*
X676596Y179870D01*
X676565Y179915D01*
X676539Y179963D01*
X676404Y180148D01*
X676273Y180338D01*
X676235Y180379D01*
X676203Y180423D01*
X676043Y180588D01*
X675886Y180757D01*
X675844Y180792D01*
X675805Y180831D01*
X675624Y180972D01*
X675445Y181118D01*
X675398Y181147D01*
X675355Y181180D01*
X675155Y181294D01*
X674958Y181413D01*
X674908Y181435D01*
X674860Y181462D01*
X674645Y181548D01*
X674434Y181638D01*
X674382Y181652D01*
X674330Y181673D01*
X674106Y181727D01*
X673884Y181787D01*
X673840Y181791D01*
X673776Y181807D01*
X673209Y181862D01*
X673144Y181859D01*
X673100Y181863D01*
X663767Y181863D01*
X664410Y183125D01*
X665350Y184419D01*
X666481Y185550D01*
X667775Y186490D01*
X668493Y186856D01*
X668698Y186980D01*
X668908Y187100D01*
X668943Y187127D01*
X668981Y187150D01*
X669168Y187301D01*
X669358Y187449D01*
X669389Y187481D01*
X669423Y187509D01*
X669587Y187685D01*
X669755Y187858D01*
X669781Y187894D01*
X669811Y187926D01*
X669949Y188124D01*
X670091Y188318D01*
X670112Y188357D01*
X670137Y188394D01*
X670246Y188609D01*
X670359Y188821D01*
X670374Y188863D01*
X670394Y188902D01*
X670471Y189130D01*
X670554Y189356D01*
X670563Y189400D01*
X670577Y189442D01*
X670622Y189678D01*
X670672Y189914D01*
X670675Y189958D01*
X670684Y190002D01*
X670695Y190242D01*
X670711Y190482D01*
X670708Y190526D01*
X670710Y190571D01*
X670688Y190810D01*
X670671Y191050D01*
X670661Y191094D01*
X670657Y191138D01*
X670601Y191372D01*
X670551Y191607D01*
X670536Y191649D01*
X670525Y191692D01*
X670437Y191917D01*
X670354Y192142D01*
X670333Y192181D01*
X670317Y192223D01*
X670199Y192432D01*
X670085Y192644D01*
X670059Y192680D01*
X670037Y192719D01*
X669890Y192910D01*
X669748Y193104D01*
X669717Y193135D01*
X669690Y193171D01*
X669517Y193340D01*
X669350Y193511D01*
X669315Y193539D01*
X669283Y193570D01*
X669089Y193713D01*
X668899Y193860D01*
X668867Y193877D01*
X668824Y193908D01*
X668323Y194179D01*
X668249Y194206D01*
X668203Y194231D01*
X667344Y194586D01*
X664486Y197444D01*
X662860Y201369D01*
X662827Y201505D01*
X662780Y201725D01*
X662760Y201781D01*
X662745Y201840D01*
X662662Y202049D01*
X662584Y202260D01*
X662556Y202313D01*
X662534Y202369D01*
X662422Y202564D01*
X662316Y202762D01*
X662280Y202811D01*
X662250Y202863D01*
X662175Y202954D01*
X662045Y203132D01*
X662025Y203161D01*
X662019Y203168D01*
X661979Y203222D01*
X661822Y203383D01*
X661749Y203472D01*
X633875Y231346D01*
X633830Y231386D01*
X633789Y231430D01*
X633615Y231572D01*
X633445Y231720D01*
X633394Y231753D01*
X633348Y231791D01*
X633155Y231908D01*
X632967Y232030D01*
X632912Y232055D01*
X632860Y232086D01*
X632654Y232175D01*
X632450Y232270D01*
X632392Y232287D01*
X632337Y232311D01*
X632120Y232369D01*
X631905Y232435D01*
X631845Y232444D01*
X631787Y232460D01*
X631670Y232471D01*
X631342Y232522D01*
X631117Y232525D01*
X631002Y232536D01*
X628682Y232536D01*
X628679Y232536D01*
X628676Y232536D01*
X628399Y232516D01*
X628113Y232496D01*
X628111Y232496D01*
X628108Y232496D01*
X627831Y232436D01*
X627556Y232377D01*
X627554Y232376D01*
X627551Y232376D01*
X627287Y232279D01*
X627021Y232181D01*
X627018Y232180D01*
X627016Y232179D01*
X626772Y232048D01*
X626519Y231913D01*
X626516Y231911D01*
X626514Y231910D01*
X626280Y231738D01*
X626059Y231576D01*
X626057Y231574D01*
X626055Y231573D01*
X625854Y231377D01*
X625650Y231179D01*
X625649Y231177D01*
X625647Y231175D01*
X625470Y230946D01*
X625302Y230728D01*
X625300Y230726D01*
X625299Y230724D01*
X625292Y230712D01*
X625019Y230233D01*
X624968Y230103D01*
X624928Y230028D01*
X624579Y229186D01*
X623864Y228471D01*
X622930Y228084D01*
X608920Y228084D01*
X607980Y228473D01*
X607923Y228493D01*
X607868Y228518D01*
X607653Y228583D01*
X607440Y228654D01*
X607380Y228665D01*
X607322Y228682D01*
X607100Y228717D01*
X606879Y228757D01*
X606819Y228760D01*
X606759Y228769D01*
X606534Y228772D01*
X606310Y228781D01*
X606250Y228775D01*
X606189Y228776D01*
X605967Y228747D01*
X605743Y228725D01*
X605684Y228711D01*
X605624Y228703D01*
X605512Y228669D01*
X605189Y228590D01*
X604980Y228507D01*
X604870Y228473D01*
X603930Y228084D01*
X593270Y228084D01*
X593267Y228084D01*
X593265Y228084D01*
X592988Y228064D01*
X592702Y228044D01*
X592699Y228044D01*
X592696Y228044D01*
X592419Y227984D01*
X592145Y227925D01*
X592142Y227924D01*
X592139Y227924D01*
X591875Y227827D01*
X591609Y227729D01*
X591607Y227728D01*
X591604Y227727D01*
X591361Y227597D01*
X591107Y227461D01*
X591105Y227459D01*
X591102Y227458D01*
X590874Y227290D01*
X590647Y227124D01*
X590645Y227122D01*
X590643Y227121D01*
X590440Y226922D01*
X590239Y226727D01*
X590237Y226725D01*
X590235Y226723D01*
X590064Y226501D01*
X589890Y226276D01*
X589889Y226274D01*
X589887Y226272D01*
X589881Y226260D01*
X589608Y225781D01*
X589556Y225651D01*
X589516Y225576D01*
X589345Y225162D01*
X587638Y223455D01*
X585407Y222531D01*
X582993Y222531D01*
X580762Y223455D01*
X579055Y225162D01*
X578884Y225574D01*
X578832Y225680D01*
X578788Y225790D01*
X578705Y225934D01*
X578630Y226084D01*
X578563Y226181D01*
X578504Y226284D01*
X578432Y226372D01*
X578307Y226553D01*
X578078Y226803D01*
X578004Y226893D01*
X573550Y231346D01*
X573505Y231386D01*
X573464Y231430D01*
X573289Y231573D01*
X573120Y231720D01*
X573070Y231753D01*
X573023Y231791D01*
X572830Y231908D01*
X572642Y232030D01*
X572587Y232055D01*
X572535Y232086D01*
X572329Y232175D01*
X572125Y232270D01*
X572067Y232287D01*
X572012Y232311D01*
X571795Y232370D01*
X571580Y232435D01*
X571520Y232444D01*
X571462Y232460D01*
X571345Y232471D01*
X571017Y232522D01*
X570792Y232525D01*
X570677Y232536D01*
X477073Y232536D01*
X477013Y232532D01*
X476952Y232534D01*
X476729Y232512D01*
X476505Y232496D01*
X476445Y232484D01*
X476385Y232478D01*
X476167Y232424D01*
X475947Y232377D01*
X475891Y232357D01*
X475832Y232342D01*
X475623Y232259D01*
X475412Y232181D01*
X475359Y232153D01*
X475303Y232131D01*
X475108Y232019D01*
X474910Y231913D01*
X474861Y231877D01*
X474809Y231847D01*
X474718Y231772D01*
X474450Y231576D01*
X474289Y231419D01*
X474200Y231346D01*
X467205Y224352D01*
X467167Y224308D01*
X467125Y224269D01*
X466981Y224093D01*
X466832Y223921D01*
X466800Y223873D01*
X466764Y223828D01*
X466645Y223634D01*
X466522Y223443D01*
X466497Y223391D01*
X466468Y223342D01*
X466378Y223132D01*
X466282Y222926D01*
X466265Y222871D01*
X466242Y222818D01*
X466183Y222599D01*
X466117Y222381D01*
X466111Y222347D01*
X466080Y222339D01*
X465858Y222291D01*
X465804Y222271D01*
X465748Y222258D01*
X465536Y222173D01*
X465323Y222095D01*
X465272Y222068D01*
X465219Y222046D01*
X465021Y221933D01*
X464821Y221825D01*
X464774Y221791D01*
X464724Y221763D01*
X464634Y221689D01*
X464361Y221488D01*
X464204Y221334D01*
X464115Y221262D01*
X428616Y185762D01*
X426562Y184911D01*
X321151Y184911D01*
X319097Y185762D01*
X298529Y206330D01*
X298442Y206405D01*
X298362Y206488D01*
X298227Y206592D01*
X298099Y206703D01*
X298002Y206766D01*
X297911Y206837D01*
X297763Y206921D01*
X297621Y207013D01*
X297516Y207062D01*
X297416Y207119D01*
X297258Y207182D01*
X297104Y207253D01*
X296994Y207286D01*
X296887Y207329D01*
X296721Y207369D01*
X296559Y207418D01*
X296445Y207436D01*
X296333Y207463D01*
X296163Y207480D01*
X295996Y207506D01*
X295881Y207507D01*
X295766Y207518D01*
X295596Y207511D01*
X295426Y207513D01*
X295312Y207499D01*
X295196Y207494D01*
X295029Y207463D01*
X294861Y207441D01*
X294749Y207411D01*
X294636Y207390D01*
X294475Y207336D01*
X294311Y207291D01*
X294205Y207245D01*
X294096Y207208D01*
X293944Y207132D01*
X293788Y207065D01*
X293690Y207005D01*
X293587Y206953D01*
X293447Y206857D01*
X293302Y206768D01*
X293213Y206695D01*
X293118Y206629D01*
X292993Y206514D01*
X292861Y206406D01*
X292784Y206321D01*
X292699Y206243D01*
X292591Y206112D01*
X292476Y205986D01*
X292411Y205891D01*
X292338Y205802D01*
X292250Y205657D01*
X292154Y205517D01*
X292102Y205413D01*
X292043Y205315D01*
X291976Y205159D01*
X291900Y205007D01*
X291864Y204897D01*
X291818Y204791D01*
X291774Y204627D01*
X291720Y204466D01*
X291699Y204352D01*
X291669Y204241D01*
X291658Y204127D01*
X291618Y203905D01*
X291604Y203574D01*
X291593Y203457D01*
X291593Y194949D01*
X291495Y194458D01*
X291304Y193996D01*
X291025Y193579D01*
X290672Y193226D01*
X290255Y192947D01*
X289813Y192764D01*
X289813Y205359D01*
X289797Y205588D01*
X289787Y205818D01*
X289777Y205872D01*
X289773Y205927D01*
X289725Y206152D01*
X289683Y206378D01*
X289666Y206431D01*
X289654Y206484D01*
X289575Y206700D01*
X289502Y206919D01*
X289477Y206968D01*
X289459Y207019D01*
X289350Y207222D01*
X289247Y207428D01*
X289216Y207473D01*
X289190Y207522D01*
X289054Y207707D01*
X288923Y207897D01*
X288886Y207937D01*
X288853Y207982D01*
X288693Y208146D01*
X288537Y208316D01*
X288494Y208351D01*
X288456Y208390D01*
X288274Y208531D01*
X288096Y208677D01*
X288049Y208705D01*
X288005Y208739D01*
X287805Y208853D01*
X287609Y208972D01*
X287558Y208994D01*
X287510Y209021D01*
X287296Y209106D01*
X287085Y209196D01*
X287032Y209211D01*
X286981Y209231D01*
X286756Y209285D01*
X286535Y209345D01*
X286491Y209350D01*
X286427Y209365D01*
X285860Y209420D01*
X285794Y209418D01*
X285750Y209422D01*
X285520Y209406D01*
X285290Y209396D01*
X285236Y209386D01*
X285181Y209382D01*
X284956Y209334D01*
X284730Y209292D01*
X284678Y209274D01*
X284624Y209263D01*
X284408Y209184D01*
X284190Y209111D01*
X284141Y209086D01*
X284089Y209067D01*
X283886Y208958D01*
X283680Y208855D01*
X283635Y208824D01*
X283587Y208798D01*
X283401Y208663D01*
X283212Y208532D01*
X283171Y208494D01*
X283127Y208462D01*
X282962Y208302D01*
X282793Y208145D01*
X282758Y208103D01*
X282719Y208064D01*
X282578Y207883D01*
X282432Y207704D01*
X282403Y207657D01*
X282370Y207614D01*
X282256Y207414D01*
X282136Y207217D01*
X282115Y207167D01*
X282088Y207119D01*
X282002Y206904D01*
X281912Y206693D01*
X281898Y206641D01*
X281877Y206589D01*
X281823Y206365D01*
X281763Y206143D01*
X281759Y206099D01*
X281743Y206035D01*
X281688Y205468D01*
X281691Y205403D01*
X281687Y205359D01*
X281687Y190170D01*
X281674Y190145D01*
X281620Y189984D01*
X281557Y189826D01*
X281530Y189714D01*
X281494Y189604D01*
X281463Y189437D01*
X281423Y189272D01*
X281412Y189157D01*
X281392Y189044D01*
X281385Y188874D01*
X281368Y188705D01*
X281373Y188590D01*
X281368Y188474D01*
X281385Y188305D01*
X281393Y188135D01*
X281414Y188022D01*
X281425Y187907D01*
X281466Y187742D01*
X281497Y187575D01*
X281533Y187466D01*
X281561Y187354D01*
X281624Y187196D01*
X281678Y187035D01*
X281730Y186932D01*
X281772Y186825D01*
X281857Y186678D01*
X281933Y186526D01*
X281999Y186431D01*
X282056Y186331D01*
X282129Y186242D01*
X282257Y186057D01*
X282482Y185813D01*
X282557Y185722D01*
X283700Y184579D01*
X283745Y184539D01*
X283786Y184495D01*
X283961Y184352D01*
X284130Y184205D01*
X284181Y184172D01*
X284227Y184134D01*
X284420Y184017D01*
X284608Y183895D01*
X284663Y183870D01*
X284715Y183839D01*
X284921Y183750D01*
X285125Y183655D01*
X285183Y183638D01*
X285238Y183614D01*
X285455Y183555D01*
X285670Y183490D01*
X285730Y183481D01*
X285788Y183465D01*
X285906Y183454D01*
X286233Y183403D01*
X286458Y183400D01*
X286573Y183389D01*
X292620Y183389D01*
X294674Y182538D01*
X320883Y156329D01*
X320970Y156254D01*
X321050Y156171D01*
X321185Y156067D01*
X321313Y155956D01*
X321410Y155893D01*
X321501Y155823D01*
X321649Y155738D01*
X321791Y155646D01*
X321896Y155598D01*
X321996Y155540D01*
X322154Y155478D01*
X322308Y155406D01*
X322418Y155373D01*
X322525Y155330D01*
X322691Y155290D01*
X322853Y155241D01*
X322967Y155223D01*
X323079Y155196D01*
X323249Y155180D01*
X323416Y155154D01*
X323531Y155152D01*
X323646Y155141D01*
X323816Y155148D01*
X323986Y155146D01*
X324100Y155160D01*
X324216Y155165D01*
X324383Y155196D01*
X324551Y155218D01*
X324663Y155248D01*
X324776Y155269D01*
X324937Y155323D01*
X325101Y155368D01*
X325207Y155414D01*
X325316Y155451D01*
X325468Y155527D01*
X325624Y155594D01*
X325722Y155654D01*
X325825Y155706D01*
X325965Y155803D01*
X326110Y155891D01*
X326199Y155964D01*
X326294Y156030D01*
X326419Y156145D01*
X326551Y156253D01*
X326628Y156338D01*
X326713Y156416D01*
X326821Y156548D01*
X326936Y156673D01*
X327001Y156768D01*
X327074Y156857D01*
X327162Y157003D01*
X327258Y157143D01*
X327310Y157246D01*
X327369Y157344D01*
X327436Y157500D01*
X327512Y157653D01*
X327548Y157762D01*
X327594Y157868D01*
X327638Y158032D01*
X327692Y158193D01*
X327713Y158307D01*
X327743Y158418D01*
X327754Y158532D01*
X327794Y158754D01*
X327808Y159086D01*
X327819Y159203D01*
X327819Y163100D01*
X327917Y163591D01*
X328108Y164053D01*
X328387Y164470D01*
X328740Y164823D01*
X329157Y165102D01*
X329619Y165293D01*
X330110Y165391D01*
X336297Y165391D01*
X336297Y152850D01*
X336297Y127450D01*
X336313Y127221D01*
X336323Y126991D01*
X336333Y126937D01*
X336337Y126882D01*
X336385Y126657D01*
X336427Y126431D01*
X336444Y126378D01*
X336456Y126325D01*
X336535Y126109D01*
X336608Y125890D01*
X336633Y125841D01*
X336651Y125790D01*
X336760Y125587D01*
X336863Y125381D01*
X336894Y125336D01*
X336920Y125287D01*
X337056Y125102D01*
X337187Y124912D01*
X337224Y124872D01*
X337257Y124827D01*
X337417Y124663D01*
X337573Y124493D01*
X337574Y124493D01*
X337616Y124458D01*
X337654Y124419D01*
X337655Y124419D01*
X337836Y124278D01*
X338015Y124132D01*
X338062Y124103D01*
X338105Y124070D01*
X338305Y123956D01*
X338502Y123836D01*
X338552Y123815D01*
X338600Y123788D01*
X338815Y123702D01*
X339026Y123612D01*
X339078Y123598D01*
X339130Y123577D01*
X339354Y123523D01*
X339576Y123463D01*
X339620Y123459D01*
X339684Y123443D01*
X340251Y123388D01*
X340316Y123391D01*
X340360Y123387D01*
X353980Y123387D01*
X354014Y123344D01*
X354139Y123230D01*
X354258Y123108D01*
X354349Y123037D01*
X354434Y122959D01*
X354574Y122863D01*
X354709Y122759D01*
X354809Y122702D01*
X354904Y122637D01*
X355056Y122561D01*
X355204Y122477D01*
X355311Y122434D01*
X355414Y122383D01*
X355575Y122329D01*
X355733Y122266D01*
X355846Y122239D01*
X355955Y122203D01*
X356122Y122172D01*
X356287Y122132D01*
X356402Y122121D01*
X356515Y122101D01*
X356685Y122094D01*
X356854Y122077D01*
X356969Y122082D01*
X357085Y122077D01*
X357254Y122094D01*
X357424Y122102D01*
X357537Y122123D01*
X357651Y122134D01*
X357817Y122175D01*
X357984Y122206D01*
X358093Y122242D01*
X358205Y122270D01*
X358363Y122333D01*
X358524Y122387D01*
X358627Y122439D01*
X358734Y122481D01*
X358881Y122566D01*
X359033Y122642D01*
X359128Y122708D01*
X359228Y122765D01*
X359317Y122838D01*
X359502Y122966D01*
X359746Y123191D01*
X359837Y123266D01*
X381154Y144582D01*
X381231Y144671D01*
X381315Y144754D01*
X381418Y144886D01*
X381527Y145012D01*
X381591Y145111D01*
X381664Y145205D01*
X381717Y145306D01*
X381837Y145491D01*
X381980Y145798D01*
X382034Y145901D01*
X382205Y146313D01*
X383912Y148020D01*
X386143Y148944D01*
X388557Y148944D01*
X390788Y148020D01*
X392495Y146313D01*
X393419Y144082D01*
X393419Y141668D01*
X392495Y139437D01*
X390788Y137730D01*
X390376Y137559D01*
X390270Y137507D01*
X390160Y137463D01*
X390015Y137380D01*
X389866Y137305D01*
X389769Y137238D01*
X389666Y137179D01*
X389578Y137107D01*
X389397Y136982D01*
X389147Y136753D01*
X389057Y136679D01*
X366191Y113813D01*
X366040Y113639D01*
X365885Y113469D01*
X365854Y113424D01*
X365818Y113382D01*
X365692Y113189D01*
X365562Y113000D01*
X365538Y112950D01*
X365508Y112904D01*
X365411Y112696D01*
X365308Y112489D01*
X365291Y112437D01*
X365268Y112387D01*
X365201Y112167D01*
X365129Y111949D01*
X365119Y111895D01*
X365103Y111842D01*
X365067Y111615D01*
X365026Y111388D01*
X365024Y111333D01*
X365015Y111279D01*
X365012Y111049D01*
X365003Y110819D01*
X365008Y110764D01*
X365008Y110709D01*
X365037Y110481D01*
X365060Y110252D01*
X365073Y110199D01*
X365080Y110144D01*
X365141Y109922D01*
X365195Y109699D01*
X365216Y109648D01*
X365230Y109595D01*
X365321Y109383D01*
X365407Y109169D01*
X365434Y109122D01*
X365456Y109071D01*
X365576Y108875D01*
X365690Y108675D01*
X365719Y108641D01*
X365753Y108585D01*
X366115Y108145D01*
X366163Y108101D01*
X366191Y108066D01*
X373038Y101220D01*
X373116Y101030D01*
X373219Y100825D01*
X373316Y100616D01*
X373346Y100570D01*
X373371Y100521D01*
X373501Y100331D01*
X373627Y100138D01*
X373663Y100097D01*
X373694Y100051D01*
X373850Y99882D01*
X374001Y99708D01*
X374042Y99672D01*
X374080Y99632D01*
X374258Y99486D01*
X374432Y99335D01*
X374478Y99305D01*
X374520Y99271D01*
X374717Y99151D01*
X374910Y99026D01*
X374960Y99003D01*
X375007Y98974D01*
X375219Y98883D01*
X375427Y98787D01*
X375480Y98771D01*
X375530Y98749D01*
X375753Y98689D01*
X375973Y98622D01*
X376027Y98614D01*
X376080Y98600D01*
X376308Y98571D01*
X376536Y98536D01*
X376591Y98535D01*
X376646Y98528D01*
X376875Y98532D01*
X377106Y98529D01*
X377160Y98536D01*
X377215Y98537D01*
X377443Y98572D01*
X377671Y98602D01*
X377713Y98615D01*
X377778Y98625D01*
X378323Y98791D01*
X378383Y98818D01*
X378425Y98831D01*
X378979Y99061D01*
X383011Y99061D01*
X383071Y99065D01*
X383131Y99063D01*
X383355Y99085D01*
X383579Y99101D01*
X383638Y99113D01*
X383698Y99119D01*
X383917Y99173D01*
X384136Y99220D01*
X384193Y99240D01*
X384252Y99255D01*
X384461Y99338D01*
X384672Y99416D01*
X384725Y99444D01*
X384781Y99466D01*
X384976Y99578D01*
X385174Y99684D01*
X385223Y99720D01*
X385275Y99750D01*
X385366Y99825D01*
X385634Y100021D01*
X385795Y100178D01*
X385884Y100251D01*
X408302Y122669D01*
X408511Y122878D01*
X408513Y122880D01*
X408515Y122882D01*
X408700Y123095D01*
X408885Y123308D01*
X408887Y123311D01*
X408888Y123313D01*
X409044Y123554D01*
X409195Y123787D01*
X409196Y123789D01*
X409197Y123791D01*
X409316Y124049D01*
X409435Y124303D01*
X409436Y124306D01*
X409437Y124308D01*
X409517Y124576D01*
X409600Y124849D01*
X409600Y124851D01*
X409601Y124854D01*
X409645Y125140D01*
X409687Y125412D01*
X409687Y125414D01*
X409688Y125417D01*
X409691Y125705D01*
X409695Y125981D01*
X409695Y125984D01*
X409695Y125987D01*
X409660Y126257D01*
X409623Y126547D01*
X409622Y126549D01*
X409622Y126552D01*
X409618Y126564D01*
X409472Y127096D01*
X409417Y127225D01*
X409392Y127306D01*
X408939Y128400D01*
X408939Y144650D01*
X409326Y145584D01*
X410041Y146299D01*
X411305Y146823D01*
X411409Y146845D01*
X411549Y146896D01*
X411692Y146938D01*
X411816Y146994D01*
X411944Y147041D01*
X412076Y147111D01*
X412211Y147172D01*
X412326Y147245D01*
X412446Y147309D01*
X412567Y147397D01*
X412693Y147477D01*
X412796Y147566D01*
X412906Y147646D01*
X413013Y147750D01*
X413127Y147847D01*
X413217Y147948D01*
X413314Y148043D01*
X413406Y148161D01*
X413505Y148273D01*
X413580Y148386D01*
X413663Y148494D01*
X413737Y148624D01*
X413820Y148748D01*
X413878Y148870D01*
X413945Y148989D01*
X414001Y149128D01*
X414065Y149262D01*
X414105Y149392D01*
X414156Y149518D01*
X414191Y149664D01*
X414235Y149806D01*
X414258Y149940D01*
X414290Y150072D01*
X414304Y150221D01*
X414329Y150368D01*
X414332Y150504D01*
X414345Y150639D01*
X414339Y150789D01*
X414342Y150938D01*
X414326Y151073D01*
X414320Y151209D01*
X414293Y151355D01*
X414276Y151504D01*
X414241Y151635D01*
X414216Y151769D01*
X414169Y151910D01*
X414131Y152055D01*
X414078Y152180D01*
X414035Y152309D01*
X413968Y152442D01*
X413911Y152580D01*
X413841Y152697D01*
X413780Y152818D01*
X413695Y152941D01*
X413619Y153069D01*
X413534Y153175D01*
X413456Y153287D01*
X413355Y153397D01*
X413261Y153513D01*
X413187Y153579D01*
X413070Y153706D01*
X412734Y153981D01*
X412671Y154036D01*
X412481Y154175D01*
X411350Y155306D01*
X410410Y156600D01*
X409767Y157862D01*
X419100Y157862D01*
X428433Y157862D01*
X427790Y156600D01*
X426850Y155306D01*
X425719Y154175D01*
X425529Y154036D01*
X425414Y153940D01*
X425294Y153852D01*
X425196Y153757D01*
X425092Y153670D01*
X424993Y153559D01*
X424886Y153455D01*
X424802Y153347D01*
X424711Y153246D01*
X424628Y153122D01*
X424537Y153004D01*
X424469Y152886D01*
X424394Y152773D01*
X424329Y152639D01*
X424255Y152509D01*
X424204Y152382D01*
X424145Y152260D01*
X424100Y152119D01*
X424044Y151980D01*
X424012Y151847D01*
X423971Y151718D01*
X423945Y151571D01*
X423910Y151426D01*
X423897Y151290D01*
X423874Y151156D01*
X423870Y151007D01*
X423855Y150859D01*
X423861Y150723D01*
X423857Y150587D01*
X423873Y150439D01*
X423880Y150289D01*
X423904Y150155D01*
X423919Y150021D01*
X423956Y149876D01*
X423984Y149729D01*
X424027Y149600D01*
X424061Y149469D01*
X424117Y149331D01*
X424165Y149189D01*
X424226Y149067D01*
X424278Y148942D01*
X424353Y148813D01*
X424420Y148680D01*
X424497Y148568D01*
X424566Y148450D01*
X424659Y148333D01*
X424744Y148211D01*
X424836Y148111D01*
X424921Y148004D01*
X425029Y147902D01*
X425130Y147792D01*
X425235Y147706D01*
X425334Y147612D01*
X425456Y147526D01*
X425571Y147431D01*
X425687Y147361D01*
X425798Y147282D01*
X425931Y147213D01*
X426058Y147136D01*
X426183Y147082D01*
X426304Y147019D01*
X426445Y146970D01*
X426582Y146911D01*
X426713Y146876D01*
X426842Y146831D01*
X426908Y146817D01*
X428159Y146299D01*
X428874Y145584D01*
X429261Y144650D01*
X429261Y129286D01*
X429277Y129057D01*
X429287Y128826D01*
X429297Y128772D01*
X429301Y128718D01*
X429349Y128492D01*
X429391Y128266D01*
X429408Y128214D01*
X429420Y128160D01*
X429499Y127944D01*
X429572Y127726D01*
X429597Y127677D01*
X429616Y127625D01*
X429724Y127422D01*
X429827Y127217D01*
X429858Y127171D01*
X429884Y127123D01*
X430020Y126937D01*
X430151Y126748D01*
X430188Y126707D01*
X430221Y126663D01*
X430381Y126498D01*
X430537Y126329D01*
X430580Y126294D01*
X430618Y126255D01*
X430800Y126114D01*
X430978Y125968D01*
X431026Y125940D01*
X431069Y125906D01*
X431269Y125792D01*
X431466Y125673D01*
X431516Y125651D01*
X431564Y125624D01*
X431778Y125539D01*
X431989Y125448D01*
X432042Y125434D01*
X432093Y125414D01*
X432318Y125359D01*
X432539Y125299D01*
X432583Y125295D01*
X432647Y125279D01*
X433214Y125224D01*
X433280Y125227D01*
X433324Y125223D01*
X459973Y125223D01*
X460033Y125227D01*
X460093Y125225D01*
X460317Y125247D01*
X460541Y125263D01*
X460600Y125275D01*
X460660Y125281D01*
X460879Y125335D01*
X461098Y125382D01*
X461155Y125402D01*
X461214Y125417D01*
X461423Y125500D01*
X461634Y125578D01*
X461687Y125606D01*
X461743Y125628D01*
X461938Y125740D01*
X462136Y125846D01*
X462185Y125882D01*
X462237Y125912D01*
X462328Y125987D01*
X462596Y126183D01*
X462757Y126340D01*
X462846Y126413D01*
X469217Y132784D01*
X469257Y132830D01*
X469301Y132870D01*
X469443Y133044D01*
X469591Y133214D01*
X469624Y133265D01*
X469662Y133312D01*
X469778Y133504D01*
X469901Y133692D01*
X469926Y133747D01*
X469957Y133799D01*
X470046Y134005D01*
X470141Y134209D01*
X470158Y134267D01*
X470182Y134322D01*
X470240Y134539D01*
X470306Y134754D01*
X470315Y134814D01*
X470331Y134872D01*
X470342Y134989D01*
X470393Y135318D01*
X470396Y135542D01*
X470407Y135657D01*
X470407Y154556D01*
X470794Y155490D01*
X471509Y156205D01*
X472443Y156592D01*
X480057Y156592D01*
X481045Y156183D01*
X481102Y156164D01*
X481157Y156138D01*
X481373Y156073D01*
X481585Y156002D01*
X481645Y155991D01*
X481703Y155974D01*
X481925Y155939D01*
X482146Y155899D01*
X482206Y155896D01*
X482266Y155887D01*
X482491Y155884D01*
X482715Y155875D01*
X482775Y155881D01*
X482836Y155880D01*
X483058Y155909D01*
X483282Y155931D01*
X483341Y155945D01*
X483401Y155953D01*
X483513Y155987D01*
X483836Y156066D01*
X484045Y156149D01*
X484155Y156183D01*
X485143Y156592D01*
X492757Y156592D01*
X493745Y156183D01*
X493802Y156164D01*
X493857Y156138D01*
X494072Y156073D01*
X494285Y156002D01*
X494345Y155991D01*
X494403Y155974D01*
X494625Y155939D01*
X494846Y155899D01*
X494906Y155896D01*
X494966Y155887D01*
X495191Y155884D01*
X495415Y155875D01*
X495475Y155881D01*
X495536Y155880D01*
X495758Y155909D01*
X495982Y155931D01*
X496041Y155945D01*
X496101Y155953D01*
X496213Y155987D01*
X496536Y156066D01*
X496745Y156149D01*
X496855Y156183D01*
X497843Y156592D01*
X502457Y156592D01*
X502572Y156600D01*
X502687Y156598D01*
X502856Y156620D01*
X503025Y156632D01*
X503138Y156656D01*
X503252Y156670D01*
X503417Y156715D01*
X503582Y156751D01*
X503690Y156790D01*
X503802Y156821D01*
X503958Y156888D01*
X504118Y156947D01*
X504219Y157001D01*
X504325Y157047D01*
X504470Y157135D01*
X504620Y157215D01*
X504713Y157283D01*
X504811Y157343D01*
X504943Y157451D01*
X505080Y157552D01*
X505162Y157632D01*
X505251Y157705D01*
X505366Y157830D01*
X505488Y157949D01*
X505559Y158040D01*
X505637Y158125D01*
X505733Y158265D01*
X505837Y158400D01*
X505894Y158500D01*
X505959Y158595D01*
X506035Y158747D01*
X506119Y158895D01*
X506162Y159002D01*
X506213Y159105D01*
X506267Y159266D01*
X506329Y159424D01*
X506356Y159537D01*
X506393Y159646D01*
X506423Y159813D01*
X506463Y159978D01*
X506475Y160093D01*
X506495Y160206D01*
X506502Y160376D01*
X506519Y160545D01*
X506514Y160660D01*
X506518Y160776D01*
X506501Y160945D01*
X506494Y161115D01*
X506473Y161228D01*
X506462Y161342D01*
X506421Y161508D01*
X506390Y161675D01*
X506353Y161784D01*
X506326Y161896D01*
X506263Y162054D01*
X506209Y162215D01*
X506157Y162318D01*
X506114Y162425D01*
X506030Y162572D01*
X505954Y162724D01*
X505888Y162819D01*
X505831Y162919D01*
X505758Y163008D01*
X505630Y163193D01*
X505405Y163437D01*
X505330Y163528D01*
X484212Y184646D01*
X483361Y186700D01*
X483361Y188595D01*
X483345Y188824D01*
X483335Y189055D01*
X483325Y189109D01*
X483321Y189163D01*
X483273Y189389D01*
X483231Y189615D01*
X483214Y189667D01*
X483202Y189721D01*
X483123Y189937D01*
X483050Y190155D01*
X483025Y190204D01*
X483006Y190256D01*
X482898Y190459D01*
X482795Y190664D01*
X482764Y190710D01*
X482738Y190758D01*
X482602Y190944D01*
X482471Y191133D01*
X482434Y191174D01*
X482401Y191218D01*
X482241Y191383D01*
X482085Y191552D01*
X482042Y191587D01*
X482004Y191626D01*
X481822Y191767D01*
X481644Y191913D01*
X481596Y191941D01*
X481553Y191975D01*
X481353Y192089D01*
X481156Y192208D01*
X481106Y192230D01*
X481058Y192257D01*
X480844Y192342D01*
X480633Y192433D01*
X480580Y192447D01*
X480529Y192467D01*
X480304Y192522D01*
X480083Y192582D01*
X480039Y192586D01*
X479975Y192602D01*
X479408Y192657D01*
X479342Y192654D01*
X479298Y192658D01*
X473202Y192658D01*
X472973Y192642D01*
X472742Y192632D01*
X472688Y192622D01*
X472634Y192618D01*
X472408Y192570D01*
X472182Y192528D01*
X472130Y192511D01*
X472076Y192499D01*
X471860Y192420D01*
X471642Y192347D01*
X471593Y192322D01*
X471541Y192303D01*
X471338Y192195D01*
X471133Y192092D01*
X471087Y192061D01*
X471039Y192035D01*
X470853Y191899D01*
X470664Y191768D01*
X470623Y191731D01*
X470579Y191698D01*
X470414Y191538D01*
X470245Y191382D01*
X470210Y191339D01*
X470171Y191301D01*
X470030Y191119D01*
X469884Y190941D01*
X469856Y190893D01*
X469822Y190850D01*
X469708Y190650D01*
X469589Y190453D01*
X469567Y190403D01*
X469540Y190355D01*
X469455Y190141D01*
X469364Y189930D01*
X469350Y189877D01*
X469330Y189826D01*
X469275Y189601D01*
X469215Y189380D01*
X469211Y189336D01*
X469195Y189272D01*
X469140Y188705D01*
X469143Y188639D01*
X469139Y188595D01*
X469139Y171449D01*
X469147Y171331D01*
X469146Y171214D01*
X469167Y171048D01*
X469179Y170881D01*
X469203Y170765D01*
X469218Y170649D01*
X469252Y170539D01*
X469298Y170324D01*
X469414Y170005D01*
X469448Y169894D01*
X469619Y169482D01*
X469619Y167068D01*
X468695Y164837D01*
X466988Y163130D01*
X464757Y162206D01*
X462343Y162206D01*
X460112Y163130D01*
X458405Y164837D01*
X457481Y167068D01*
X457481Y169482D01*
X457652Y169894D01*
X457689Y170006D01*
X457736Y170115D01*
X457780Y170276D01*
X457833Y170435D01*
X457854Y170551D01*
X457885Y170664D01*
X457896Y170778D01*
X457936Y170995D01*
X457950Y171333D01*
X457961Y171449D01*
X457961Y193771D01*
X458812Y195825D01*
X469217Y206230D01*
X469257Y206275D01*
X469301Y206316D01*
X469443Y206490D01*
X469591Y206660D01*
X469624Y206711D01*
X469662Y206757D01*
X469779Y206950D01*
X469901Y207138D01*
X469926Y207193D01*
X469957Y207245D01*
X470046Y207451D01*
X470141Y207655D01*
X470158Y207713D01*
X470182Y207768D01*
X470240Y207985D01*
X470306Y208200D01*
X470315Y208260D01*
X470331Y208318D01*
X470342Y208435D01*
X470393Y208763D01*
X470396Y208988D01*
X470407Y209103D01*
X470407Y216024D01*
X470742Y216834D01*
X470761Y216888D01*
X470785Y216941D01*
X470851Y217158D01*
X470923Y217374D01*
X470934Y217431D01*
X470950Y217486D01*
X470955Y217518D01*
X470991Y217529D01*
X471319Y217609D01*
X471524Y217691D01*
X471633Y217725D01*
X472443Y218060D01*
X480057Y218060D01*
X481045Y217651D01*
X481102Y217632D01*
X481157Y217606D01*
X481372Y217541D01*
X481585Y217470D01*
X481645Y217459D01*
X481703Y217442D01*
X481925Y217407D01*
X482146Y217367D01*
X482206Y217364D01*
X482266Y217355D01*
X482491Y217352D01*
X482715Y217343D01*
X482775Y217349D01*
X482836Y217348D01*
X483058Y217377D01*
X483282Y217399D01*
X483341Y217413D01*
X483401Y217421D01*
X483513Y217455D01*
X483836Y217534D01*
X484045Y217617D01*
X484155Y217651D01*
X485143Y218060D01*
X492757Y218060D01*
X493745Y217651D01*
X493802Y217632D01*
X493857Y217606D01*
X494072Y217541D01*
X494285Y217470D01*
X494345Y217459D01*
X494403Y217442D01*
X494625Y217407D01*
X494846Y217367D01*
X494906Y217364D01*
X494966Y217355D01*
X495191Y217352D01*
X495415Y217343D01*
X495475Y217349D01*
X495536Y217348D01*
X495758Y217377D01*
X495982Y217399D01*
X496041Y217413D01*
X496101Y217421D01*
X496213Y217455D01*
X496536Y217534D01*
X496745Y217617D01*
X496855Y217651D01*
X497843Y218060D01*
X505457Y218060D01*
X506445Y217651D01*
X506502Y217632D01*
X506557Y217606D01*
X506772Y217541D01*
X506985Y217470D01*
X507045Y217459D01*
X507103Y217442D01*
X507325Y217407D01*
X507546Y217367D01*
X507606Y217364D01*
X507666Y217355D01*
X507891Y217352D01*
X508115Y217343D01*
X508175Y217349D01*
X508236Y217348D01*
X508458Y217377D01*
X508682Y217399D01*
X508741Y217413D01*
X508801Y217421D01*
X508913Y217455D01*
X509236Y217534D01*
X509445Y217617D01*
X509555Y217651D01*
X510543Y218060D01*
X518157Y218060D01*
X519145Y217651D01*
X519202Y217632D01*
X519257Y217606D01*
X519472Y217541D01*
X519685Y217470D01*
X519745Y217459D01*
X519803Y217442D01*
X520025Y217407D01*
X520246Y217367D01*
X520306Y217364D01*
X520366Y217355D01*
X520591Y217352D01*
X520815Y217343D01*
X520875Y217349D01*
X520936Y217348D01*
X521158Y217377D01*
X521382Y217399D01*
X521441Y217413D01*
X521501Y217421D01*
X521613Y217455D01*
X521936Y217534D01*
X522145Y217617D01*
X522255Y217651D01*
X523243Y218060D01*
X530857Y218060D01*
X531845Y217651D01*
X531902Y217632D01*
X531957Y217606D01*
X532172Y217541D01*
X532385Y217470D01*
X532445Y217459D01*
X532503Y217442D01*
X532725Y217407D01*
X532946Y217367D01*
X533006Y217364D01*
X533066Y217355D01*
X533291Y217352D01*
X533515Y217343D01*
X533575Y217349D01*
X533636Y217348D01*
X533858Y217377D01*
X534082Y217399D01*
X534141Y217413D01*
X534201Y217421D01*
X534313Y217455D01*
X534636Y217534D01*
X534845Y217617D01*
X534955Y217651D01*
X535943Y218060D01*
X543557Y218060D01*
X544545Y217651D01*
X544602Y217632D01*
X544657Y217606D01*
X544872Y217541D01*
X545085Y217470D01*
X545145Y217459D01*
X545203Y217442D01*
X545425Y217407D01*
X545646Y217367D01*
X545706Y217364D01*
X545766Y217355D01*
X545991Y217352D01*
X546215Y217343D01*
X546275Y217349D01*
X546336Y217348D01*
X546558Y217377D01*
X546782Y217399D01*
X546841Y217413D01*
X546901Y217421D01*
X547013Y217455D01*
X547336Y217534D01*
X547545Y217617D01*
X547655Y217651D01*
X548643Y218060D01*
X556257Y218060D01*
X557245Y217651D01*
X557302Y217632D01*
X557357Y217606D01*
X557572Y217541D01*
X557785Y217470D01*
X557845Y217459D01*
X557903Y217442D01*
X558125Y217407D01*
X558346Y217367D01*
X558406Y217364D01*
X558466Y217355D01*
X558691Y217352D01*
X558915Y217343D01*
X558975Y217349D01*
X559036Y217348D01*
X559258Y217377D01*
X559482Y217399D01*
X559541Y217413D01*
X559601Y217421D01*
X559713Y217455D01*
X560036Y217534D01*
X560245Y217617D01*
X560355Y217651D01*
X561087Y217954D01*
X561087Y205359D01*
X561103Y205130D01*
X561113Y204900D01*
X561123Y204846D01*
X561127Y204791D01*
X561175Y204566D01*
X561217Y204340D01*
X561234Y204287D01*
X561246Y204234D01*
X561325Y204018D01*
X561398Y203799D01*
X561423Y203750D01*
X561441Y203699D01*
X561550Y203496D01*
X561653Y203290D01*
X561684Y203245D01*
X561710Y203196D01*
X561846Y203011D01*
X561977Y202821D01*
X562014Y202781D01*
X562047Y202736D01*
X562207Y202572D01*
X562363Y202402D01*
X562364Y202402D01*
X562406Y202367D01*
X562444Y202328D01*
X562445Y202328D01*
X562626Y202187D01*
X562805Y202041D01*
X562852Y202012D01*
X562895Y201979D01*
X563095Y201865D01*
X563292Y201745D01*
X563342Y201724D01*
X563390Y201697D01*
X563605Y201611D01*
X563816Y201521D01*
X563868Y201507D01*
X563920Y201486D01*
X564144Y201432D01*
X564366Y201372D01*
X564410Y201368D01*
X564474Y201352D01*
X565041Y201297D01*
X565106Y201300D01*
X565150Y201296D01*
X570993Y201296D01*
X570993Y196977D01*
X571009Y196748D01*
X571019Y196517D01*
X571029Y196463D01*
X571033Y196409D01*
X571081Y196183D01*
X571123Y195957D01*
X571140Y195905D01*
X571152Y195851D01*
X571231Y195635D01*
X571304Y195417D01*
X571329Y195368D01*
X571348Y195316D01*
X571456Y195113D01*
X571559Y194908D01*
X571590Y194862D01*
X571616Y194814D01*
X571752Y194628D01*
X571883Y194439D01*
X571920Y194398D01*
X571953Y194354D01*
X572113Y194189D01*
X572269Y194020D01*
X572312Y193985D01*
X572350Y193946D01*
X572532Y193805D01*
X572710Y193659D01*
X572758Y193631D01*
X572801Y193597D01*
X573001Y193483D01*
X573198Y193364D01*
X573248Y193342D01*
X573296Y193315D01*
X573510Y193230D01*
X573721Y193139D01*
X573774Y193125D01*
X573825Y193105D01*
X574050Y193050D01*
X574271Y192990D01*
X574315Y192986D01*
X574379Y192970D01*
X574946Y192915D01*
X575012Y192918D01*
X575056Y192914D01*
X578580Y192914D01*
X578640Y192918D01*
X578700Y192916D01*
X578924Y192938D01*
X579148Y192954D01*
X579207Y192966D01*
X579267Y192972D01*
X579486Y193026D01*
X579705Y193073D01*
X579762Y193093D01*
X579821Y193108D01*
X580029Y193191D01*
X580240Y193269D01*
X580294Y193297D01*
X580350Y193319D01*
X580545Y193431D01*
X580743Y193537D01*
X580791Y193573D01*
X580844Y193603D01*
X580935Y193678D01*
X581203Y193874D01*
X581364Y194031D01*
X581453Y194104D01*
X581996Y194647D01*
X585170Y195962D01*
X588606Y195962D01*
X591780Y194647D01*
X613747Y172680D01*
X615062Y169506D01*
X615062Y132986D01*
X615066Y132925D01*
X615064Y132865D01*
X615086Y132642D01*
X615102Y132417D01*
X615114Y132358D01*
X615120Y132298D01*
X615174Y132080D01*
X615221Y131860D01*
X615241Y131803D01*
X615256Y131745D01*
X615339Y131536D01*
X615417Y131325D01*
X615445Y131272D01*
X615467Y131216D01*
X615579Y131021D01*
X615685Y130822D01*
X615721Y130774D01*
X615751Y130721D01*
X615826Y130630D01*
X616022Y130363D01*
X616179Y130201D01*
X616252Y130112D01*
X627608Y118756D01*
X627654Y118716D01*
X627695Y118672D01*
X627869Y118530D01*
X628039Y118382D01*
X628089Y118349D01*
X628136Y118311D01*
X628328Y118194D01*
X628517Y118072D01*
X628572Y118047D01*
X628623Y118016D01*
X628829Y117927D01*
X629034Y117832D01*
X629091Y117815D01*
X629147Y117791D01*
X629364Y117733D01*
X629579Y117667D01*
X629639Y117658D01*
X629697Y117642D01*
X629814Y117631D01*
X630142Y117580D01*
X630367Y117577D01*
X630482Y117566D01*
X646030Y117566D01*
X646964Y117179D01*
X647679Y116464D01*
X648066Y115530D01*
X648066Y115132D01*
X648070Y115071D01*
X648068Y115011D01*
X648090Y114788D01*
X648106Y114563D01*
X648118Y114504D01*
X648124Y114444D01*
X648178Y114226D01*
X648225Y114006D01*
X648245Y113949D01*
X648260Y113891D01*
X648343Y113682D01*
X648421Y113471D01*
X648449Y113418D01*
X648471Y113362D01*
X648583Y113167D01*
X648689Y112968D01*
X648725Y112920D01*
X648755Y112867D01*
X648830Y112776D01*
X649026Y112509D01*
X649183Y112347D01*
X649256Y112258D01*
X657140Y104374D01*
X657150Y104365D01*
X657159Y104355D01*
X657365Y104179D01*
X657570Y104000D01*
X657582Y103993D01*
X657592Y103984D01*
X657819Y103839D01*
X658049Y103690D01*
X658061Y103685D01*
X658072Y103678D01*
X658318Y103566D01*
X658565Y103451D01*
X658578Y103447D01*
X658590Y103441D01*
X658851Y103364D01*
X659111Y103285D01*
X659124Y103283D01*
X659136Y103280D01*
X659406Y103240D01*
X659674Y103198D01*
X659687Y103198D01*
X659700Y103196D01*
X659974Y103194D01*
X660244Y103190D01*
X660257Y103192D01*
X660270Y103192D01*
X660540Y103228D01*
X660809Y103262D01*
X660822Y103266D01*
X660835Y103268D01*
X661095Y103341D01*
X661358Y103413D01*
X661371Y103418D01*
X661383Y103422D01*
X661631Y103531D01*
X661881Y103639D01*
X661893Y103646D01*
X661905Y103651D01*
X662135Y103794D01*
X662368Y103935D01*
X662378Y103944D01*
X662389Y103951D01*
X662598Y104125D01*
X662808Y104297D01*
X662817Y104307D01*
X662827Y104316D01*
X663010Y104518D01*
X663193Y104717D01*
X663200Y104728D01*
X663209Y104738D01*
X663238Y104783D01*
X663516Y105187D01*
X663584Y105325D01*
X663634Y105402D01*
X664410Y106925D01*
X665350Y108219D01*
X666481Y109350D01*
X667775Y110290D01*
X669037Y110933D01*
X669037Y101600D01*
X669053Y101371D01*
X669063Y101141D01*
X669073Y101087D01*
X669077Y101032D01*
X669125Y100807D01*
X669167Y100581D01*
X669184Y100528D01*
X669196Y100475D01*
X669275Y100259D01*
X669348Y100040D01*
X669373Y99991D01*
X669391Y99940D01*
X669500Y99737D01*
X669603Y99531D01*
X669634Y99486D01*
X669660Y99437D01*
X669796Y99252D01*
X669927Y99062D01*
X669964Y99022D01*
X669997Y98977D01*
X670157Y98813D01*
X670313Y98643D01*
X670314Y98643D01*
X670356Y98608D01*
X670394Y98569D01*
X670395Y98569D01*
X670576Y98428D01*
X670755Y98282D01*
X670802Y98253D01*
X670845Y98220D01*
X671045Y98106D01*
X671242Y97986D01*
X671292Y97965D01*
X671340Y97938D01*
X671555Y97852D01*
X671766Y97762D01*
X671818Y97748D01*
X671870Y97727D01*
X672094Y97673D01*
X672316Y97613D01*
X672360Y97609D01*
X672424Y97593D01*
X672991Y97538D01*
X673056Y97541D01*
X673100Y97537D01*
X682433Y97537D01*
X681790Y96275D01*
X680850Y94981D01*
X679719Y93850D01*
X678425Y92910D01*
X677707Y92544D01*
X677502Y92420D01*
X677292Y92300D01*
X677257Y92273D01*
X677219Y92250D01*
X677032Y92099D01*
X676842Y91951D01*
X676811Y91919D01*
X676777Y91891D01*
X676613Y91715D01*
X676445Y91542D01*
X676419Y91506D01*
X676389Y91474D01*
X676251Y91276D01*
X676109Y91082D01*
X676088Y91043D01*
X676063Y91006D01*
X675954Y90791D01*
X675841Y90579D01*
X675826Y90537D01*
X675806Y90498D01*
X675729Y90270D01*
X675646Y90044D01*
X675637Y90000D01*
X675623Y89958D01*
X675578Y89722D01*
X675528Y89486D01*
X675525Y89442D01*
X675516Y89398D01*
X675505Y89158D01*
X675489Y88918D01*
X675492Y88874D01*
X675490Y88829D01*
X675512Y88590D01*
X675529Y88350D01*
X675539Y88306D01*
X675543Y88262D01*
X675599Y88028D01*
X675649Y87793D01*
X675664Y87751D01*
X675675Y87708D01*
X675763Y87483D01*
X675846Y87258D01*
X675867Y87219D01*
X675883Y87177D01*
X676001Y86968D01*
X676115Y86756D01*
X676141Y86720D01*
X676163Y86681D01*
X676310Y86490D01*
X676452Y86296D01*
X676483Y86265D01*
X676510Y86229D01*
X676683Y86060D01*
X676850Y85889D01*
X676885Y85861D01*
X676917Y85830D01*
X677111Y85687D01*
X677301Y85540D01*
X677333Y85523D01*
X677376Y85492D01*
X677877Y85221D01*
X677951Y85194D01*
X677997Y85169D01*
X678856Y84814D01*
X681714Y81956D01*
X683261Y78221D01*
X683261Y74179D01*
X681714Y70444D01*
X678856Y67586D01*
X675121Y66039D01*
X671079Y66039D01*
X667344Y67586D01*
X664486Y70444D01*
X663271Y73377D01*
X663219Y73482D01*
X663175Y73592D01*
X663092Y73737D01*
X663017Y73887D01*
X662950Y73984D01*
X662891Y74086D01*
X662819Y74175D01*
X662694Y74356D01*
X662465Y74605D01*
X662391Y74695D01*
X638492Y98594D01*
X638446Y98634D01*
X638405Y98678D01*
X638231Y98820D01*
X638061Y98968D01*
X638011Y99001D01*
X637964Y99039D01*
X637772Y99156D01*
X637583Y99278D01*
X637529Y99303D01*
X637477Y99334D01*
X637270Y99423D01*
X637066Y99518D01*
X637009Y99535D01*
X636953Y99559D01*
X636736Y99618D01*
X636521Y99683D01*
X636461Y99692D01*
X636403Y99708D01*
X636286Y99719D01*
X635958Y99770D01*
X635733Y99773D01*
X635618Y99784D01*
X630299Y99784D01*
X630233Y99813D01*
X630072Y99856D01*
X629913Y99910D01*
X629797Y99931D01*
X629683Y99962D01*
X629569Y99973D01*
X629352Y100013D01*
X629014Y100027D01*
X628898Y100038D01*
X623757Y100038D01*
X620583Y101353D01*
X604716Y117220D01*
X604629Y117296D01*
X604548Y117378D01*
X604414Y117482D01*
X604285Y117594D01*
X604189Y117657D01*
X604098Y117727D01*
X603950Y117811D01*
X603807Y117904D01*
X603703Y117952D01*
X603603Y118009D01*
X603444Y118072D01*
X603290Y118144D01*
X603180Y118177D01*
X603073Y118220D01*
X602908Y118260D01*
X602745Y118309D01*
X602631Y118326D01*
X602519Y118354D01*
X602350Y118370D01*
X602182Y118396D01*
X602067Y118398D01*
X601952Y118409D01*
X601782Y118402D01*
X601612Y118404D01*
X601498Y118389D01*
X601383Y118384D01*
X601216Y118353D01*
X601047Y118332D01*
X600936Y118301D01*
X600823Y118280D01*
X600662Y118226D01*
X600497Y118181D01*
X600392Y118136D01*
X600282Y118099D01*
X600130Y118023D01*
X599974Y117955D01*
X599876Y117895D01*
X599773Y117844D01*
X599633Y117747D01*
X599488Y117659D01*
X599399Y117586D01*
X599304Y117520D01*
X599179Y117405D01*
X599048Y117297D01*
X598970Y117212D01*
X598885Y117134D01*
X598778Y117002D01*
X598663Y116877D01*
X598598Y116782D01*
X598525Y116693D01*
X598436Y116547D01*
X598340Y116407D01*
X598289Y116304D01*
X598229Y116206D01*
X598162Y116049D01*
X598086Y115897D01*
X598050Y115788D01*
X598005Y115682D01*
X597960Y115518D01*
X597907Y115356D01*
X597886Y115243D01*
X597856Y115132D01*
X597845Y115017D01*
X597804Y114796D01*
X597791Y114464D01*
X597779Y114347D01*
X597779Y112627D01*
X596928Y110573D01*
X537370Y51015D01*
X535316Y50164D01*
X407150Y50164D01*
X407147Y50164D01*
X407144Y50164D01*
X406868Y50144D01*
X406581Y50124D01*
X406578Y50124D01*
X406576Y50124D01*
X406304Y50065D01*
X406024Y50005D01*
X406021Y50004D01*
X406019Y50004D01*
X405762Y49909D01*
X405489Y49809D01*
X405486Y49808D01*
X405484Y49807D01*
X405250Y49682D01*
X404986Y49541D01*
X404984Y49539D01*
X404982Y49538D01*
X404744Y49363D01*
X404527Y49204D01*
X404525Y49202D01*
X404522Y49201D01*
X404310Y48993D01*
X404118Y48807D01*
X404117Y48805D01*
X404115Y48803D01*
X403934Y48568D01*
X403770Y48356D01*
X403768Y48354D01*
X403767Y48352D01*
X403760Y48339D01*
X403487Y47861D01*
X403436Y47731D01*
X403396Y47656D01*
X402314Y45044D01*
X399456Y42186D01*
X398597Y41831D01*
X398560Y41812D01*
X398531Y41802D01*
X398426Y41745D01*
X398381Y41723D01*
X398164Y41620D01*
X398127Y41596D01*
X398087Y41576D01*
X397889Y41440D01*
X397688Y41307D01*
X397654Y41278D01*
X397618Y41253D01*
X397441Y41090D01*
X397260Y40931D01*
X397231Y40897D01*
X397199Y40867D01*
X397045Y40681D01*
X396889Y40498D01*
X396865Y40461D01*
X396837Y40427D01*
X396712Y40221D01*
X396583Y40018D01*
X396564Y39978D01*
X396541Y39940D01*
X396446Y39719D01*
X396346Y39500D01*
X396334Y39457D01*
X396316Y39416D01*
X396253Y39184D01*
X396184Y38953D01*
X396178Y38909D01*
X396166Y38867D01*
X396136Y38628D01*
X396101Y38390D01*
X396100Y38345D01*
X396095Y38301D01*
X396098Y38061D01*
X396097Y37820D01*
X396103Y37776D01*
X396103Y37732D01*
X396141Y37493D01*
X396172Y37255D01*
X396184Y37213D01*
X396191Y37169D01*
X396261Y36938D01*
X396326Y36707D01*
X396344Y36666D01*
X396357Y36624D01*
X396459Y36406D01*
X396556Y36185D01*
X396579Y36147D01*
X396598Y36107D01*
X396729Y35905D01*
X396856Y35701D01*
X396884Y35667D01*
X396908Y35629D01*
X397067Y35448D01*
X397220Y35263D01*
X397253Y35233D01*
X397283Y35200D01*
X397465Y35042D01*
X397643Y34881D01*
X397673Y34861D01*
X397713Y34826D01*
X398192Y34517D01*
X398263Y34484D01*
X398307Y34456D01*
X399025Y34090D01*
X400319Y33150D01*
X401450Y32019D01*
X402390Y30725D01*
X403033Y29463D01*
X393700Y29463D01*
X393700Y29463D01*
G37*
%LPD*%
G36*
X433159Y244215D02*
X433159Y244215D01*
X433271Y244217D01*
X433441Y244243D01*
X433613Y244261D01*
X433723Y244288D01*
X433834Y244305D01*
X433999Y244355D01*
X434167Y244396D01*
X434271Y244438D01*
X434379Y244471D01*
X434535Y244544D01*
X434696Y244608D01*
X434794Y244664D01*
X434895Y244711D01*
X435040Y244805D01*
X435190Y244891D01*
X435256Y244946D01*
X435373Y245022D01*
X435788Y245383D01*
X435799Y245392D01*
X459178Y268771D01*
X461232Y269622D01*
X501360Y269622D01*
X501420Y269626D01*
X501481Y269624D01*
X501704Y269646D01*
X501928Y269662D01*
X501988Y269674D01*
X502048Y269680D01*
X502266Y269734D01*
X502486Y269781D01*
X502542Y269801D01*
X502601Y269816D01*
X502810Y269899D01*
X503021Y269977D01*
X503074Y270005D01*
X503130Y270027D01*
X503325Y270139D01*
X503523Y270245D01*
X503572Y270281D01*
X503624Y270311D01*
X503715Y270386D01*
X503983Y270582D01*
X504144Y270739D01*
X504233Y270812D01*
X522980Y289558D01*
X523018Y289602D01*
X523060Y289641D01*
X523204Y289817D01*
X523353Y289989D01*
X523385Y290037D01*
X523421Y290082D01*
X523540Y290276D01*
X523663Y290467D01*
X523687Y290519D01*
X523717Y290568D01*
X523807Y290777D01*
X523903Y290984D01*
X523920Y291039D01*
X523943Y291092D01*
X524002Y291311D01*
X524068Y291529D01*
X524077Y291586D01*
X524092Y291641D01*
X524121Y291867D01*
X524156Y292092D01*
X524156Y292150D01*
X524164Y292207D01*
X524160Y292434D01*
X524163Y292662D01*
X524156Y292719D01*
X524155Y292777D01*
X524120Y293001D01*
X524091Y293227D01*
X524076Y293283D01*
X524067Y293339D01*
X524001Y293557D01*
X523941Y293776D01*
X523918Y293829D01*
X523901Y293885D01*
X523805Y294091D01*
X523715Y294300D01*
X523685Y294349D01*
X523661Y294401D01*
X523537Y294592D01*
X523418Y294786D01*
X523382Y294831D01*
X523350Y294879D01*
X523201Y295050D01*
X523056Y295226D01*
X523014Y295265D01*
X522976Y295309D01*
X522804Y295457D01*
X522636Y295611D01*
X522589Y295644D01*
X522545Y295682D01*
X522354Y295805D01*
X522167Y295934D01*
X522115Y295959D01*
X522067Y295991D01*
X521860Y296086D01*
X521657Y296188D01*
X521602Y296206D01*
X521549Y296230D01*
X521332Y296296D01*
X521116Y296367D01*
X521059Y296378D01*
X521004Y296394D01*
X520779Y296429D01*
X520555Y296470D01*
X520498Y296472D01*
X520441Y296481D01*
X520214Y296484D01*
X519986Y296493D01*
X519929Y296487D01*
X519871Y296488D01*
X519646Y296459D01*
X519419Y296436D01*
X519363Y296422D01*
X519306Y296415D01*
X519194Y296381D01*
X518866Y296301D01*
X518661Y296219D01*
X518552Y296185D01*
X516872Y295490D01*
X509063Y295490D01*
X509061Y295490D01*
X509058Y295490D01*
X508784Y295470D01*
X508495Y295450D01*
X508492Y295449D01*
X508490Y295449D01*
X508211Y295389D01*
X507938Y295331D01*
X507935Y295330D01*
X507933Y295329D01*
X507663Y295230D01*
X507403Y295135D01*
X507400Y295134D01*
X507398Y295133D01*
X507155Y295002D01*
X506900Y294866D01*
X506898Y294865D01*
X506896Y294863D01*
X506656Y294687D01*
X506440Y294530D01*
X506438Y294528D01*
X506436Y294526D01*
X506230Y294325D01*
X506032Y294132D01*
X506030Y294130D01*
X506028Y294128D01*
X505851Y293899D01*
X505683Y293682D01*
X505682Y293679D01*
X505680Y293677D01*
X505674Y293665D01*
X505401Y293187D01*
X505350Y293057D01*
X505309Y292981D01*
X504954Y292123D01*
X504239Y291409D01*
X503305Y291022D01*
X487295Y291022D01*
X486361Y291409D01*
X485473Y292296D01*
X485299Y292447D01*
X485130Y292603D01*
X485084Y292634D01*
X485043Y292670D01*
X484850Y292795D01*
X484660Y292925D01*
X484611Y292950D01*
X484565Y292980D01*
X484356Y293077D01*
X484150Y293179D01*
X484098Y293196D01*
X484048Y293220D01*
X483827Y293287D01*
X483609Y293359D01*
X483555Y293369D01*
X483503Y293385D01*
X483275Y293420D01*
X483049Y293461D01*
X482994Y293464D01*
X482940Y293472D01*
X482710Y293475D01*
X482479Y293485D01*
X482425Y293479D01*
X482370Y293480D01*
X482142Y293451D01*
X481912Y293428D01*
X481859Y293415D01*
X481805Y293408D01*
X481582Y293347D01*
X481359Y293292D01*
X481308Y293272D01*
X481255Y293257D01*
X481043Y293166D01*
X480830Y293081D01*
X480782Y293053D01*
X480732Y293031D01*
X480535Y292911D01*
X480336Y292797D01*
X480302Y292769D01*
X480246Y292735D01*
X479805Y292373D01*
X479761Y292325D01*
X479727Y292296D01*
X478839Y291409D01*
X477905Y291022D01*
X461895Y291022D01*
X460961Y291409D01*
X460246Y292123D01*
X459859Y293057D01*
X459859Y298753D01*
X459855Y298814D01*
X459857Y298874D01*
X459835Y299097D01*
X459819Y299322D01*
X459807Y299381D01*
X459801Y299441D01*
X459747Y299659D01*
X459700Y299879D01*
X459680Y299936D01*
X459665Y299994D01*
X459582Y300203D01*
X459504Y300414D01*
X459476Y300467D01*
X459454Y300523D01*
X459342Y300718D01*
X459236Y300916D01*
X459200Y300965D01*
X459170Y301018D01*
X459095Y301109D01*
X458899Y301376D01*
X458742Y301537D01*
X458669Y301627D01*
X427900Y332396D01*
X427846Y332497D01*
X427745Y332698D01*
X427711Y332748D01*
X427682Y332801D01*
X427549Y332982D01*
X427422Y333167D01*
X427381Y333212D01*
X427345Y333260D01*
X427188Y333421D01*
X427036Y333586D01*
X426990Y333625D01*
X426947Y333668D01*
X426769Y333805D01*
X426596Y333948D01*
X426544Y333979D01*
X426496Y334016D01*
X426392Y334072D01*
X426109Y334244D01*
X426070Y334261D01*
X423186Y337144D01*
X422854Y337946D01*
X422802Y338050D01*
X422760Y338157D01*
X422676Y338304D01*
X422600Y338456D01*
X422534Y338551D01*
X422477Y338651D01*
X422373Y338786D01*
X422276Y338925D01*
X422198Y339010D01*
X422128Y339101D01*
X422005Y339220D01*
X421891Y339345D01*
X421802Y339418D01*
X421719Y339498D01*
X421581Y339599D01*
X421450Y339706D01*
X421352Y339766D01*
X421258Y339834D01*
X421109Y339914D01*
X420963Y340002D01*
X420857Y340048D01*
X420756Y340102D01*
X420596Y340160D01*
X420440Y340227D01*
X420329Y340258D01*
X420220Y340297D01*
X420054Y340332D01*
X419890Y340377D01*
X419776Y340392D01*
X419663Y340416D01*
X419493Y340427D01*
X419325Y340449D01*
X419210Y340447D01*
X419094Y340455D01*
X418925Y340443D01*
X418755Y340440D01*
X418641Y340422D01*
X418526Y340414D01*
X418360Y340378D01*
X418192Y340352D01*
X418082Y340318D01*
X417969Y340294D01*
X417809Y340236D01*
X417647Y340186D01*
X417542Y340137D01*
X417434Y340098D01*
X417285Y340017D01*
X417130Y339945D01*
X417034Y339883D01*
X416932Y339828D01*
X416795Y339728D01*
X416653Y339635D01*
X416566Y339559D01*
X416473Y339491D01*
X416351Y339372D01*
X416223Y339261D01*
X416147Y339174D01*
X416065Y339093D01*
X415961Y338959D01*
X415850Y338830D01*
X415787Y338733D01*
X415717Y338642D01*
X415663Y338540D01*
X415541Y338352D01*
X415401Y338050D01*
X415346Y337946D01*
X415014Y337144D01*
X412163Y334293D01*
X412123Y334248D01*
X412079Y334207D01*
X411936Y334032D01*
X411789Y333863D01*
X411756Y333813D01*
X411718Y333766D01*
X411602Y333574D01*
X411479Y333385D01*
X411454Y333330D01*
X411423Y333279D01*
X411334Y333072D01*
X411239Y332868D01*
X411222Y332810D01*
X411198Y332755D01*
X411140Y332538D01*
X411074Y332323D01*
X411065Y332263D01*
X411049Y332205D01*
X411038Y332088D01*
X410987Y331760D01*
X410984Y331535D01*
X410973Y331420D01*
X410973Y308988D01*
X410985Y308815D01*
X410987Y308643D01*
X411005Y308532D01*
X411013Y308419D01*
X411049Y308250D01*
X411075Y308080D01*
X411108Y307972D01*
X411132Y307862D01*
X411191Y307700D01*
X411241Y307534D01*
X411289Y307433D01*
X411328Y307327D01*
X411409Y307174D01*
X411482Y307018D01*
X411543Y306924D01*
X411596Y306824D01*
X411698Y306685D01*
X411792Y306540D01*
X411866Y306455D01*
X411933Y306365D01*
X412053Y306241D01*
X412167Y306111D01*
X412252Y306037D01*
X412330Y305956D01*
X412467Y305850D01*
X412597Y305737D01*
X412692Y305676D01*
X412781Y305608D01*
X412931Y305522D01*
X413076Y305428D01*
X413178Y305381D01*
X413276Y305325D01*
X413437Y305261D01*
X413593Y305189D01*
X413701Y305157D01*
X413805Y305115D01*
X413974Y305074D01*
X414139Y305025D01*
X414250Y305008D01*
X414359Y304981D01*
X414531Y304964D01*
X414702Y304938D01*
X414814Y304937D01*
X414926Y304926D01*
X415099Y304933D01*
X415272Y304931D01*
X415383Y304945D01*
X415496Y304950D01*
X415666Y304982D01*
X415837Y305004D01*
X415918Y305029D01*
X416056Y305054D01*
X416579Y305230D01*
X416591Y305234D01*
X416596Y305236D01*
X417079Y305436D01*
X421121Y305436D01*
X424856Y303889D01*
X427714Y301031D01*
X429261Y297296D01*
X429261Y293254D01*
X427714Y289519D01*
X424856Y286661D01*
X424054Y286329D01*
X423950Y286277D01*
X423843Y286235D01*
X423696Y286151D01*
X423544Y286075D01*
X423449Y286009D01*
X423349Y285952D01*
X423214Y285848D01*
X423075Y285751D01*
X422990Y285673D01*
X422899Y285603D01*
X422780Y285480D01*
X422655Y285366D01*
X422582Y285277D01*
X422502Y285194D01*
X422401Y285056D01*
X422294Y284925D01*
X422234Y284827D01*
X422166Y284733D01*
X422086Y284584D01*
X421998Y284438D01*
X421952Y284332D01*
X421898Y284231D01*
X421840Y284071D01*
X421773Y283915D01*
X421742Y283804D01*
X421703Y283695D01*
X421668Y283529D01*
X421623Y283365D01*
X421608Y283251D01*
X421584Y283138D01*
X421573Y282968D01*
X421551Y282800D01*
X421553Y282685D01*
X421545Y282569D01*
X421557Y282400D01*
X421560Y282230D01*
X421578Y282116D01*
X421586Y282001D01*
X421622Y281835D01*
X421648Y281667D01*
X421682Y281557D01*
X421706Y281444D01*
X421764Y281284D01*
X421814Y281122D01*
X421863Y281017D01*
X421902Y280909D01*
X421983Y280760D01*
X422055Y280605D01*
X422117Y280509D01*
X422172Y280407D01*
X422272Y280270D01*
X422365Y280128D01*
X422441Y280041D01*
X422509Y279948D01*
X422628Y279826D01*
X422739Y279698D01*
X422826Y279622D01*
X422907Y279540D01*
X423041Y279436D01*
X423170Y279325D01*
X423267Y279262D01*
X423358Y279192D01*
X423460Y279138D01*
X423648Y279016D01*
X423950Y278876D01*
X424054Y278821D01*
X424856Y278489D01*
X427714Y275631D01*
X429261Y271896D01*
X429261Y267854D01*
X427714Y264119D01*
X424856Y261261D01*
X424054Y260929D01*
X423950Y260877D01*
X423843Y260835D01*
X423696Y260751D01*
X423544Y260675D01*
X423449Y260609D01*
X423349Y260552D01*
X423214Y260448D01*
X423075Y260351D01*
X422990Y260273D01*
X422899Y260203D01*
X422780Y260080D01*
X422655Y259966D01*
X422582Y259877D01*
X422502Y259794D01*
X422401Y259656D01*
X422294Y259525D01*
X422234Y259427D01*
X422166Y259333D01*
X422086Y259184D01*
X421998Y259038D01*
X421952Y258932D01*
X421898Y258831D01*
X421840Y258671D01*
X421773Y258515D01*
X421742Y258404D01*
X421703Y258295D01*
X421668Y258129D01*
X421623Y257965D01*
X421608Y257851D01*
X421584Y257738D01*
X421573Y257568D01*
X421551Y257400D01*
X421553Y257285D01*
X421545Y257169D01*
X421557Y257000D01*
X421560Y256830D01*
X421578Y256716D01*
X421586Y256601D01*
X421622Y256435D01*
X421648Y256267D01*
X421682Y256157D01*
X421706Y256044D01*
X421764Y255884D01*
X421814Y255722D01*
X421863Y255617D01*
X421902Y255509D01*
X421983Y255360D01*
X422055Y255205D01*
X422117Y255109D01*
X422172Y255007D01*
X422272Y254870D01*
X422365Y254728D01*
X422441Y254641D01*
X422509Y254548D01*
X422628Y254426D01*
X422739Y254298D01*
X422826Y254222D01*
X422907Y254140D01*
X423041Y254036D01*
X423170Y253925D01*
X423267Y253862D01*
X423358Y253792D01*
X423460Y253738D01*
X423648Y253616D01*
X423950Y253476D01*
X424054Y253421D01*
X424856Y253089D01*
X427714Y250231D01*
X429172Y246710D01*
X429249Y246556D01*
X429318Y246397D01*
X429376Y246301D01*
X429426Y246201D01*
X429524Y246059D01*
X429614Y245911D01*
X429686Y245824D01*
X429750Y245731D01*
X429867Y245604D01*
X429976Y245471D01*
X430059Y245395D01*
X430135Y245312D01*
X430269Y245202D01*
X430396Y245086D01*
X430489Y245022D01*
X430576Y244951D01*
X430724Y244861D01*
X430866Y244763D01*
X430966Y244713D01*
X431063Y244655D01*
X431222Y244586D01*
X431376Y244509D01*
X431483Y244474D01*
X431586Y244429D01*
X431753Y244384D01*
X431917Y244329D01*
X432028Y244309D01*
X432136Y244280D01*
X432307Y244258D01*
X432477Y244227D01*
X432590Y244222D01*
X432701Y244208D01*
X432874Y244211D01*
X433046Y244204D01*
X433159Y244215D01*
G37*
G36*
X412717Y223938D02*
X412717Y223938D01*
X412778Y223935D01*
X413001Y223958D01*
X413226Y223973D01*
X413285Y223986D01*
X413345Y223992D01*
X413563Y224046D01*
X413783Y224093D01*
X413839Y224113D01*
X413898Y224128D01*
X414107Y224211D01*
X414318Y224288D01*
X414371Y224317D01*
X414427Y224339D01*
X414622Y224451D01*
X414820Y224557D01*
X414869Y224593D01*
X414921Y224623D01*
X415012Y224697D01*
X415280Y224894D01*
X415442Y225051D01*
X415530Y225124D01*
X418183Y227776D01*
X418296Y227906D01*
X418416Y228030D01*
X418483Y228121D01*
X418556Y228206D01*
X418650Y228351D01*
X418752Y228491D01*
X418805Y228590D01*
X418866Y228684D01*
X418939Y228841D01*
X419020Y228993D01*
X419059Y229099D01*
X419106Y229201D01*
X419156Y229366D01*
X419215Y229529D01*
X419239Y229639D01*
X419271Y229746D01*
X419298Y229917D01*
X419334Y230086D01*
X419341Y230198D01*
X419359Y230309D01*
X419361Y230482D01*
X419373Y230655D01*
X419365Y230767D01*
X419366Y230879D01*
X419344Y231051D01*
X419332Y231223D01*
X419309Y231333D01*
X419294Y231444D01*
X419249Y231611D01*
X419212Y231780D01*
X419174Y231885D01*
X419144Y231994D01*
X419075Y232153D01*
X419016Y232315D01*
X418963Y232414D01*
X418918Y232517D01*
X418828Y232665D01*
X418746Y232817D01*
X418680Y232907D01*
X418621Y233004D01*
X418511Y233137D01*
X418409Y233276D01*
X418331Y233357D01*
X418259Y233444D01*
X418132Y233560D01*
X418011Y233684D01*
X417922Y233753D01*
X417839Y233829D01*
X417697Y233927D01*
X417560Y234032D01*
X417485Y234072D01*
X417370Y234151D01*
X416876Y234397D01*
X416865Y234403D01*
X413344Y235861D01*
X410486Y238719D01*
X408939Y242454D01*
X408939Y246496D01*
X410486Y250231D01*
X413344Y253089D01*
X414146Y253421D01*
X414249Y253472D01*
X414357Y253515D01*
X414504Y253600D01*
X414656Y253675D01*
X414751Y253741D01*
X414851Y253798D01*
X414986Y253902D01*
X415125Y253999D01*
X415210Y254077D01*
X415301Y254147D01*
X415420Y254269D01*
X415545Y254384D01*
X415618Y254474D01*
X415698Y254556D01*
X415798Y254693D01*
X415906Y254825D01*
X415966Y254924D01*
X416034Y255016D01*
X416114Y255166D01*
X416202Y255312D01*
X416248Y255418D01*
X416302Y255519D01*
X416360Y255679D01*
X416427Y255835D01*
X416458Y255946D01*
X416497Y256055D01*
X416533Y256221D01*
X416577Y256385D01*
X416592Y256499D01*
X416616Y256612D01*
X416627Y256782D01*
X416649Y256950D01*
X416647Y257065D01*
X416655Y257180D01*
X416643Y257350D01*
X416640Y257520D01*
X416622Y257634D01*
X416614Y257749D01*
X416578Y257915D01*
X416552Y258083D01*
X416518Y258193D01*
X416494Y258306D01*
X416436Y258465D01*
X416386Y258628D01*
X416337Y258733D01*
X416298Y258841D01*
X416217Y258990D01*
X416146Y259144D01*
X416083Y259241D01*
X416028Y259343D01*
X415928Y259480D01*
X415835Y259622D01*
X415759Y259709D01*
X415691Y259802D01*
X415573Y259924D01*
X415461Y260052D01*
X415374Y260127D01*
X415293Y260210D01*
X415159Y260314D01*
X415030Y260425D01*
X414934Y260487D01*
X414842Y260558D01*
X414740Y260612D01*
X414552Y260734D01*
X414251Y260873D01*
X414146Y260929D01*
X413344Y261261D01*
X410486Y264119D01*
X408939Y267854D01*
X408939Y272352D01*
X408923Y272581D01*
X408913Y272811D01*
X408903Y272865D01*
X408899Y272920D01*
X408851Y273145D01*
X408809Y273371D01*
X408792Y273423D01*
X408780Y273477D01*
X408701Y273693D01*
X408628Y273911D01*
X408603Y273961D01*
X408584Y274012D01*
X408476Y274215D01*
X408373Y274421D01*
X408342Y274466D01*
X408316Y274515D01*
X408180Y274700D01*
X408049Y274890D01*
X408012Y274930D01*
X407979Y274974D01*
X407819Y275139D01*
X407663Y275309D01*
X407620Y275343D01*
X407582Y275383D01*
X407400Y275523D01*
X407222Y275669D01*
X407174Y275698D01*
X407131Y275731D01*
X406931Y275845D01*
X406734Y275965D01*
X406684Y275986D01*
X406636Y276014D01*
X406422Y276099D01*
X406211Y276189D01*
X406158Y276204D01*
X406107Y276224D01*
X405882Y276278D01*
X405661Y276338D01*
X405617Y276343D01*
X405553Y276358D01*
X404986Y276413D01*
X404920Y276410D01*
X404876Y276415D01*
X355805Y276415D01*
X355632Y276403D01*
X355460Y276400D01*
X355349Y276383D01*
X355236Y276375D01*
X355067Y276339D01*
X354897Y276312D01*
X354789Y276279D01*
X354679Y276256D01*
X354517Y276196D01*
X354352Y276146D01*
X354250Y276099D01*
X354144Y276060D01*
X353991Y275978D01*
X353835Y275905D01*
X353741Y275844D01*
X353642Y275791D01*
X353502Y275689D01*
X353357Y275595D01*
X353272Y275521D01*
X353182Y275455D01*
X353058Y275334D01*
X352928Y275221D01*
X352854Y275136D01*
X352773Y275057D01*
X352668Y274921D01*
X352555Y274790D01*
X352493Y274696D01*
X352425Y274607D01*
X352339Y274457D01*
X352245Y274312D01*
X352198Y274209D01*
X352142Y274112D01*
X352079Y273951D01*
X352006Y273794D01*
X351974Y273687D01*
X351932Y273582D01*
X351892Y273414D01*
X351842Y273249D01*
X351825Y273138D01*
X351798Y273028D01*
X351781Y272856D01*
X351755Y272686D01*
X351754Y272573D01*
X351743Y272461D01*
X351750Y272288D01*
X351748Y272116D01*
X351763Y272005D01*
X351767Y271892D01*
X351799Y271722D01*
X351821Y271551D01*
X351846Y271469D01*
X351871Y271332D01*
X352047Y270809D01*
X352051Y270797D01*
X352901Y268745D01*
X352901Y263755D01*
X350992Y259146D01*
X348268Y256423D01*
X348118Y256250D01*
X347962Y256080D01*
X347931Y256034D01*
X347895Y255993D01*
X347769Y255800D01*
X347639Y255610D01*
X347615Y255561D01*
X347585Y255515D01*
X347488Y255306D01*
X347386Y255100D01*
X347368Y255048D01*
X347345Y254998D01*
X347278Y254778D01*
X347206Y254559D01*
X347196Y254505D01*
X347180Y254453D01*
X347145Y254226D01*
X347103Y253999D01*
X347101Y253944D01*
X347093Y253890D01*
X347089Y253660D01*
X347080Y253429D01*
X347086Y253375D01*
X347085Y253320D01*
X347114Y253092D01*
X347137Y252863D01*
X347150Y252809D01*
X347157Y252755D01*
X347218Y252532D01*
X347272Y252309D01*
X347293Y252258D01*
X347307Y252205D01*
X347398Y251994D01*
X347484Y251780D01*
X347512Y251732D01*
X347533Y251682D01*
X347653Y251486D01*
X347768Y251286D01*
X347796Y251252D01*
X347830Y251196D01*
X348192Y250755D01*
X348240Y250711D01*
X348268Y250677D01*
X350992Y247954D01*
X351046Y247823D01*
X351046Y247822D01*
X352729Y243759D01*
X352901Y243345D01*
X352901Y238355D01*
X350992Y233746D01*
X348115Y230870D01*
X348040Y230783D01*
X347957Y230703D01*
X347853Y230568D01*
X347742Y230440D01*
X347679Y230343D01*
X347608Y230252D01*
X347524Y230104D01*
X347432Y229962D01*
X347383Y229857D01*
X347326Y229757D01*
X347263Y229599D01*
X347192Y229445D01*
X347158Y229335D01*
X347116Y229227D01*
X347076Y229062D01*
X347027Y228899D01*
X347009Y228786D01*
X346982Y228674D01*
X346965Y228504D01*
X346939Y228336D01*
X346938Y228221D01*
X346927Y228106D01*
X346934Y227936D01*
X346932Y227767D01*
X346946Y227653D01*
X346951Y227537D01*
X346982Y227370D01*
X347004Y227201D01*
X347034Y227090D01*
X347055Y226977D01*
X347109Y226816D01*
X347154Y226652D01*
X347200Y226546D01*
X347236Y226437D01*
X347313Y226285D01*
X347380Y226129D01*
X347440Y226031D01*
X347492Y225927D01*
X347588Y225787D01*
X347677Y225642D01*
X347750Y225553D01*
X347815Y225459D01*
X347931Y225334D01*
X348039Y225202D01*
X348124Y225124D01*
X348202Y225040D01*
X348333Y224932D01*
X348459Y224817D01*
X348553Y224752D01*
X348643Y224679D01*
X348788Y224591D01*
X348928Y224494D01*
X349031Y224443D01*
X349130Y224383D01*
X349286Y224317D01*
X349438Y224241D01*
X349548Y224204D01*
X349654Y224159D01*
X349818Y224115D01*
X349979Y224061D01*
X350092Y224040D01*
X350204Y224010D01*
X350318Y223999D01*
X350540Y223958D01*
X350871Y223945D01*
X350988Y223934D01*
X412657Y223934D01*
X412717Y223938D01*
G37*
%LPC*%
G36*
X643491Y320039D02*
X643491Y320039D01*
X637539Y325991D01*
X637539Y334409D01*
X643157Y340027D01*
X643224Y340103D01*
X643253Y340131D01*
X643289Y340178D01*
X643309Y340201D01*
X643464Y340370D01*
X643495Y340416D01*
X643531Y340457D01*
X643656Y340650D01*
X643787Y340840D01*
X643811Y340889D01*
X643841Y340935D01*
X643938Y341144D01*
X644040Y341350D01*
X644058Y341402D01*
X644081Y341452D01*
X644148Y341672D01*
X644220Y341891D01*
X644230Y341945D01*
X644246Y341997D01*
X644281Y342224D01*
X644323Y342451D01*
X644325Y342506D01*
X644333Y342560D01*
X644336Y342790D01*
X644346Y343021D01*
X644340Y343075D01*
X644341Y343130D01*
X644312Y343358D01*
X644289Y343587D01*
X644276Y343641D01*
X644269Y343695D01*
X644208Y343918D01*
X644153Y344141D01*
X644133Y344192D01*
X644118Y344245D01*
X644027Y344456D01*
X643942Y344670D01*
X643914Y344718D01*
X643893Y344768D01*
X643773Y344965D01*
X643658Y345164D01*
X643630Y345198D01*
X643596Y345254D01*
X643234Y345695D01*
X643186Y345739D01*
X643157Y345773D01*
X637539Y351391D01*
X637539Y359809D01*
X643157Y365427D01*
X643309Y365601D01*
X643464Y365770D01*
X643495Y365816D01*
X643531Y365857D01*
X643656Y366050D01*
X643787Y366240D01*
X643811Y366289D01*
X643841Y366335D01*
X643938Y366544D01*
X644040Y366750D01*
X644058Y366802D01*
X644081Y366852D01*
X644148Y367072D01*
X644220Y367291D01*
X644230Y367345D01*
X644246Y367397D01*
X644281Y367624D01*
X644323Y367851D01*
X644325Y367906D01*
X644333Y367960D01*
X644336Y368190D01*
X644346Y368421D01*
X644340Y368475D01*
X644341Y368530D01*
X644312Y368758D01*
X644289Y368987D01*
X644276Y369041D01*
X644269Y369095D01*
X644208Y369318D01*
X644153Y369541D01*
X644133Y369592D01*
X644118Y369645D01*
X644027Y369856D01*
X643942Y370070D01*
X643914Y370118D01*
X643893Y370168D01*
X643773Y370365D01*
X643658Y370564D01*
X643630Y370598D01*
X643596Y370654D01*
X643234Y371095D01*
X643186Y371139D01*
X643157Y371173D01*
X637539Y376791D01*
X637539Y385209D01*
X643491Y391161D01*
X651909Y391161D01*
X657527Y385543D01*
X657701Y385391D01*
X657870Y385236D01*
X657916Y385205D01*
X657957Y385169D01*
X658150Y385044D01*
X658340Y384913D01*
X658389Y384889D01*
X658435Y384859D01*
X658644Y384762D01*
X658850Y384660D01*
X658902Y384642D01*
X658952Y384619D01*
X659173Y384552D01*
X659391Y384480D01*
X659445Y384470D01*
X659497Y384454D01*
X659725Y384419D01*
X659951Y384377D01*
X660006Y384375D01*
X660060Y384367D01*
X660290Y384364D01*
X660521Y384354D01*
X660575Y384360D01*
X660630Y384359D01*
X660859Y384388D01*
X661088Y384411D01*
X661141Y384424D01*
X661195Y384431D01*
X661418Y384492D01*
X661641Y384547D01*
X661692Y384567D01*
X661745Y384582D01*
X661956Y384673D01*
X662170Y384758D01*
X662218Y384786D01*
X662268Y384807D01*
X662465Y384927D01*
X662664Y385042D01*
X662698Y385070D01*
X662754Y385104D01*
X663195Y385466D01*
X663239Y385514D01*
X663273Y385543D01*
X668891Y391161D01*
X669037Y391161D01*
X669037Y381000D01*
X669053Y380771D01*
X669063Y380541D01*
X669073Y380487D01*
X669077Y380432D01*
X669125Y380207D01*
X669167Y379981D01*
X669184Y379928D01*
X669196Y379875D01*
X669275Y379659D01*
X669348Y379440D01*
X669373Y379391D01*
X669391Y379340D01*
X669500Y379137D01*
X669603Y378931D01*
X669634Y378886D01*
X669660Y378837D01*
X669796Y378652D01*
X669927Y378462D01*
X669964Y378422D01*
X669997Y378377D01*
X670157Y378213D01*
X670313Y378043D01*
X670314Y378043D01*
X670356Y378008D01*
X670394Y377969D01*
X670395Y377969D01*
X670576Y377828D01*
X670755Y377682D01*
X670802Y377653D01*
X670845Y377620D01*
X671045Y377506D01*
X671242Y377386D01*
X671292Y377365D01*
X671340Y377338D01*
X671555Y377252D01*
X671766Y377162D01*
X671818Y377148D01*
X671870Y377127D01*
X672094Y377073D01*
X672316Y377013D01*
X672360Y377009D01*
X672424Y376993D01*
X672991Y376938D01*
X673056Y376941D01*
X673100Y376937D01*
X683261Y376937D01*
X683261Y376791D01*
X677643Y371173D01*
X677491Y370999D01*
X677336Y370830D01*
X677305Y370784D01*
X677269Y370743D01*
X677144Y370550D01*
X677013Y370360D01*
X676989Y370311D01*
X676959Y370265D01*
X676862Y370056D01*
X676760Y369850D01*
X676742Y369798D01*
X676719Y369748D01*
X676652Y369527D01*
X676580Y369309D01*
X676570Y369255D01*
X676554Y369203D01*
X676519Y368975D01*
X676477Y368749D01*
X676475Y368694D01*
X676467Y368640D01*
X676464Y368410D01*
X676454Y368179D01*
X676460Y368125D01*
X676459Y368070D01*
X676488Y367841D01*
X676511Y367612D01*
X676524Y367559D01*
X676531Y367505D01*
X676592Y367282D01*
X676647Y367059D01*
X676667Y367008D01*
X676682Y366955D01*
X676773Y366744D01*
X676858Y366530D01*
X676886Y366482D01*
X676907Y366432D01*
X677027Y366235D01*
X677142Y366036D01*
X677170Y366002D01*
X677204Y365946D01*
X677566Y365505D01*
X677614Y365461D01*
X677643Y365427D01*
X683261Y359809D01*
X683261Y351391D01*
X677643Y345773D01*
X677491Y345599D01*
X677336Y345430D01*
X677305Y345384D01*
X677269Y345343D01*
X677144Y345150D01*
X677013Y344960D01*
X676989Y344911D01*
X676959Y344865D01*
X676862Y344656D01*
X676760Y344450D01*
X676742Y344398D01*
X676719Y344348D01*
X676652Y344127D01*
X676580Y343909D01*
X676570Y343855D01*
X676554Y343803D01*
X676519Y343575D01*
X676477Y343349D01*
X676475Y343294D01*
X676467Y343240D01*
X676464Y343010D01*
X676454Y342779D01*
X676460Y342725D01*
X676459Y342670D01*
X676488Y342441D01*
X676511Y342212D01*
X676524Y342159D01*
X676531Y342105D01*
X676592Y341882D01*
X676647Y341659D01*
X676667Y341608D01*
X676682Y341555D01*
X676773Y341344D01*
X676858Y341130D01*
X676886Y341082D01*
X676907Y341032D01*
X677027Y340835D01*
X677142Y340636D01*
X677170Y340602D01*
X677204Y340546D01*
X677399Y340308D01*
X677406Y340299D01*
X677418Y340286D01*
X677566Y340105D01*
X677614Y340061D01*
X677643Y340027D01*
X683261Y334409D01*
X683261Y325991D01*
X677309Y320039D01*
X668891Y320039D01*
X663273Y325657D01*
X663099Y325809D01*
X662930Y325964D01*
X662884Y325995D01*
X662843Y326031D01*
X662650Y326156D01*
X662460Y326287D01*
X662411Y326311D01*
X662365Y326341D01*
X662156Y326438D01*
X661950Y326540D01*
X661898Y326558D01*
X661848Y326581D01*
X661628Y326648D01*
X661409Y326720D01*
X661355Y326730D01*
X661303Y326746D01*
X661076Y326781D01*
X660849Y326823D01*
X660794Y326825D01*
X660740Y326833D01*
X660510Y326836D01*
X660279Y326846D01*
X660225Y326840D01*
X660170Y326841D01*
X659942Y326812D01*
X659713Y326789D01*
X659659Y326776D01*
X659605Y326769D01*
X659382Y326708D01*
X659159Y326653D01*
X659108Y326633D01*
X659055Y326618D01*
X658844Y326527D01*
X658630Y326442D01*
X658582Y326414D01*
X658532Y326393D01*
X658335Y326273D01*
X658136Y326158D01*
X658102Y326130D01*
X658046Y326096D01*
X657605Y325734D01*
X657561Y325686D01*
X657527Y325657D01*
X651909Y320039D01*
X643491Y320039D01*
G37*
%LPD*%
%LPC*%
G36*
X480579Y15239D02*
X480579Y15239D01*
X476844Y16786D01*
X473986Y19644D01*
X472439Y23379D01*
X472439Y27421D01*
X473986Y31156D01*
X476844Y34014D01*
X480579Y35561D01*
X484621Y35561D01*
X488356Y34014D01*
X491214Y31156D01*
X491546Y30354D01*
X491597Y30251D01*
X491640Y30143D01*
X491725Y29996D01*
X491800Y29844D01*
X491866Y29749D01*
X491923Y29649D01*
X492027Y29514D01*
X492124Y29375D01*
X492202Y29290D01*
X492272Y29199D01*
X492394Y29080D01*
X492509Y28955D01*
X492599Y28882D01*
X492681Y28802D01*
X492818Y28702D01*
X492950Y28594D01*
X493049Y28534D01*
X493141Y28466D01*
X493291Y28386D01*
X493437Y28298D01*
X493543Y28252D01*
X493644Y28198D01*
X493804Y28140D01*
X493960Y28073D01*
X494071Y28042D01*
X494180Y28003D01*
X494346Y27967D01*
X494510Y27923D01*
X494624Y27908D01*
X494737Y27884D01*
X494907Y27873D01*
X495075Y27851D01*
X495190Y27853D01*
X495305Y27845D01*
X495475Y27857D01*
X495645Y27860D01*
X495759Y27878D01*
X495874Y27886D01*
X496040Y27922D01*
X496208Y27948D01*
X496318Y27982D01*
X496431Y28006D01*
X496590Y28064D01*
X496753Y28114D01*
X496858Y28163D01*
X496966Y28202D01*
X497115Y28283D01*
X497269Y28354D01*
X497366Y28417D01*
X497468Y28472D01*
X497605Y28572D01*
X497747Y28665D01*
X497834Y28741D01*
X497927Y28809D01*
X498049Y28927D01*
X498177Y29039D01*
X498252Y29126D01*
X498335Y29207D01*
X498439Y29341D01*
X498550Y29470D01*
X498612Y29566D01*
X498683Y29658D01*
X498737Y29760D01*
X498859Y29948D01*
X498998Y30249D01*
X499054Y30354D01*
X499386Y31156D01*
X502244Y34014D01*
X505979Y35561D01*
X510021Y35561D01*
X513756Y34014D01*
X516614Y31156D01*
X516946Y30354D01*
X516997Y30251D01*
X517040Y30143D01*
X517125Y29996D01*
X517200Y29844D01*
X517266Y29749D01*
X517323Y29649D01*
X517427Y29514D01*
X517524Y29375D01*
X517602Y29290D01*
X517672Y29199D01*
X517794Y29080D01*
X517909Y28955D01*
X517999Y28882D01*
X518081Y28802D01*
X518218Y28702D01*
X518350Y28594D01*
X518449Y28534D01*
X518541Y28466D01*
X518691Y28386D01*
X518837Y28298D01*
X518943Y28252D01*
X519044Y28198D01*
X519204Y28140D01*
X519360Y28073D01*
X519471Y28042D01*
X519580Y28003D01*
X519746Y27967D01*
X519910Y27923D01*
X520024Y27908D01*
X520137Y27884D01*
X520307Y27873D01*
X520475Y27851D01*
X520590Y27853D01*
X520705Y27845D01*
X520875Y27857D01*
X521045Y27860D01*
X521159Y27878D01*
X521274Y27886D01*
X521440Y27922D01*
X521608Y27948D01*
X521718Y27982D01*
X521831Y28006D01*
X521990Y28064D01*
X522153Y28114D01*
X522258Y28163D01*
X522366Y28202D01*
X522515Y28283D01*
X522669Y28354D01*
X522766Y28417D01*
X522868Y28472D01*
X523005Y28572D01*
X523147Y28665D01*
X523234Y28741D01*
X523327Y28809D01*
X523449Y28927D01*
X523577Y29039D01*
X523652Y29126D01*
X523735Y29207D01*
X523839Y29341D01*
X523950Y29470D01*
X524012Y29566D01*
X524083Y29658D01*
X524137Y29760D01*
X524259Y29948D01*
X524398Y30249D01*
X524454Y30354D01*
X524786Y31156D01*
X527644Y34014D01*
X531379Y35561D01*
X535421Y35561D01*
X539156Y34014D01*
X542014Y31156D01*
X542346Y30354D01*
X542397Y30251D01*
X542440Y30143D01*
X542525Y29996D01*
X542600Y29844D01*
X542666Y29749D01*
X542723Y29649D01*
X542827Y29515D01*
X542924Y29375D01*
X543002Y29290D01*
X543072Y29199D01*
X543194Y29080D01*
X543309Y28955D01*
X543398Y28882D01*
X543481Y28802D01*
X543619Y28702D01*
X543750Y28594D01*
X543848Y28534D01*
X543941Y28466D01*
X544092Y28386D01*
X544237Y28298D01*
X544343Y28252D01*
X544444Y28198D01*
X544604Y28140D01*
X544760Y28073D01*
X544871Y28042D01*
X544980Y28003D01*
X545146Y27968D01*
X545310Y27923D01*
X545424Y27908D01*
X545537Y27884D01*
X545707Y27873D01*
X545875Y27852D01*
X545990Y27853D01*
X546105Y27845D01*
X546275Y27857D01*
X546445Y27860D01*
X546559Y27878D01*
X546674Y27886D01*
X546840Y27922D01*
X547008Y27948D01*
X547118Y27982D01*
X547231Y28006D01*
X547390Y28064D01*
X547553Y28114D01*
X547658Y28163D01*
X547766Y28202D01*
X547915Y28283D01*
X548069Y28355D01*
X548166Y28417D01*
X548268Y28472D01*
X548405Y28572D01*
X548547Y28665D01*
X548634Y28741D01*
X548727Y28809D01*
X548849Y28927D01*
X548977Y29039D01*
X549053Y29126D01*
X549135Y29207D01*
X549238Y29341D01*
X549350Y29470D01*
X549413Y29567D01*
X549483Y29658D01*
X549537Y29760D01*
X549659Y29948D01*
X549798Y30250D01*
X549854Y30354D01*
X550186Y31156D01*
X553044Y34014D01*
X556779Y35561D01*
X560821Y35561D01*
X564556Y34014D01*
X567414Y31156D01*
X567746Y30354D01*
X567798Y30250D01*
X567840Y30143D01*
X567924Y29996D01*
X568000Y29844D01*
X568066Y29749D01*
X568123Y29649D01*
X568227Y29514D01*
X568324Y29375D01*
X568402Y29290D01*
X568472Y29199D01*
X568595Y29080D01*
X568709Y28955D01*
X568798Y28882D01*
X568881Y28802D01*
X569019Y28701D01*
X569150Y28594D01*
X569248Y28534D01*
X569342Y28466D01*
X569491Y28386D01*
X569637Y28298D01*
X569743Y28252D01*
X569844Y28198D01*
X570004Y28140D01*
X570160Y28073D01*
X570271Y28042D01*
X570380Y28003D01*
X570546Y27968D01*
X570710Y27923D01*
X570824Y27908D01*
X570937Y27884D01*
X571107Y27873D01*
X571275Y27851D01*
X571390Y27853D01*
X571506Y27845D01*
X571675Y27857D01*
X571845Y27860D01*
X571959Y27878D01*
X572074Y27886D01*
X572240Y27922D01*
X572408Y27948D01*
X572518Y27982D01*
X572631Y28006D01*
X572791Y28064D01*
X572953Y28114D01*
X573058Y28163D01*
X573166Y28202D01*
X573315Y28283D01*
X573470Y28355D01*
X573566Y28417D01*
X573668Y28472D01*
X573805Y28572D01*
X573947Y28665D01*
X574034Y28741D01*
X574127Y28809D01*
X574249Y28928D01*
X574377Y29039D01*
X574453Y29126D01*
X574535Y29207D01*
X574639Y29341D01*
X574750Y29470D01*
X574813Y29567D01*
X574883Y29658D01*
X574937Y29760D01*
X575059Y29948D01*
X575199Y30250D01*
X575254Y30354D01*
X575586Y31156D01*
X578444Y34014D01*
X582179Y35561D01*
X586221Y35561D01*
X589956Y34014D01*
X592814Y31156D01*
X593146Y30354D01*
X593197Y30251D01*
X593240Y30143D01*
X593325Y29996D01*
X593400Y29844D01*
X593466Y29749D01*
X593523Y29649D01*
X593627Y29514D01*
X593724Y29375D01*
X593802Y29290D01*
X593872Y29199D01*
X593994Y29080D01*
X594109Y28955D01*
X594199Y28882D01*
X594281Y28802D01*
X594418Y28702D01*
X594550Y28594D01*
X594649Y28534D01*
X594741Y28466D01*
X594891Y28386D01*
X595037Y28298D01*
X595143Y28252D01*
X595244Y28198D01*
X595404Y28140D01*
X595560Y28073D01*
X595671Y28042D01*
X595780Y28003D01*
X595946Y27967D01*
X596110Y27923D01*
X596224Y27908D01*
X596337Y27884D01*
X596507Y27873D01*
X596675Y27851D01*
X596790Y27853D01*
X596905Y27845D01*
X597075Y27857D01*
X597245Y27860D01*
X597359Y27878D01*
X597474Y27886D01*
X597640Y27922D01*
X597808Y27948D01*
X597918Y27982D01*
X598031Y28006D01*
X598190Y28064D01*
X598353Y28114D01*
X598458Y28163D01*
X598566Y28202D01*
X598715Y28283D01*
X598869Y28354D01*
X598966Y28417D01*
X599068Y28472D01*
X599205Y28572D01*
X599347Y28665D01*
X599434Y28741D01*
X599527Y28809D01*
X599649Y28927D01*
X599777Y29039D01*
X599852Y29126D01*
X599935Y29207D01*
X600039Y29341D01*
X600150Y29470D01*
X600212Y29566D01*
X600283Y29658D01*
X600337Y29760D01*
X600459Y29948D01*
X600598Y30249D01*
X600654Y30354D01*
X600986Y31156D01*
X603844Y34014D01*
X607579Y35561D01*
X611621Y35561D01*
X615356Y34014D01*
X618214Y31156D01*
X618546Y30354D01*
X618597Y30251D01*
X618640Y30143D01*
X618725Y29996D01*
X618800Y29844D01*
X618866Y29749D01*
X618923Y29649D01*
X619027Y29514D01*
X619124Y29375D01*
X619202Y29290D01*
X619272Y29199D01*
X619394Y29080D01*
X619509Y28955D01*
X619599Y28882D01*
X619681Y28802D01*
X619818Y28702D01*
X619950Y28594D01*
X620049Y28534D01*
X620141Y28466D01*
X620291Y28386D01*
X620437Y28298D01*
X620543Y28252D01*
X620644Y28198D01*
X620804Y28140D01*
X620960Y28073D01*
X621071Y28042D01*
X621180Y28003D01*
X621346Y27967D01*
X621510Y27923D01*
X621624Y27908D01*
X621737Y27884D01*
X621907Y27873D01*
X622075Y27851D01*
X622190Y27853D01*
X622305Y27845D01*
X622475Y27857D01*
X622645Y27860D01*
X622759Y27878D01*
X622874Y27886D01*
X623040Y27922D01*
X623208Y27948D01*
X623318Y27982D01*
X623431Y28006D01*
X623590Y28064D01*
X623753Y28114D01*
X623858Y28163D01*
X623966Y28202D01*
X624115Y28283D01*
X624269Y28354D01*
X624366Y28417D01*
X624468Y28472D01*
X624605Y28572D01*
X624747Y28665D01*
X624834Y28741D01*
X624927Y28809D01*
X625049Y28927D01*
X625177Y29039D01*
X625252Y29126D01*
X625335Y29207D01*
X625439Y29341D01*
X625550Y29470D01*
X625612Y29566D01*
X625683Y29658D01*
X625737Y29760D01*
X625859Y29948D01*
X625998Y30249D01*
X626054Y30354D01*
X626386Y31156D01*
X629244Y34014D01*
X632979Y35561D01*
X637021Y35561D01*
X640756Y34014D01*
X643614Y31156D01*
X645161Y27421D01*
X645161Y23379D01*
X643614Y19644D01*
X640756Y16786D01*
X637021Y15239D01*
X632979Y15239D01*
X629244Y16786D01*
X626386Y19644D01*
X626054Y20446D01*
X626002Y20550D01*
X625960Y20657D01*
X625876Y20804D01*
X625800Y20956D01*
X625734Y21051D01*
X625677Y21151D01*
X625573Y21286D01*
X625476Y21425D01*
X625398Y21510D01*
X625328Y21601D01*
X625205Y21720D01*
X625091Y21845D01*
X625002Y21918D01*
X624919Y21998D01*
X624781Y22099D01*
X624650Y22206D01*
X624552Y22266D01*
X624458Y22334D01*
X624309Y22414D01*
X624163Y22502D01*
X624057Y22548D01*
X623956Y22602D01*
X623796Y22660D01*
X623640Y22727D01*
X623529Y22758D01*
X623420Y22797D01*
X623254Y22832D01*
X623090Y22877D01*
X622976Y22892D01*
X622863Y22916D01*
X622693Y22927D01*
X622525Y22949D01*
X622410Y22947D01*
X622294Y22955D01*
X622125Y22943D01*
X621955Y22940D01*
X621841Y22922D01*
X621726Y22914D01*
X621560Y22878D01*
X621392Y22852D01*
X621282Y22818D01*
X621169Y22794D01*
X621009Y22736D01*
X620847Y22686D01*
X620742Y22637D01*
X620634Y22598D01*
X620485Y22517D01*
X620330Y22445D01*
X620234Y22383D01*
X620132Y22328D01*
X619995Y22228D01*
X619853Y22135D01*
X619766Y22059D01*
X619673Y21991D01*
X619551Y21872D01*
X619423Y21761D01*
X619347Y21674D01*
X619265Y21593D01*
X619161Y21459D01*
X619050Y21330D01*
X618987Y21233D01*
X618917Y21142D01*
X618863Y21040D01*
X618741Y20852D01*
X618601Y20550D01*
X618546Y20446D01*
X618214Y19644D01*
X615356Y16786D01*
X611621Y15239D01*
X607579Y15239D01*
X603844Y16786D01*
X600986Y19644D01*
X600654Y20446D01*
X600602Y20550D01*
X600560Y20657D01*
X600476Y20804D01*
X600400Y20956D01*
X600334Y21051D01*
X600277Y21151D01*
X600173Y21286D01*
X600076Y21425D01*
X599998Y21510D01*
X599928Y21601D01*
X599805Y21720D01*
X599691Y21845D01*
X599602Y21918D01*
X599519Y21998D01*
X599381Y22099D01*
X599250Y22206D01*
X599152Y22266D01*
X599058Y22334D01*
X598909Y22414D01*
X598763Y22502D01*
X598657Y22548D01*
X598556Y22602D01*
X598396Y22660D01*
X598240Y22727D01*
X598129Y22758D01*
X598020Y22797D01*
X597854Y22832D01*
X597690Y22877D01*
X597576Y22892D01*
X597463Y22916D01*
X597293Y22927D01*
X597125Y22949D01*
X597010Y22947D01*
X596894Y22955D01*
X596725Y22943D01*
X596555Y22940D01*
X596441Y22922D01*
X596326Y22914D01*
X596160Y22878D01*
X595992Y22852D01*
X595882Y22818D01*
X595769Y22794D01*
X595609Y22736D01*
X595447Y22686D01*
X595342Y22637D01*
X595234Y22598D01*
X595085Y22517D01*
X594930Y22445D01*
X594834Y22383D01*
X594732Y22328D01*
X594595Y22228D01*
X594453Y22135D01*
X594366Y22059D01*
X594273Y21991D01*
X594151Y21872D01*
X594023Y21761D01*
X593947Y21674D01*
X593865Y21593D01*
X593761Y21459D01*
X593650Y21330D01*
X593587Y21233D01*
X593517Y21142D01*
X593463Y21040D01*
X593341Y20852D01*
X593201Y20550D01*
X593146Y20446D01*
X592814Y19644D01*
X589956Y16786D01*
X586221Y15239D01*
X582179Y15239D01*
X578444Y16786D01*
X575586Y19644D01*
X575254Y20446D01*
X575203Y20549D01*
X575160Y20657D01*
X575075Y20804D01*
X575000Y20956D01*
X574934Y21051D01*
X574877Y21151D01*
X574773Y21286D01*
X574676Y21425D01*
X574598Y21510D01*
X574528Y21601D01*
X574406Y21720D01*
X574291Y21845D01*
X574201Y21918D01*
X574119Y21998D01*
X573982Y22098D01*
X573850Y22206D01*
X573751Y22266D01*
X573659Y22334D01*
X573509Y22414D01*
X573363Y22502D01*
X573257Y22548D01*
X573156Y22602D01*
X572996Y22660D01*
X572840Y22727D01*
X572729Y22758D01*
X572620Y22797D01*
X572454Y22833D01*
X572290Y22877D01*
X572176Y22892D01*
X572063Y22916D01*
X571893Y22927D01*
X571725Y22949D01*
X571610Y22947D01*
X571495Y22955D01*
X571325Y22943D01*
X571155Y22940D01*
X571041Y22922D01*
X570926Y22914D01*
X570760Y22878D01*
X570592Y22852D01*
X570482Y22818D01*
X570369Y22794D01*
X570210Y22736D01*
X570047Y22686D01*
X569942Y22637D01*
X569834Y22598D01*
X569685Y22517D01*
X569531Y22446D01*
X569434Y22383D01*
X569332Y22328D01*
X569195Y22228D01*
X569053Y22135D01*
X568966Y22059D01*
X568873Y21991D01*
X568751Y21873D01*
X568623Y21761D01*
X568548Y21674D01*
X568465Y21593D01*
X568361Y21459D01*
X568250Y21330D01*
X568188Y21234D01*
X568117Y21142D01*
X568063Y21040D01*
X567941Y20852D01*
X567802Y20551D01*
X567746Y20446D01*
X567414Y19644D01*
X564556Y16786D01*
X560821Y15239D01*
X556779Y15239D01*
X553044Y16786D01*
X550186Y19644D01*
X549854Y20446D01*
X549803Y20549D01*
X549760Y20657D01*
X549675Y20804D01*
X549600Y20956D01*
X549534Y21051D01*
X549477Y21151D01*
X549373Y21285D01*
X549276Y21425D01*
X549198Y21510D01*
X549128Y21601D01*
X549006Y21720D01*
X548891Y21845D01*
X548802Y21918D01*
X548719Y21998D01*
X548582Y22098D01*
X548450Y22206D01*
X548351Y22266D01*
X548258Y22334D01*
X548108Y22414D01*
X547963Y22502D01*
X547857Y22548D01*
X547756Y22602D01*
X547596Y22660D01*
X547440Y22727D01*
X547329Y22758D01*
X547220Y22797D01*
X547054Y22833D01*
X546890Y22877D01*
X546776Y22892D01*
X546663Y22916D01*
X546493Y22927D01*
X546325Y22948D01*
X546210Y22947D01*
X546095Y22955D01*
X545925Y22943D01*
X545755Y22940D01*
X545641Y22922D01*
X545526Y22914D01*
X545360Y22878D01*
X545192Y22852D01*
X545082Y22818D01*
X544969Y22794D01*
X544810Y22736D01*
X544647Y22686D01*
X544542Y22637D01*
X544434Y22598D01*
X544284Y22517D01*
X544130Y22445D01*
X544034Y22383D01*
X543932Y22328D01*
X543795Y22228D01*
X543653Y22135D01*
X543566Y22059D01*
X543473Y21991D01*
X543351Y21872D01*
X543223Y21761D01*
X543148Y21674D01*
X543065Y21593D01*
X542961Y21459D01*
X542850Y21330D01*
X542787Y21233D01*
X542717Y21142D01*
X542663Y21040D01*
X542541Y20851D01*
X542402Y20550D01*
X542346Y20446D01*
X542014Y19644D01*
X539156Y16786D01*
X535421Y15239D01*
X531379Y15239D01*
X527644Y16786D01*
X524786Y19644D01*
X524454Y20446D01*
X524402Y20550D01*
X524360Y20657D01*
X524276Y20804D01*
X524200Y20956D01*
X524134Y21051D01*
X524077Y21151D01*
X523973Y21286D01*
X523876Y21425D01*
X523798Y21510D01*
X523728Y21601D01*
X523605Y21720D01*
X523491Y21845D01*
X523402Y21918D01*
X523319Y21998D01*
X523181Y22099D01*
X523050Y22206D01*
X522952Y22266D01*
X522858Y22334D01*
X522709Y22414D01*
X522563Y22502D01*
X522457Y22548D01*
X522356Y22602D01*
X522196Y22660D01*
X522040Y22727D01*
X521929Y22758D01*
X521820Y22797D01*
X521654Y22832D01*
X521490Y22877D01*
X521376Y22892D01*
X521263Y22916D01*
X521093Y22927D01*
X520925Y22949D01*
X520810Y22947D01*
X520694Y22955D01*
X520525Y22943D01*
X520355Y22940D01*
X520241Y22922D01*
X520126Y22914D01*
X519960Y22878D01*
X519792Y22852D01*
X519682Y22818D01*
X519569Y22794D01*
X519409Y22736D01*
X519247Y22686D01*
X519142Y22637D01*
X519034Y22598D01*
X518885Y22517D01*
X518730Y22445D01*
X518634Y22383D01*
X518532Y22328D01*
X518395Y22228D01*
X518253Y22135D01*
X518166Y22059D01*
X518073Y21991D01*
X517951Y21872D01*
X517823Y21761D01*
X517747Y21674D01*
X517665Y21593D01*
X517561Y21459D01*
X517450Y21330D01*
X517387Y21233D01*
X517317Y21142D01*
X517263Y21040D01*
X517141Y20852D01*
X517001Y20550D01*
X516946Y20446D01*
X516614Y19644D01*
X513756Y16786D01*
X510021Y15239D01*
X505979Y15239D01*
X502244Y16786D01*
X499386Y19644D01*
X499054Y20446D01*
X499002Y20550D01*
X498960Y20657D01*
X498876Y20804D01*
X498800Y20956D01*
X498734Y21051D01*
X498677Y21151D01*
X498573Y21286D01*
X498476Y21425D01*
X498398Y21510D01*
X498328Y21601D01*
X498205Y21720D01*
X498091Y21845D01*
X498002Y21918D01*
X497919Y21998D01*
X497781Y22099D01*
X497650Y22206D01*
X497552Y22266D01*
X497458Y22334D01*
X497309Y22414D01*
X497163Y22502D01*
X497057Y22548D01*
X496956Y22602D01*
X496796Y22660D01*
X496640Y22727D01*
X496529Y22758D01*
X496420Y22797D01*
X496254Y22832D01*
X496090Y22877D01*
X495976Y22892D01*
X495863Y22916D01*
X495693Y22927D01*
X495525Y22949D01*
X495410Y22947D01*
X495294Y22955D01*
X495125Y22943D01*
X494955Y22940D01*
X494841Y22922D01*
X494726Y22914D01*
X494560Y22878D01*
X494392Y22852D01*
X494282Y22818D01*
X494169Y22794D01*
X494009Y22736D01*
X493847Y22686D01*
X493742Y22637D01*
X493634Y22598D01*
X493485Y22517D01*
X493330Y22445D01*
X493234Y22383D01*
X493132Y22328D01*
X492995Y22228D01*
X492853Y22135D01*
X492766Y22059D01*
X492673Y21991D01*
X492551Y21872D01*
X492423Y21761D01*
X492347Y21674D01*
X492265Y21593D01*
X492161Y21459D01*
X492050Y21330D01*
X491987Y21233D01*
X491917Y21142D01*
X491863Y21040D01*
X491741Y20852D01*
X491601Y20550D01*
X491546Y20446D01*
X491214Y19644D01*
X488356Y16786D01*
X484621Y15239D01*
X480579Y15239D01*
G37*
%LPD*%
%LPC*%
G36*
X64960Y179006D02*
X64960Y179006D01*
X60736Y180756D01*
X57502Y183989D01*
X55752Y188214D01*
X55752Y192786D01*
X57502Y197011D01*
X60736Y200244D01*
X64960Y201994D01*
X87440Y201994D01*
X91664Y200244D01*
X94898Y197011D01*
X96648Y192786D01*
X96648Y188214D01*
X94898Y183989D01*
X91664Y180756D01*
X87440Y179006D01*
X64960Y179006D01*
G37*
%LPD*%
%LPC*%
G36*
X45907Y283717D02*
X45907Y283717D01*
X42733Y285032D01*
X40303Y287462D01*
X40283Y287511D01*
X40282Y287512D01*
X38988Y290636D01*
X38988Y306264D01*
X40303Y309438D01*
X42733Y311868D01*
X45907Y313183D01*
X49343Y313183D01*
X52517Y311868D01*
X54947Y309438D01*
X56262Y306264D01*
X56262Y290636D01*
X54947Y287462D01*
X52517Y285032D01*
X49343Y283717D01*
X45907Y283717D01*
G37*
%LPD*%
%LPC*%
G36*
X632979Y53339D02*
X632979Y53339D01*
X629244Y54886D01*
X626386Y57744D01*
X626031Y58603D01*
X625923Y58819D01*
X625820Y59036D01*
X625796Y59073D01*
X625776Y59113D01*
X625640Y59311D01*
X625507Y59512D01*
X625478Y59546D01*
X625453Y59582D01*
X625290Y59759D01*
X625131Y59940D01*
X625097Y59969D01*
X625067Y60001D01*
X624881Y60155D01*
X624698Y60311D01*
X624661Y60335D01*
X624627Y60363D01*
X624421Y60488D01*
X624218Y60617D01*
X624178Y60636D01*
X624140Y60659D01*
X623919Y60754D01*
X623700Y60854D01*
X623657Y60866D01*
X623616Y60884D01*
X623384Y60947D01*
X623153Y61016D01*
X623109Y61022D01*
X623067Y61034D01*
X622828Y61064D01*
X622590Y61099D01*
X622545Y61100D01*
X622501Y61105D01*
X622261Y61102D01*
X622020Y61103D01*
X621976Y61097D01*
X621932Y61097D01*
X621693Y61059D01*
X621455Y61028D01*
X621413Y61016D01*
X621369Y61009D01*
X621138Y60939D01*
X620907Y60874D01*
X620866Y60856D01*
X620824Y60843D01*
X620606Y60741D01*
X620385Y60644D01*
X620347Y60621D01*
X620307Y60602D01*
X620105Y60471D01*
X619901Y60344D01*
X619867Y60316D01*
X619829Y60292D01*
X619648Y60133D01*
X619463Y59980D01*
X619433Y59947D01*
X619400Y59917D01*
X619242Y59735D01*
X619081Y59557D01*
X619061Y59527D01*
X619026Y59487D01*
X618717Y59008D01*
X618684Y58937D01*
X618656Y58893D01*
X618290Y58175D01*
X617350Y56881D01*
X616219Y55750D01*
X614925Y54810D01*
X613663Y54167D01*
X613663Y63500D01*
X613663Y72833D01*
X614925Y72190D01*
X616219Y71250D01*
X617350Y70119D01*
X618290Y68825D01*
X618656Y68107D01*
X618780Y67902D01*
X618900Y67692D01*
X618927Y67657D01*
X618950Y67619D01*
X619102Y67432D01*
X619249Y67242D01*
X619281Y67211D01*
X619309Y67177D01*
X619485Y67013D01*
X619658Y66845D01*
X619694Y66819D01*
X619726Y66789D01*
X619924Y66651D01*
X620118Y66509D01*
X620157Y66488D01*
X620194Y66463D01*
X620409Y66354D01*
X620621Y66241D01*
X620663Y66226D01*
X620702Y66206D01*
X620930Y66129D01*
X621156Y66046D01*
X621200Y66037D01*
X621242Y66023D01*
X621478Y65978D01*
X621714Y65928D01*
X621758Y65925D01*
X621802Y65916D01*
X622042Y65905D01*
X622282Y65889D01*
X622326Y65892D01*
X622371Y65890D01*
X622610Y65912D01*
X622850Y65929D01*
X622894Y65939D01*
X622938Y65943D01*
X623172Y65999D01*
X623407Y66049D01*
X623449Y66064D01*
X623492Y66075D01*
X623717Y66163D01*
X623942Y66246D01*
X623981Y66267D01*
X624023Y66283D01*
X624232Y66401D01*
X624444Y66515D01*
X624480Y66541D01*
X624519Y66563D01*
X624710Y66710D01*
X624904Y66852D01*
X624935Y66883D01*
X624971Y66910D01*
X625140Y67083D01*
X625311Y67250D01*
X625339Y67285D01*
X625370Y67317D01*
X625513Y67511D01*
X625660Y67701D01*
X625677Y67733D01*
X625708Y67776D01*
X625979Y68277D01*
X626006Y68351D01*
X626031Y68397D01*
X626386Y69256D01*
X629244Y72114D01*
X632979Y73661D01*
X637021Y73661D01*
X640756Y72114D01*
X643614Y69256D01*
X645161Y65521D01*
X645161Y61479D01*
X643614Y57744D01*
X640756Y54886D01*
X637021Y53339D01*
X632979Y53339D01*
G37*
%LPD*%
%LPC*%
G36*
X582179Y53339D02*
X582179Y53339D01*
X578444Y54886D01*
X575586Y57744D01*
X574039Y61479D01*
X574039Y65521D01*
X575586Y69256D01*
X578444Y72114D01*
X582179Y73661D01*
X586221Y73661D01*
X589956Y72114D01*
X592814Y69256D01*
X593169Y68397D01*
X593277Y68181D01*
X593380Y67964D01*
X593404Y67927D01*
X593424Y67887D01*
X593560Y67689D01*
X593693Y67488D01*
X593722Y67454D01*
X593747Y67418D01*
X593910Y67241D01*
X594069Y67060D01*
X594103Y67031D01*
X594133Y66999D01*
X594320Y66845D01*
X594502Y66689D01*
X594539Y66665D01*
X594573Y66637D01*
X594779Y66512D01*
X594982Y66383D01*
X595022Y66364D01*
X595060Y66341D01*
X595281Y66246D01*
X595500Y66146D01*
X595543Y66134D01*
X595584Y66116D01*
X595816Y66053D01*
X596047Y65984D01*
X596091Y65978D01*
X596133Y65966D01*
X596372Y65936D01*
X596610Y65901D01*
X596655Y65900D01*
X596699Y65895D01*
X596939Y65898D01*
X597180Y65897D01*
X597224Y65903D01*
X597268Y65903D01*
X597507Y65941D01*
X597745Y65972D01*
X597787Y65984D01*
X597831Y65991D01*
X598062Y66061D01*
X598293Y66126D01*
X598334Y66144D01*
X598376Y66157D01*
X598594Y66259D01*
X598815Y66356D01*
X598853Y66379D01*
X598893Y66398D01*
X599095Y66529D01*
X599299Y66656D01*
X599333Y66684D01*
X599371Y66708D01*
X599552Y66867D01*
X599737Y67020D01*
X599767Y67053D01*
X599800Y67083D01*
X599958Y67265D01*
X600119Y67443D01*
X600139Y67473D01*
X600174Y67513D01*
X600483Y67992D01*
X600516Y68063D01*
X600544Y68107D01*
X600910Y68825D01*
X601850Y70119D01*
X602981Y71250D01*
X604275Y72190D01*
X605537Y72833D01*
X605537Y63500D01*
X605537Y54167D01*
X604275Y54810D01*
X602981Y55750D01*
X601850Y56881D01*
X600910Y58175D01*
X600544Y58893D01*
X600420Y59098D01*
X600300Y59308D01*
X600273Y59343D01*
X600250Y59381D01*
X600099Y59568D01*
X599951Y59758D01*
X599919Y59789D01*
X599891Y59823D01*
X599715Y59987D01*
X599542Y60155D01*
X599506Y60181D01*
X599474Y60211D01*
X599276Y60349D01*
X599082Y60491D01*
X599043Y60512D01*
X599006Y60537D01*
X598791Y60646D01*
X598579Y60759D01*
X598537Y60774D01*
X598498Y60794D01*
X598270Y60871D01*
X598044Y60954D01*
X598000Y60963D01*
X597958Y60977D01*
X597722Y61022D01*
X597486Y61072D01*
X597442Y61075D01*
X597398Y61084D01*
X597158Y61095D01*
X596918Y61111D01*
X596874Y61108D01*
X596829Y61110D01*
X596590Y61088D01*
X596350Y61071D01*
X596306Y61061D01*
X596262Y61057D01*
X596028Y61001D01*
X595793Y60951D01*
X595751Y60936D01*
X595708Y60925D01*
X595483Y60837D01*
X595258Y60754D01*
X595219Y60733D01*
X595177Y60717D01*
X594968Y60599D01*
X594756Y60485D01*
X594720Y60459D01*
X594681Y60437D01*
X594490Y60290D01*
X594296Y60148D01*
X594265Y60117D01*
X594229Y60090D01*
X594060Y59917D01*
X593889Y59750D01*
X593861Y59715D01*
X593830Y59683D01*
X593687Y59489D01*
X593540Y59299D01*
X593523Y59267D01*
X593492Y59224D01*
X593221Y58723D01*
X593194Y58649D01*
X593169Y58603D01*
X592814Y57744D01*
X589956Y54886D01*
X586221Y53339D01*
X582179Y53339D01*
G37*
%LPD*%
%LPC*%
G36*
X46591Y370839D02*
X46591Y370839D01*
X40639Y376791D01*
X40639Y385209D01*
X46591Y391161D01*
X55009Y391161D01*
X60961Y385209D01*
X60961Y376791D01*
X55009Y370839D01*
X46591Y370839D01*
G37*
%LPD*%
%LPC*%
G36*
X344423Y131513D02*
X344423Y131513D01*
X344423Y148787D01*
X352901Y148787D01*
X352901Y142600D01*
X352803Y142109D01*
X352636Y141705D01*
X352617Y141647D01*
X352591Y141593D01*
X352526Y141378D01*
X352455Y141164D01*
X352444Y141105D01*
X352427Y141047D01*
X352393Y140825D01*
X352352Y140604D01*
X352349Y140544D01*
X352340Y140484D01*
X352338Y140259D01*
X352328Y140035D01*
X352334Y139975D01*
X352333Y139914D01*
X352362Y139691D01*
X352384Y139468D01*
X352398Y139409D01*
X352406Y139349D01*
X352440Y139237D01*
X352519Y138914D01*
X352602Y138705D01*
X352636Y138595D01*
X352803Y138191D01*
X352901Y137700D01*
X352901Y131513D01*
X344423Y131513D01*
G37*
%LPD*%
%LPC*%
G36*
X160788Y400534D02*
X160788Y400534D01*
X160788Y405512D01*
X177266Y405512D01*
X177266Y402825D01*
X177168Y402334D01*
X176967Y401849D01*
X176949Y401794D01*
X176925Y401742D01*
X176859Y401525D01*
X176787Y401309D01*
X176776Y401252D01*
X176760Y401197D01*
X176739Y401067D01*
X176705Y401062D01*
X176593Y401028D01*
X176265Y400948D01*
X176060Y400866D01*
X175951Y400833D01*
X175466Y400632D01*
X174975Y400534D01*
X160788Y400534D01*
G37*
%LPD*%
%LPC*%
G36*
X160788Y413638D02*
X160788Y413638D01*
X160788Y418616D01*
X174975Y418616D01*
X175466Y418518D01*
X175928Y418327D01*
X176345Y418048D01*
X176698Y417695D01*
X176977Y417278D01*
X177168Y416816D01*
X177266Y416325D01*
X177266Y413638D01*
X160788Y413638D01*
G37*
%LPD*%
%LPC*%
G36*
X136184Y413638D02*
X136184Y413638D01*
X136184Y416325D01*
X136282Y416816D01*
X136473Y417278D01*
X136752Y417695D01*
X137105Y418048D01*
X137522Y418327D01*
X137984Y418518D01*
X138475Y418616D01*
X152662Y418616D01*
X152662Y413638D01*
X136184Y413638D01*
G37*
%LPD*%
%LPC*%
G36*
X138475Y400534D02*
X138475Y400534D01*
X137984Y400632D01*
X137522Y400823D01*
X137105Y401102D01*
X136752Y401455D01*
X136473Y401872D01*
X136282Y402334D01*
X136184Y402825D01*
X136184Y405512D01*
X152662Y405512D01*
X152662Y400534D01*
X138475Y400534D01*
G37*
%LPD*%
%LPC*%
G36*
X344423Y156913D02*
X344423Y156913D01*
X344423Y165391D01*
X350610Y165391D01*
X351101Y165293D01*
X351563Y165102D01*
X351980Y164823D01*
X352333Y164470D01*
X352612Y164053D01*
X352803Y163591D01*
X352901Y163100D01*
X352901Y156913D01*
X344423Y156913D01*
G37*
%LPD*%
%LPC*%
G36*
X642238Y155738D02*
X642238Y155738D01*
X642238Y160566D01*
X645775Y160566D01*
X646266Y160468D01*
X646728Y160277D01*
X647145Y159998D01*
X647498Y159645D01*
X647777Y159228D01*
X647968Y158766D01*
X648066Y158275D01*
X648066Y155738D01*
X642238Y155738D01*
G37*
%LPD*%
%LPC*%
G36*
X628284Y155738D02*
X628284Y155738D01*
X628284Y158275D01*
X628382Y158766D01*
X628573Y159228D01*
X628852Y159645D01*
X629205Y159998D01*
X629622Y160277D01*
X630084Y160468D01*
X630575Y160566D01*
X634112Y160566D01*
X634112Y155738D01*
X628284Y155738D01*
G37*
%LPD*%
%LPC*%
G36*
X642238Y142784D02*
X642238Y142784D01*
X642238Y147612D01*
X648066Y147612D01*
X648066Y145075D01*
X647968Y144584D01*
X647777Y144122D01*
X647498Y143705D01*
X647145Y143352D01*
X646728Y143073D01*
X646266Y142882D01*
X645775Y142784D01*
X642238Y142784D01*
G37*
%LPD*%
%LPC*%
G36*
X630575Y142784D02*
X630575Y142784D01*
X630084Y142882D01*
X629622Y143073D01*
X629205Y143352D01*
X628852Y143705D01*
X628573Y144122D01*
X628382Y144584D01*
X628284Y145075D01*
X628284Y147612D01*
X634112Y147612D01*
X634112Y142784D01*
X630575Y142784D01*
G37*
%LPD*%
%LPC*%
G36*
X677163Y385063D02*
X677163Y385063D01*
X677163Y391161D01*
X677309Y391161D01*
X683261Y385209D01*
X683261Y385063D01*
X677163Y385063D01*
G37*
%LPD*%
%LPC*%
G36*
X118363Y21337D02*
X118363Y21337D01*
X123691Y21337D01*
X123569Y21170D01*
X123445Y20941D01*
X123380Y20839D01*
X122990Y20075D01*
X122050Y18781D01*
X120919Y17650D01*
X119625Y16710D01*
X118363Y16067D01*
X118363Y21337D01*
G37*
%LPD*%
%LPC*%
G36*
X321563Y21337D02*
X321563Y21337D01*
X326891Y21337D01*
X326769Y21170D01*
X326645Y20941D01*
X326580Y20839D01*
X326190Y20075D01*
X325250Y18781D01*
X324119Y17650D01*
X322825Y16710D01*
X321563Y16067D01*
X321563Y21337D01*
G37*
%LPD*%
%LPC*%
G36*
X245363Y21337D02*
X245363Y21337D01*
X250691Y21337D01*
X250569Y21170D01*
X250445Y20941D01*
X250380Y20839D01*
X249990Y20075D01*
X249050Y18781D01*
X247919Y17650D01*
X246625Y16710D01*
X245363Y16067D01*
X245363Y21337D01*
G37*
%LPD*%
%LPC*%
G36*
X194563Y21337D02*
X194563Y21337D01*
X199891Y21337D01*
X199769Y21170D01*
X199645Y20941D01*
X199580Y20839D01*
X199190Y20075D01*
X198250Y18781D01*
X197119Y17650D01*
X195825Y16710D01*
X194563Y16067D01*
X194563Y21337D01*
G37*
%LPD*%
%LPC*%
G36*
X169163Y21337D02*
X169163Y21337D01*
X174491Y21337D01*
X174369Y21170D01*
X174244Y20940D01*
X174180Y20839D01*
X173790Y20075D01*
X172850Y18781D01*
X171719Y17650D01*
X170425Y16710D01*
X169163Y16067D01*
X169163Y21337D01*
G37*
%LPD*%
%LPC*%
G36*
X143763Y21337D02*
X143763Y21337D01*
X149091Y21337D01*
X148969Y21170D01*
X148844Y20940D01*
X148780Y20839D01*
X148390Y20075D01*
X147450Y18781D01*
X146319Y17650D01*
X145025Y16710D01*
X143763Y16067D01*
X143763Y21337D01*
G37*
%LPD*%
%LPC*%
G36*
X92963Y21337D02*
X92963Y21337D01*
X98291Y21337D01*
X98169Y21170D01*
X98044Y20940D01*
X97980Y20839D01*
X97590Y20075D01*
X96650Y18781D01*
X95519Y17650D01*
X94225Y16710D01*
X92963Y16067D01*
X92963Y21337D01*
G37*
%LPD*%
%LPC*%
G36*
X270763Y21337D02*
X270763Y21337D01*
X276091Y21337D01*
X275969Y21170D01*
X275844Y20940D01*
X275780Y20839D01*
X275390Y20075D01*
X274450Y18781D01*
X273319Y17650D01*
X272025Y16710D01*
X270763Y16067D01*
X270763Y21337D01*
G37*
%LPD*%
%LPC*%
G36*
X296163Y21337D02*
X296163Y21337D01*
X301491Y21337D01*
X301369Y21170D01*
X301244Y20940D01*
X301180Y20839D01*
X300790Y20075D01*
X299850Y18781D01*
X298719Y17650D01*
X297425Y16710D01*
X296163Y16067D01*
X296163Y21337D01*
G37*
%LPD*%
%LPC*%
G36*
X372363Y21337D02*
X372363Y21337D01*
X377691Y21337D01*
X377569Y21170D01*
X377444Y20940D01*
X377380Y20839D01*
X376990Y20075D01*
X376050Y18781D01*
X374919Y17650D01*
X373625Y16710D01*
X372363Y16067D01*
X372363Y21337D01*
G37*
%LPD*%
%LPC*%
G36*
X219963Y21337D02*
X219963Y21337D01*
X225291Y21337D01*
X225169Y21170D01*
X225044Y20940D01*
X224980Y20839D01*
X224590Y20075D01*
X223650Y18781D01*
X222519Y17650D01*
X221225Y16710D01*
X219963Y16067D01*
X219963Y21337D01*
G37*
%LPD*%
%LPC*%
G36*
X346963Y21337D02*
X346963Y21337D01*
X352291Y21337D01*
X352169Y21170D01*
X352044Y20940D01*
X351980Y20839D01*
X351590Y20075D01*
X350650Y18781D01*
X349519Y17650D01*
X348225Y16710D01*
X346963Y16067D01*
X346963Y21337D01*
G37*
%LPD*%
%LPC*%
G36*
X362975Y16710D02*
X362975Y16710D01*
X361681Y17650D01*
X360550Y18781D01*
X359610Y20075D01*
X359220Y20839D01*
X359179Y20908D01*
X359144Y20982D01*
X359032Y21153D01*
X358927Y21327D01*
X358919Y21337D01*
X364237Y21337D01*
X364237Y16067D01*
X362975Y16710D01*
G37*
%LPD*%
%LPC*%
G36*
X388375Y16710D02*
X388375Y16710D01*
X387081Y17650D01*
X385950Y18781D01*
X385010Y20075D01*
X384620Y20839D01*
X384579Y20908D01*
X384544Y20982D01*
X384432Y21153D01*
X384327Y21327D01*
X384319Y21337D01*
X389637Y21337D01*
X389637Y16067D01*
X388375Y16710D01*
G37*
%LPD*%
%LPC*%
G36*
X159775Y16710D02*
X159775Y16710D01*
X158481Y17650D01*
X157350Y18781D01*
X156410Y20075D01*
X156020Y20839D01*
X155979Y20908D01*
X155944Y20982D01*
X155832Y21153D01*
X155727Y21327D01*
X155719Y21337D01*
X161037Y21337D01*
X161037Y16067D01*
X159775Y16710D01*
G37*
%LPD*%
%LPC*%
G36*
X312175Y16710D02*
X312175Y16710D01*
X310881Y17650D01*
X309750Y18781D01*
X308810Y20075D01*
X308420Y20839D01*
X308379Y20908D01*
X308344Y20982D01*
X308232Y21153D01*
X308127Y21327D01*
X308119Y21337D01*
X313437Y21337D01*
X313437Y16067D01*
X312175Y16710D01*
G37*
%LPD*%
%LPC*%
G36*
X108975Y16710D02*
X108975Y16710D01*
X107681Y17650D01*
X106550Y18781D01*
X105610Y20075D01*
X105220Y20839D01*
X105179Y20908D01*
X105144Y20982D01*
X105032Y21153D01*
X104927Y21327D01*
X104919Y21337D01*
X110237Y21337D01*
X110237Y16067D01*
X108975Y16710D01*
G37*
%LPD*%
%LPC*%
G36*
X185175Y16710D02*
X185175Y16710D01*
X183881Y17650D01*
X182750Y18781D01*
X181810Y20075D01*
X181420Y20839D01*
X181379Y20908D01*
X181344Y20982D01*
X181232Y21153D01*
X181127Y21327D01*
X181119Y21337D01*
X186437Y21337D01*
X186437Y16067D01*
X185175Y16710D01*
G37*
%LPD*%
%LPC*%
G36*
X286775Y16710D02*
X286775Y16710D01*
X285481Y17650D01*
X284350Y18781D01*
X283410Y20075D01*
X283020Y20839D01*
X282979Y20908D01*
X282944Y20982D01*
X282832Y21153D01*
X282727Y21327D01*
X282719Y21337D01*
X288037Y21337D01*
X288037Y16067D01*
X286775Y16710D01*
G37*
%LPD*%
%LPC*%
G36*
X235975Y16710D02*
X235975Y16710D01*
X234681Y17650D01*
X233550Y18781D01*
X232610Y20075D01*
X232220Y20839D01*
X232179Y20908D01*
X232144Y20982D01*
X232032Y21153D01*
X231927Y21327D01*
X231919Y21337D01*
X237237Y21337D01*
X237237Y16067D01*
X235975Y16710D01*
G37*
%LPD*%
%LPC*%
G36*
X210575Y16710D02*
X210575Y16710D01*
X209281Y17650D01*
X208150Y18781D01*
X207210Y20075D01*
X206820Y20839D01*
X206779Y20908D01*
X206744Y20982D01*
X206632Y21152D01*
X206527Y21327D01*
X206519Y21337D01*
X211837Y21337D01*
X211837Y16067D01*
X210575Y16710D01*
G37*
%LPD*%
%LPC*%
G36*
X134375Y16710D02*
X134375Y16710D01*
X133081Y17650D01*
X131950Y18781D01*
X131010Y20075D01*
X130620Y20839D01*
X130579Y20908D01*
X130544Y20982D01*
X130432Y21152D01*
X130327Y21327D01*
X130319Y21337D01*
X135637Y21337D01*
X135637Y16067D01*
X134375Y16710D01*
G37*
%LPD*%
%LPC*%
G36*
X261375Y16710D02*
X261375Y16710D01*
X260081Y17650D01*
X258950Y18781D01*
X258010Y20075D01*
X257620Y20839D01*
X257579Y20908D01*
X257544Y20982D01*
X257432Y21152D01*
X257327Y21327D01*
X257319Y21337D01*
X262637Y21337D01*
X262637Y16067D01*
X261375Y16710D01*
G37*
%LPD*%
%LPC*%
G36*
X337575Y16710D02*
X337575Y16710D01*
X336281Y17650D01*
X335150Y18781D01*
X334210Y20075D01*
X333820Y20839D01*
X333779Y20908D01*
X333744Y20982D01*
X333632Y21152D01*
X333527Y21327D01*
X333519Y21337D01*
X338837Y21337D01*
X338837Y16067D01*
X337575Y16710D01*
G37*
%LPD*%
%LPC*%
G36*
X423163Y165988D02*
X423163Y165988D01*
X423163Y171258D01*
X424425Y170615D01*
X425719Y169675D01*
X426850Y168544D01*
X427790Y167250D01*
X428433Y165988D01*
X423163Y165988D01*
G37*
%LPD*%
%LPC*%
G36*
X639063Y442213D02*
X639063Y442213D01*
X639063Y447483D01*
X640325Y446840D01*
X641619Y445900D01*
X642750Y444769D01*
X643690Y443475D01*
X644333Y442213D01*
X639063Y442213D01*
G37*
%LPD*%
%LPC*%
G36*
X677163Y105663D02*
X677163Y105663D01*
X677163Y110933D01*
X678425Y110290D01*
X679719Y109350D01*
X680850Y108219D01*
X681790Y106925D01*
X682433Y105663D01*
X677163Y105663D01*
G37*
%LPD*%
%LPC*%
G36*
X397763Y21337D02*
X397763Y21337D01*
X403033Y21337D01*
X402390Y20075D01*
X401450Y18781D01*
X400319Y17650D01*
X399025Y16710D01*
X397763Y16067D01*
X397763Y21337D01*
G37*
%LPD*%
%LPC*%
G36*
X625667Y442213D02*
X625667Y442213D01*
X626310Y443475D01*
X627250Y444769D01*
X628381Y445900D01*
X629675Y446840D01*
X630937Y447483D01*
X630937Y442213D01*
X625667Y442213D01*
G37*
%LPD*%
%LPC*%
G36*
X409767Y165988D02*
X409767Y165988D01*
X410410Y167250D01*
X411350Y168544D01*
X412481Y169675D01*
X413775Y170615D01*
X415037Y171258D01*
X415037Y165988D01*
X409767Y165988D01*
G37*
%LPD*%
%LPC*%
G36*
X83575Y16710D02*
X83575Y16710D01*
X82281Y17650D01*
X81150Y18781D01*
X80210Y20075D01*
X79567Y21337D01*
X84837Y21337D01*
X84837Y16067D01*
X83575Y16710D01*
G37*
%LPD*%
%LPC*%
G36*
X569213Y209422D02*
X569213Y209422D01*
X569213Y217954D01*
X569655Y217771D01*
X570072Y217492D01*
X570425Y217139D01*
X570704Y216722D01*
X570895Y216260D01*
X570993Y215769D01*
X570993Y209422D01*
X569213Y209422D01*
G37*
%LPD*%
D10*
X67247Y190500D02*
X85154Y190500D01*
X85154Y139700D02*
X67247Y139700D01*
D11*
X47625Y292354D02*
X47625Y304546D01*
X98425Y304546D02*
X98425Y292354D01*
X73025Y292354D02*
X73025Y304546D01*
D12*
X317500Y300063D03*
X317500Y319063D03*
X292100Y300063D03*
X292100Y319063D03*
D13*
X77975Y409575D03*
X156725Y409575D03*
D14*
X203200Y431800D03*
X203200Y406400D03*
X203200Y381000D03*
D12*
X190500Y300063D03*
X190500Y319063D03*
D14*
X254000Y431800D03*
X254000Y406400D03*
X254000Y381000D03*
D12*
X215900Y300063D03*
X215900Y319063D03*
D14*
X304800Y431800D03*
X304800Y406400D03*
X304800Y381000D03*
D12*
X241300Y300063D03*
X241300Y319063D03*
D14*
X355600Y431800D03*
X355600Y406400D03*
X355600Y381000D03*
D12*
X266700Y300063D03*
X266700Y319063D03*
D14*
X482600Y431800D03*
X482600Y406400D03*
X482600Y381000D03*
D12*
X342900Y300063D03*
X342900Y319063D03*
D14*
X508000Y431800D03*
X508000Y406400D03*
X508000Y381000D03*
D12*
X368300Y300063D03*
X368300Y319063D03*
D14*
X406400Y431800D03*
X406400Y406400D03*
X406400Y381000D03*
D12*
X393700Y300063D03*
X393700Y319063D03*
D14*
X431800Y431800D03*
X431800Y406400D03*
X431800Y381000D03*
D12*
X469900Y300063D03*
X469900Y319063D03*
D14*
X558800Y431800D03*
X558800Y406400D03*
X558800Y381000D03*
D12*
X495300Y319063D03*
X495300Y300063D03*
D14*
X673100Y101600D03*
X673100Y76200D03*
X342900Y25400D03*
X342900Y50800D03*
X139700Y25400D03*
X139700Y50800D03*
X88900Y25400D03*
X88900Y50800D03*
X114300Y25400D03*
X114300Y50800D03*
X190500Y25400D03*
X190500Y50800D03*
X241300Y25400D03*
X241300Y50800D03*
D15*
X558825Y266700D03*
X577825Y266700D03*
X596925Y238125D03*
X615925Y238125D03*
X558825Y292100D03*
X577825Y292100D03*
D16*
X673100Y330200D03*
X647700Y330200D03*
X673100Y355600D03*
X647700Y355600D03*
X673100Y381000D03*
X647700Y381000D03*
D14*
X152400Y88900D03*
X203200Y88900D03*
X228600Y88900D03*
X254000Y88900D03*
X279400Y88900D03*
X304800Y88900D03*
X330200Y88900D03*
X355600Y88900D03*
X381000Y88900D03*
X406400Y88900D03*
X431800Y88900D03*
X457200Y88900D03*
X482600Y88900D03*
X508000Y88900D03*
X152400Y342900D03*
X177800Y342900D03*
X203100Y342900D03*
X228600Y342900D03*
X254000Y342900D03*
X279400Y342900D03*
X304800Y342900D03*
X330200Y342900D03*
X355600Y342900D03*
X381000Y342900D03*
X406400Y342900D03*
X431800Y342900D03*
X457200Y342900D03*
X482600Y342900D03*
X508000Y342900D03*
X177800Y88900D03*
X228600Y431800D03*
X228600Y406400D03*
X228600Y381000D03*
X279400Y431800D03*
X279400Y406400D03*
X279400Y381000D03*
X330200Y431800D03*
X330200Y406400D03*
X330200Y381000D03*
X381000Y431800D03*
X381000Y406400D03*
X381000Y381000D03*
X292100Y25400D03*
X292100Y50800D03*
X317500Y25400D03*
X317500Y50800D03*
X393700Y25400D03*
X393700Y50800D03*
X368300Y25400D03*
X368300Y50800D03*
X165100Y25400D03*
X165100Y50800D03*
X266700Y25400D03*
X266700Y50800D03*
X215900Y25400D03*
X215900Y50800D03*
D17*
X196850Y143891D03*
X196850Y205359D03*
X209550Y143891D03*
X222250Y143891D03*
X209550Y205359D03*
X222250Y205359D03*
X234950Y143891D03*
X234950Y205359D03*
X247650Y143891D03*
X247650Y205359D03*
X260350Y143891D03*
X273050Y143891D03*
X260350Y205359D03*
X273050Y205359D03*
X285750Y143891D03*
X285750Y205359D03*
D18*
X419100Y136525D03*
D14*
X419100Y161925D03*
X419100Y244475D03*
X419100Y269875D03*
X419100Y295275D03*
D17*
X476250Y143891D03*
X476250Y205359D03*
X488950Y143891D03*
X501650Y143891D03*
X488950Y205359D03*
X501650Y205359D03*
X514350Y143891D03*
X514350Y205359D03*
X527050Y143891D03*
X527050Y205359D03*
X539750Y143891D03*
X552450Y143891D03*
X539750Y205359D03*
X552450Y205359D03*
X565150Y143891D03*
X565150Y205359D03*
D19*
X638175Y108675D03*
X638175Y151675D03*
D20*
X54700Y339725D03*
X97700Y339725D03*
D21*
X560100Y342900D03*
X532100Y342900D03*
D22*
X154940Y266250D03*
D23*
X154940Y127450D03*
D22*
X340360Y266250D03*
X154940Y240850D03*
X340360Y240850D03*
D23*
X154940Y152850D03*
X340360Y127450D03*
X340360Y152850D03*
D14*
X482600Y25400D03*
X508000Y25400D03*
X533400Y25400D03*
X558800Y25400D03*
X584200Y25400D03*
X609600Y25400D03*
X635000Y25400D03*
X673100Y279400D03*
X673100Y254000D03*
X673100Y228600D03*
X673100Y203200D03*
X673100Y177800D03*
X673100Y152400D03*
D20*
X54700Y95250D03*
X97700Y95250D03*
D14*
X635000Y438150D03*
X635000Y412750D03*
X584200Y63500D03*
X609600Y63500D03*
X635000Y63500D03*
D24*
X50800Y381000D03*
D25*
X152655Y290830D02*
X173038Y270193D01*
X406400Y282575D02*
X419100Y295275D01*
X406400Y282575D02*
X404813Y280988D01*
X282310Y270193D02*
X173038Y270193D01*
X350838Y280988D02*
X404813Y280988D01*
X152655Y290830D02*
X116433Y290830D01*
X102844Y278511D01*
X92964Y278511D02*
X73025Y298450D01*
X92964Y278511D02*
X102844Y278511D01*
X293105Y280988D02*
X350838Y280988D01*
X293105Y280988D02*
X282310Y270193D01*
X292100Y300063D02*
X317500Y300063D01*
X292100Y300063D02*
X292100Y293713D01*
X276200Y277813D01*
X176213Y277813D02*
X155575Y298450D01*
X98425Y298450D01*
X176213Y277813D02*
X276200Y277813D01*
D26*
X177800Y206375D03*
X161925Y206375D03*
D27*
X635000Y212852D03*
D25*
X330889Y229289D02*
X304400Y255778D01*
X211328Y255778D02*
X161925Y206375D01*
X211328Y255778D02*
X304400Y255778D01*
X330889Y229289D02*
X331313Y229289D01*
X334324Y226278D01*
X353278Y226278D01*
X424150Y257683D02*
X431292Y264825D01*
X424150Y257683D02*
X384683Y257683D01*
X353278Y226278D01*
X431292Y300325D02*
X424150Y307467D01*
X414050Y307467D01*
X406908Y300325D01*
X431292Y300325D02*
X431292Y264825D01*
X406908Y292805D02*
X401695Y287592D01*
X406908Y292805D02*
X406908Y300325D01*
X431292Y264825D02*
X444500Y278033D01*
X444500Y279400D01*
X401695Y287592D02*
X296863Y287592D01*
D27*
X295275Y142875D03*
D28*
X565150Y143891D02*
X565150Y127000D01*
X561975Y123825D01*
D27*
X561975Y123825D03*
D29*
X552450Y123825D01*
D27*
X552450Y123825D03*
D29*
X304800Y142875D02*
X295275Y142875D01*
D27*
X304800Y142875D03*
X295275Y133350D03*
X552450Y114300D03*
D29*
X552450Y123825D01*
X295275Y133350D02*
X295275Y142875D01*
D25*
X544225Y358775D02*
X560100Y342900D01*
X544225Y358775D02*
X539750Y358775D01*
D27*
X539750Y358775D03*
D28*
X295275Y142875D02*
X286766Y142875D01*
X285750Y143891D01*
D30*
X107950Y409575D02*
X107950Y441325D01*
D26*
X107950Y409575D03*
X107950Y425450D03*
X107950Y441325D03*
D30*
X79375Y444500D02*
X79375Y428625D01*
D26*
X79375Y444500D03*
X79375Y428625D03*
D31*
X79375Y410975D01*
X77975Y409575D01*
X107950Y409575D01*
D25*
X203100Y342900D02*
X203200Y342800D01*
X203200Y309563D01*
X193700Y300063D01*
X190500Y300063D01*
X228600Y309563D02*
X228600Y342900D01*
X228600Y309563D02*
X219100Y300063D01*
X215900Y300063D01*
X279400Y309563D02*
X279400Y342900D01*
X279400Y309563D02*
X269900Y300063D01*
X266700Y300063D01*
X254000Y309563D02*
X254000Y342900D01*
X254000Y309563D02*
X244500Y300063D01*
X241300Y300063D01*
X292100Y319063D02*
X292100Y330200D01*
X304800Y342900D01*
X355600Y342900D02*
X355600Y309563D01*
X346100Y300063D02*
X342900Y300063D01*
X346100Y300063D02*
X355600Y309563D01*
X406400Y309563D02*
X406400Y342900D01*
X406400Y309563D02*
X396900Y300063D01*
X393700Y300063D01*
X317500Y319063D02*
X317500Y330200D01*
X330200Y342900D01*
X381000Y342900D02*
X381000Y309563D01*
X371500Y300063D01*
X368300Y300063D01*
X431800Y334963D02*
X431800Y342900D01*
X431800Y334963D02*
X466700Y300063D01*
X469900Y300063D01*
X495300Y330200D02*
X482600Y342900D01*
X495300Y330200D02*
X495300Y319063D01*
X539750Y143891D02*
X552450Y143891D01*
X539750Y143891D02*
X527050Y143891D01*
X539750Y143891D02*
X539750Y120650D01*
X508000Y88900D01*
X514350Y120650D02*
X514350Y143891D01*
X514350Y120650D02*
X482600Y88900D01*
X501650Y133350D02*
X501650Y143891D01*
X469392Y101092D02*
X445800Y101092D01*
X433608Y88900D01*
X431800Y88900D01*
X469392Y101092D02*
X501650Y133350D01*
X412750Y120650D02*
X381000Y88900D01*
X412750Y120650D02*
X463550Y120650D01*
X476250Y133350D02*
X476250Y143891D01*
X476250Y133350D02*
X463550Y120650D01*
X330200Y88900D02*
X323850Y88900D01*
X301625Y111125D01*
X282575Y111125D01*
X260350Y133350D01*
X260350Y143891D01*
X234950Y133350D02*
X279400Y88900D01*
X234950Y133350D02*
X234950Y143891D01*
X209550Y143891D02*
X209550Y107950D01*
X228600Y88900D01*
X196850Y95250D02*
X196850Y143891D01*
X196850Y95250D02*
X203200Y88900D01*
X222250Y120650D02*
X222250Y143891D01*
X222250Y120650D02*
X254000Y88900D01*
X292100Y101600D02*
X304800Y88900D01*
X292100Y101600D02*
X279400Y101600D01*
X247650Y133350D01*
X247650Y143891D01*
X273050Y133350D02*
X285750Y120650D01*
X273050Y133350D02*
X273050Y143891D01*
X342900Y101600D02*
X355600Y88900D01*
X342900Y101600D02*
X323850Y101600D01*
X304800Y120650D01*
X285750Y120650D01*
X488950Y133350D02*
X488950Y143891D01*
X488950Y133350D02*
X466725Y111125D01*
X428625Y111125D02*
X406400Y88900D01*
X428625Y111125D02*
X466725Y111125D01*
X203200Y381000D02*
X190500Y368300D01*
X190500Y319063D01*
X203200Y381000D02*
X228600Y381000D01*
D32*
X406400Y406400D02*
X431800Y406400D01*
X406400Y406400D02*
X482600Y406400D01*
X508000Y406400D01*
X406400Y406400D02*
X381000Y406400D01*
X330200Y406400D02*
X304800Y406400D01*
X279400Y406400D02*
X254000Y406400D01*
X228600Y406400D02*
X203200Y406400D01*
X228600Y406400D02*
X254000Y406400D01*
X279400Y406400D02*
X304800Y406400D01*
X330200Y406400D02*
X355600Y406400D01*
X381000Y406400D01*
D11*
X203200Y406400D02*
X203200Y404813D01*
X187325Y388938D01*
X187325Y387350D01*
X168275Y368300D01*
X80963Y368300D01*
D32*
X508000Y406400D02*
X558800Y406400D01*
D11*
X80963Y368300D02*
X54700Y342038D01*
X54700Y339725D01*
D32*
X628650Y406400D02*
X635000Y412750D01*
X628650Y406400D02*
X558800Y406400D01*
D25*
X215900Y349250D02*
X215900Y319063D01*
X215900Y349250D02*
X231775Y365125D01*
X238125Y365125D01*
X254000Y381000D01*
X279400Y381000D01*
X304800Y381000D02*
X330200Y381000D01*
X241300Y349250D02*
X241300Y319063D01*
X241300Y349250D02*
X257175Y365125D01*
X288925Y365125D01*
X304800Y381000D01*
X355600Y381000D02*
X381000Y381000D01*
X266700Y349250D02*
X266700Y319063D01*
X266700Y349250D02*
X275971Y358521D01*
X333121Y358521D02*
X355600Y381000D01*
X333121Y358521D02*
X275971Y358521D01*
X342900Y347442D02*
X351058Y355600D01*
X381000Y355600D01*
X394208Y368808D02*
X394208Y386050D01*
X401858Y393700D01*
X469900Y393700D01*
X482600Y381000D01*
X342900Y347442D02*
X342900Y319063D01*
X381000Y355600D02*
X394208Y368808D01*
D11*
X149225Y339725D02*
X97700Y339725D01*
X149225Y339725D02*
X152400Y342900D01*
D25*
X368300Y331788D02*
X368300Y319063D01*
D27*
X368300Y331788D03*
D25*
X393700Y319063D02*
X393700Y355600D01*
X406400Y368300D01*
X406400Y381000D01*
X431800Y381000D02*
X444500Y368300D01*
X444500Y334963D01*
X460400Y319063D01*
X469900Y319063D01*
X495300Y300063D02*
X515963Y300063D01*
X527050Y311150D01*
X568325Y311150D01*
X587375Y330200D01*
X587375Y352425D01*
X558800Y381000D01*
D33*
X368300Y50800D02*
X342900Y50800D01*
D28*
X583554Y117316D02*
X583554Y159396D01*
X381889Y64389D02*
X368300Y50800D01*
X574675Y168275D02*
X583554Y159396D01*
X583554Y117316D02*
X530627Y64389D01*
X381889Y64389D01*
X501650Y190987D02*
X501650Y205359D01*
X501650Y190987D02*
X517768Y174868D01*
X524362Y168275D01*
X574675Y168275D01*
X558825Y292100D02*
X533425Y292100D01*
X505358Y264033D01*
X462343Y264033D01*
X416655Y218345D01*
X331057Y218345D01*
X301244Y248158D01*
X230568Y248158D01*
X196850Y214440D01*
X196850Y205359D01*
D27*
X533425Y292100D03*
D28*
X520725Y266700D02*
X558825Y266700D01*
X520725Y266700D02*
X509422Y255397D01*
X465921Y255397D01*
X418941Y208418D02*
X328771Y208418D01*
X418941Y208418D02*
X465921Y255397D01*
X328771Y208418D02*
X297667Y239522D01*
X234146Y239522D01*
X209550Y214926D02*
X209550Y205359D01*
X209550Y214926D02*
X234146Y239522D01*
X209550Y205359D02*
X209550Y187325D01*
X136525Y187325D01*
D27*
X520809Y266592D03*
D28*
X520917Y266700D01*
X558825Y266700D01*
X111506Y105156D02*
X111506Y73406D01*
X124714Y118364D02*
X124714Y175514D01*
X136525Y187325D01*
X111506Y73406D02*
X88900Y50800D01*
X111506Y105156D02*
X124714Y118364D01*
X581427Y246761D02*
X590063Y238125D01*
X581427Y246761D02*
X469498Y246761D01*
X422518Y199782D01*
X325194Y199782D01*
X294090Y230886D01*
X237723Y230886D01*
X222250Y215413D01*
X222250Y205359D01*
X590063Y238125D02*
X596925Y238125D01*
X120142Y56642D02*
X114300Y50800D01*
D27*
X581427Y246761D03*
D28*
X215900Y178689D02*
X140102Y178689D01*
X215900Y178689D02*
X222250Y185039D01*
X222250Y205359D01*
X133350Y114787D02*
X120142Y101579D01*
X120142Y56642D01*
X133350Y171937D02*
X140102Y178689D01*
X133350Y171937D02*
X133350Y114787D01*
X574675Y238125D02*
X584200Y228600D01*
X254000Y222250D02*
X247650Y215900D01*
X247650Y205359D01*
X473075Y238125D02*
X574675Y238125D01*
X473075Y238125D02*
X425450Y190500D01*
X322263Y190500D01*
X290513Y222250D01*
X269875Y222250D01*
X254000Y222250D01*
D27*
X584200Y228600D03*
D28*
X476250Y205359D02*
X463550Y192659D01*
X463550Y168275D01*
D27*
X463550Y168275D03*
D28*
X488950Y187812D02*
X488950Y205359D01*
X488950Y187812D02*
X517123Y159639D01*
X571098Y159639D02*
X574918Y155818D01*
X574918Y120893D01*
X571098Y159639D02*
X517123Y159639D01*
X574918Y120893D02*
X527050Y73025D01*
X378312Y73025D01*
X369295Y64008D01*
X324221Y50800D02*
X317500Y50800D01*
X324221Y50800D02*
X337429Y64008D01*
X369295Y64008D01*
X393700Y50800D02*
X398653Y55753D01*
X578252Y176911D02*
X592190Y162973D01*
X592190Y113739D01*
X534204Y55753D01*
X398653Y55753D01*
X514350Y196694D02*
X514350Y205359D01*
X514350Y196694D02*
X534133Y176911D01*
X578252Y176911D01*
D33*
X266700Y50800D02*
X241300Y50800D01*
D28*
X362388Y75692D02*
X368300Y82550D01*
X362388Y75692D02*
X292100Y75692D01*
X266700Y50800D01*
D34*
X368300Y88900D02*
X368300Y94879D01*
X368300Y98054D01*
X368300Y88900D02*
X368300Y82550D01*
D28*
X368300Y98054D02*
X355414Y110939D01*
X318135Y120015D02*
X318135Y151174D01*
X291509Y177800D02*
X282575Y177800D01*
X273050Y187325D01*
X291509Y177800D02*
X318135Y151174D01*
X273050Y187325D02*
X273050Y205359D01*
X355414Y110939D02*
X387350Y142875D01*
D27*
X387350Y142875D03*
D28*
X355414Y110939D02*
X327211Y110939D01*
X318135Y120015D01*
D33*
X165100Y50800D02*
X139700Y50800D01*
D28*
X128778Y98002D02*
X142092Y111316D01*
X169698Y111316D02*
X177800Y119417D01*
X177800Y160528D01*
X169698Y111316D02*
X142092Y111316D01*
X219477Y170053D02*
X234950Y185526D01*
X187325Y170053D02*
X177800Y160528D01*
X234950Y185526D02*
X234950Y205359D01*
X219477Y170053D02*
X187325Y170053D01*
X128778Y61722D02*
X139700Y50800D01*
X128778Y61722D02*
X128778Y98002D01*
D33*
X190500Y50800D02*
X215900Y50800D01*
D28*
X260350Y195834D02*
X260350Y205359D01*
X260350Y195834D02*
X225933Y161417D01*
X145669Y102680D02*
X137414Y94424D01*
X137414Y82952D01*
X145669Y102680D02*
X173275Y102680D01*
X144674Y75692D02*
X137414Y82952D01*
X165608Y75692D02*
X190500Y50800D01*
X165608Y75692D02*
X144674Y75692D01*
X186436Y155575D02*
X192278Y161417D01*
X186436Y155575D02*
X186436Y115840D01*
X173275Y102680D01*
X192278Y161417D02*
X225933Y161417D01*
X539750Y205359D02*
X552450Y205359D01*
X539750Y205359D02*
X527050Y205359D01*
X539750Y205359D02*
X539750Y187325D01*
X586888Y187325D01*
D11*
X606425Y167788D01*
X640625Y108675D02*
X673100Y76200D01*
X640625Y108675D02*
X638175Y108675D01*
X625475Y108675D01*
X606425Y127725D01*
X606425Y167788D01*
D28*
X673100Y152771D02*
X686308Y165979D01*
X686308Y259471D02*
X679079Y266700D01*
X686308Y259471D02*
X686308Y165979D01*
D34*
X679079Y266700D02*
X660400Y266700D01*
D28*
X638175Y266700D01*
X612775Y292100D01*
X577825Y292100D01*
X673100Y152771D02*
X673100Y152400D01*
X669925Y203200D02*
X635000Y238125D01*
X615925Y238125D01*
X669925Y203200D02*
X673100Y203200D01*
X634598Y258064D02*
X625962Y266700D01*
X669036Y258064D02*
X673100Y254000D01*
X669036Y258064D02*
X634598Y258064D01*
X625962Y266700D02*
X577825Y266700D01*
D25*
X532100Y342900D02*
X508000Y342900D01*
D11*
X97700Y116750D02*
X97700Y95250D01*
D30*
X97700Y116750D02*
X107950Y127000D01*
X108966Y127000D01*
D26*
X108966Y127000D03*
D11*
X54700Y114300D02*
X54700Y95250D01*
D30*
X54700Y117475D02*
X76200Y138975D01*
X76200Y139700D01*
D11*
X54700Y117475D02*
X54700Y114300D01*
M02*
