G04 EAGLE Gerber RS-274X export*
G75*
%MOMM*%
%FSLAX34Y34*%
%LPD*%
%INSoldermask Top*%
%IPPOS*%
%AMOC8*
5,1,8,0,0,1.08239X$1,22.5*%
G01*
%ADD10C,3.149600*%
%ADD11C,1.943100*%
%ADD12C,1.371600*%
%ADD13R,1.652400X1.452400*%
%ADD14R,3.752400X1.452400*%
%ADD15C,1.676400*%
%ADD16R,1.452400X1.652400*%
%ADD17P,1.814519X8X112.500000*%
%ADD18R,0.812800X2.184400*%
%ADD19R,1.676400X1.676400*%
%ADD20R,1.622400X1.422400*%
%ADD21R,1.422400X1.622400*%
%ADD22R,1.752400X1.952400*%
%ADD23C,2.152400*%
%ADD24R,2.152400X2.152400*%
%ADD25P,1.814519X8X22.500000*%
%ADD26C,1.502400*%
%ADD27C,0.858000*%


D10*
X31750Y438150D03*
X31750Y19050D03*
X692150Y19050D03*
X692150Y438150D03*
D11*
X85154Y190500D02*
X67247Y190500D01*
X67247Y139700D02*
X85154Y139700D01*
D12*
X47625Y292354D02*
X47625Y304546D01*
X98425Y304546D02*
X98425Y292354D01*
X73025Y292354D02*
X73025Y304546D01*
D13*
X317500Y300063D03*
X317500Y319063D03*
X292100Y300063D03*
X292100Y319063D03*
D14*
X77975Y409575D03*
X156725Y409575D03*
D15*
X203200Y431800D03*
X203200Y406400D03*
X203200Y381000D03*
D13*
X190500Y300063D03*
X190500Y319063D03*
D15*
X254000Y431800D03*
X254000Y406400D03*
X254000Y381000D03*
D13*
X215900Y300063D03*
X215900Y319063D03*
D15*
X304800Y431800D03*
X304800Y406400D03*
X304800Y381000D03*
D13*
X241300Y300063D03*
X241300Y319063D03*
D15*
X355600Y431800D03*
X355600Y406400D03*
X355600Y381000D03*
D13*
X266700Y300063D03*
X266700Y319063D03*
D15*
X482600Y431800D03*
X482600Y406400D03*
X482600Y381000D03*
D13*
X342900Y300063D03*
X342900Y319063D03*
D15*
X508000Y431800D03*
X508000Y406400D03*
X508000Y381000D03*
D13*
X368300Y300063D03*
X368300Y319063D03*
D15*
X406400Y431800D03*
X406400Y406400D03*
X406400Y381000D03*
D13*
X393700Y300063D03*
X393700Y319063D03*
D15*
X431800Y431800D03*
X431800Y406400D03*
X431800Y381000D03*
D13*
X469900Y300063D03*
X469900Y319063D03*
D15*
X558800Y431800D03*
X558800Y406400D03*
X558800Y381000D03*
D13*
X495300Y319063D03*
X495300Y300063D03*
D15*
X673100Y101600D03*
X673100Y76200D03*
X342900Y25400D03*
X342900Y50800D03*
X139700Y25400D03*
X139700Y50800D03*
X88900Y25400D03*
X88900Y50800D03*
X114300Y25400D03*
X114300Y50800D03*
X190500Y25400D03*
X190500Y50800D03*
X241300Y25400D03*
X241300Y50800D03*
D16*
X558825Y266700D03*
X577825Y266700D03*
X596925Y238125D03*
X615925Y238125D03*
X558825Y292100D03*
X577825Y292100D03*
D17*
X673100Y330200D03*
X647700Y330200D03*
X673100Y355600D03*
X647700Y355600D03*
X673100Y381000D03*
X647700Y381000D03*
D15*
X152400Y88900D03*
X203200Y88900D03*
X228600Y88900D03*
X254000Y88900D03*
X279400Y88900D03*
X304800Y88900D03*
X330200Y88900D03*
X355600Y88900D03*
X381000Y88900D03*
X406400Y88900D03*
X431800Y88900D03*
X457200Y88900D03*
X482600Y88900D03*
X508000Y88900D03*
X152400Y342900D03*
X177800Y342900D03*
X203100Y342900D03*
X228600Y342900D03*
X254000Y342900D03*
X279400Y342900D03*
X304800Y342900D03*
X330200Y342900D03*
X355600Y342900D03*
X381000Y342900D03*
X406400Y342900D03*
X431800Y342900D03*
X457200Y342900D03*
X482600Y342900D03*
X508000Y342900D03*
X177800Y88900D03*
X228600Y431800D03*
X228600Y406400D03*
X228600Y381000D03*
X279400Y431800D03*
X279400Y406400D03*
X279400Y381000D03*
X330200Y431800D03*
X330200Y406400D03*
X330200Y381000D03*
X381000Y431800D03*
X381000Y406400D03*
X381000Y381000D03*
X292100Y25400D03*
X292100Y50800D03*
X317500Y25400D03*
X317500Y50800D03*
X393700Y25400D03*
X393700Y50800D03*
X368300Y25400D03*
X368300Y50800D03*
X165100Y25400D03*
X165100Y50800D03*
X266700Y25400D03*
X266700Y50800D03*
X215900Y25400D03*
X215900Y50800D03*
D18*
X196850Y143891D03*
X196850Y205359D03*
X209550Y143891D03*
X222250Y143891D03*
X209550Y205359D03*
X222250Y205359D03*
X234950Y143891D03*
X234950Y205359D03*
X247650Y143891D03*
X247650Y205359D03*
X260350Y143891D03*
X273050Y143891D03*
X260350Y205359D03*
X273050Y205359D03*
X285750Y143891D03*
X285750Y205359D03*
D19*
X419100Y136525D03*
D15*
X419100Y161925D03*
X419100Y244475D03*
X419100Y269875D03*
X419100Y295275D03*
D18*
X476250Y143891D03*
X476250Y205359D03*
X488950Y143891D03*
X501650Y143891D03*
X488950Y205359D03*
X501650Y205359D03*
X514350Y143891D03*
X514350Y205359D03*
X527050Y143891D03*
X527050Y205359D03*
X539750Y143891D03*
X552450Y143891D03*
X539750Y205359D03*
X552450Y205359D03*
X565150Y143891D03*
X565150Y205359D03*
D20*
X638175Y108675D03*
X638175Y151675D03*
D21*
X54700Y339725D03*
X97700Y339725D03*
D22*
X560100Y342900D03*
X532100Y342900D03*
D23*
X154940Y266250D03*
D24*
X154940Y127450D03*
D23*
X340360Y266250D03*
X154940Y240850D03*
X340360Y240850D03*
D24*
X154940Y152850D03*
X340360Y127450D03*
X340360Y152850D03*
D15*
X482600Y25400D03*
X508000Y25400D03*
X533400Y25400D03*
X558800Y25400D03*
X584200Y25400D03*
X609600Y25400D03*
X635000Y25400D03*
X673100Y279400D03*
X673100Y254000D03*
X673100Y228600D03*
X673100Y203200D03*
X673100Y177800D03*
X673100Y152400D03*
D21*
X54700Y95250D03*
X97700Y95250D03*
D15*
X635000Y438150D03*
X635000Y412750D03*
X584200Y63500D03*
X609600Y63500D03*
X635000Y63500D03*
D25*
X50800Y381000D03*
D26*
X177800Y206375D03*
X161925Y206375D03*
D27*
X635000Y212852D03*
X295275Y142875D03*
X561975Y123825D03*
X552450Y123825D03*
X304800Y142875D03*
X295275Y133350D03*
X552450Y114300D03*
X539750Y358775D03*
D26*
X107950Y409575D03*
X107950Y425450D03*
X107950Y441325D03*
X79375Y444500D03*
X79375Y428625D03*
D27*
X368300Y331788D03*
X533425Y292100D03*
X520809Y266592D03*
X581427Y246761D03*
X584200Y228600D03*
X463550Y168275D03*
X387350Y142875D03*
D26*
X108966Y127000D03*
M02*
