M48
;GenerationSoftware,Autodesk,EAGLE,9.6.2*%
;CreationDate,2021-11-24T03:13:03Z*%
FMAT,2
ICI,OFF
METRIC,TZ,000.000
T7C0.350
T6C0.813
T5C0.900
T4C1.016
T3C1.194
T2C1.200
T1C2.997
%
G90
M71
T1
X69215Y43815
X69215Y1905
X3175Y1905
X3175Y43815
T2
X34036Y15285
X34036Y12745
X15494Y15285
X34036Y24085
X15494Y24085
X34036Y26625
X15494Y12745
X15494Y26625
T3
X7620Y13970
X7620Y19050
T4
X5080Y38100
X48260Y8890
X63500Y6350
X60960Y6350
X58420Y6350
X63500Y41275
X63500Y43815
X67310Y15240
X67310Y17780
X67310Y20320
X67310Y22860
X67310Y25400
X67310Y27940
X63500Y2540
X60960Y2540
X58420Y2540
X55880Y2540
X53340Y2540
X20320Y43180
X20320Y40640
X20320Y38100
X25400Y43180
X25400Y40640
X25400Y38100
X30480Y43180
X30480Y40640
X30480Y38100
X35560Y43180
X35560Y40640
X35560Y38100
X48260Y43180
X48260Y40640
X48260Y38100
X50800Y43180
X50800Y40640
X50800Y38100
X40640Y43180
X40640Y40640
X40640Y38100
X43180Y43180
X43180Y40640
X43180Y38100
X55880Y43180
X55880Y40640
X55880Y38100
X67310Y10160
X67310Y7620
X34290Y2540
X34290Y5080
X13970Y2540
X13970Y5080
X8890Y2540
X8890Y5080
X11430Y2540
X11430Y5080
X19050Y2540
X19050Y5080
X24130Y2540
X24130Y5080
X67310Y33020
X64770Y33020
X67310Y35560
X64770Y35560
X67310Y38100
X64770Y38100
X15240Y8890
X20320Y8890
X22860Y8890
X25400Y8890
X50800Y2540
X30480Y8890
X33020Y8890
X35560Y8890
X38100Y8890
X40640Y8890
X43180Y8890
X45720Y8890
X48260Y2540
X50800Y8890
X15240Y34290
X17780Y34290
X20310Y34290
X22860Y34290
X25400Y34290
X27940Y34290
X30480Y34290
X33020Y34290
X35560Y34290
X38100Y34290
X40640Y34290
X43180Y34290
X45720Y34290
X48260Y34290
X50800Y34290
X17780Y8890
X22860Y43180
X22860Y40640
X22860Y38100
X27940Y43180
X27940Y40640
X27940Y38100
X33020Y43180
X33020Y40640
X33020Y38100
X38100Y43180
X38100Y40640
X38100Y38100
X29210Y2540
X29210Y5080
X31750Y2540
X31750Y5080
X39370Y2540
X39370Y5080
X36830Y2540
X36830Y5080
X16510Y2540
X16510Y5080
X26670Y2540
X26670Y5080
X21590Y2540
X21590Y5080
X41910Y13652
X41910Y16192
X41910Y24447
X41910Y26987
X41910Y29527
X27940Y8890
T5
X17780Y20638
X16192Y20638
X7937Y42863
X10795Y40958
X10795Y42545
X10795Y44132
X7937Y44450
X10897Y12700
T6
X7302Y29845
X9843Y29845
X4763Y29845
T7
X55245Y12382
X56197Y12382
X29527Y14287
X63500Y21285
X29527Y13335
X30480Y14287
X55245Y11430
X53975Y35878
X38735Y14287
X46355Y16828
X58420Y22860
X58143Y24676
X52081Y26659
X53342Y29210
X36830Y33179
M30